<svg width="11" height="16" viewBox="0 0 11 16" fill="none" xmlns="http://www.w3.org/2000/svg">
<path d="M8.07737 10.9354C8.16789 10.9862 8.26767 11.0183 8.37082 11.03C8.47397 11.0416 8.5784 11.0325 8.67797 11.0031C8.77754 10.9738 8.87023 10.9248 8.95057 10.8591C9.03092 10.7933 9.09729 10.7122 9.14579 10.6204C10.1512 8.67175 11 6.66009 11 5.43419C10.9826 3.9869 10.3954 2.6048 9.36575 1.58755C8.33611 0.570304 6.947 -0.000103586 5.49961 1.41097e-08C4.05221 0.000103614 2.66319 0.570711 1.63369 1.58811C0.604199 2.6055 0.0172128 3.98768 0 5.43498C0 7.79229 3.42574 13.2927 4.93429 15.3358C5.01309 15.4451 5.11723 15.5337 5.23777 15.5939C5.35831 15.6541 5.49165 15.6841 5.62636 15.6815C5.76765 15.6781 5.90628 15.6423 6.03158 15.5769C6.15688 15.5115 6.26552 15.4183 6.34915 15.3043C6.69479 14.8319 7.10342 14.1729 7.57504 13.3872C7.68164 13.203 7.71174 12.9844 7.65889 12.7783C7.60604 12.5722 7.47444 12.395 7.29239 12.2849C7.11548 12.1939 6.91093 12.1725 6.71901 12.2248C6.52709 12.2771 6.36172 12.3994 6.25545 12.5675C6.03578 12.9132 5.84682 13.2588 5.62558 13.573C3.83437 10.9669 1.57469 6.91203 1.57469 5.43498C1.57469 4.39298 1.98862 3.39366 2.72542 2.65686C3.46222 1.92006 4.46154 1.50613 5.50354 1.50613C6.54553 1.50613 7.54485 1.92006 8.28165 2.65686C9.01846 3.39366 9.43239 4.39298 9.43239 5.43498C9.43239 6.31523 8.70961 8.07494 7.76637 9.89843C7.67121 10.0778 7.65092 10.2876 7.70993 10.4819C7.76894 10.6762 7.90246 10.8392 8.0813 10.9354H8.07737Z" fill="#E1FBDE"/>
<path d="M5.50042 4.33827C5.71843 4.33827 5.93155 4.40291 6.11282 4.52403C6.29408 4.64515 6.43537 4.81731 6.5188 5.01872C6.60222 5.22014 6.62405 5.44177 6.58152 5.65559C6.53899 5.86941 6.43401 6.06582 6.27985 6.21998C6.12569 6.37414 5.92929 6.47912 5.71546 6.52165C5.50164 6.56418 5.28001 6.54235 5.07859 6.45892C4.87718 6.37549 4.70503 6.23421 4.58391 6.05294C4.46279 5.87167 4.39814 5.65856 4.39814 5.44055C4.40101 5.14909 4.51806 4.87039 4.72416 4.66429C4.93026 4.45819 5.20897 4.34114 5.50042 4.33827ZM5.50042 2.76358C4.97205 2.76358 4.45556 2.92026 4.01624 3.2138C3.57692 3.50734 3.23451 3.92457 3.03231 4.41271C2.83012 4.90086 2.77721 5.438 2.88029 5.95621C2.98337 6.47442 3.2378 6.95043 3.61141 7.32404C3.98502 7.69765 4.46103 7.95209 4.97924 8.05516C5.49746 8.15824 6.0346 8.10534 6.52274 7.90314C7.01089 7.70095 7.42811 7.35854 7.72166 6.91922C8.0152 6.4799 8.17188 5.9634 8.17188 5.43504C8.17219 5.08413 8.1033 4.7366 7.96916 4.41235C7.83502 4.08809 7.63825 3.79347 7.39012 3.54534C7.14199 3.29721 6.84737 3.10044 6.52311 2.9663C6.19885 2.83215 5.85133 2.76327 5.50042 2.76358Z" fill="#E1FBDE"/>
</svg>
