<svg width="13" height="11" viewBox="0 0 13 11" fill="none" xmlns="http://www.w3.org/2000/svg">
<path d="M8.80541 1.18859e-05C9.51356 -0.000164489 10.2059 0.210108 10.7947 0.604231C11.3836 0.998353 11.8426 1.55862 12.1136 2.21415C12.3846 2.86968 12.4555 3.59102 12.3173 4.28693C12.1791 4.98284 11.838 5.62205 11.3372 6.12369L6.67592 10.8014C6.6131 10.8644 6.53851 10.9143 6.45641 10.9484C6.37431 10.9825 6.28631 11.0001 6.19744 11.0001C6.10857 11.0001 6.02057 10.9825 5.93847 10.9484C5.85637 10.9143 5.78178 10.8644 5.71896 10.8014L1.04869 6.12459C0.377225 5.4518 0 4.5393 0 3.58782C0 2.63635 0.377225 1.72384 1.04869 1.05105C1.72015 0.378257 2.63085 0.000285312 3.58045 0.000285312C4.53004 0.000285312 5.44074 0.378257 6.11221 1.05105L6.19338 1.13239L6.27456 1.05105C6.60608 0.716862 7.00047 0.45189 7.4349 0.271477C7.86932 0.0910641 8.33515 -0.00120523 8.80541 1.18859e-05Z" fill="#FF0000"/>
</svg>
