<svg width="39" height="39" viewBox="0 0 39 39" fill="none" xmlns="http://www.w3.org/2000/svg">
<path d="M19.5 0C8.7293 0 0 8.7293 0 19.5C0 30.2707 8.7293 39 19.5 39C30.2707 39 39 30.2707 39 19.5C39 8.7293 30.2707 0 19.5 0ZM31.6723 31.6646C30.0879 33.249 28.2521 34.4906 26.2031 35.3514C24.0855 36.2502 21.8309 36.6996 19.5 36.6996C17.1768 36.6996 14.9221 36.2426 12.7969 35.3514C10.7479 34.483 8.90449 33.2414 7.32773 31.6646C5.74336 30.0803 4.50176 28.2445 3.64102 26.1955C2.74219 24.0779 2.28516 21.8232 2.28516 19.5C2.28516 17.1768 2.74219 14.9221 3.6334 12.7969C4.50176 10.7479 5.74336 8.90449 7.32012 7.32773C8.91211 5.74336 10.7479 4.50176 12.7969 3.6334C14.9221 2.74219 17.1768 2.28516 19.5 2.28516C21.8232 2.28516 24.0779 2.74219 26.2031 3.6334C28.2521 4.50176 30.0955 5.74336 31.6723 7.32012C33.2566 8.90449 34.4982 10.7402 35.359 12.7893C36.2578 14.9068 36.7072 17.1615 36.7072 19.4924C36.7072 21.8156 36.2502 24.0703 35.359 26.1955C34.4906 28.2445 33.249 30.0879 31.6723 31.6646Z" fill="white"/>
</svg>
