<svg width="23" height="23" viewBox="0 0 23 23" fill="none" xmlns="http://www.w3.org/2000/svg">
<path d="M11.4999 0.958328C9.41505 0.958394 7.37701 1.57668 5.64351 2.73502C3.91001 3.89335 2.55892 5.5397 1.76108 7.46588C0.963234 9.39207 0.754476 11.5116 1.1612 13.5564C1.56792 15.6012 2.57186 17.4795 4.04606 18.9538C6.02749 20.9089 8.70175 22.0009 11.4853 21.9915C14.2689 21.9822 16.9358 20.8723 18.904 18.904C20.8723 16.9358 21.9822 14.2689 21.9915 11.4853C22.0009 8.70175 20.9089 6.02749 18.9538 4.04606C17.9772 3.0641 16.8156 2.28559 15.5362 1.75558C14.2567 1.22557 12.8848 0.954591 11.4999 0.958328ZM11.4999 0C13.7744 0 15.9978 0.67446 17.889 1.93809C19.7801 3.20172 21.2541 4.99776 22.1245 7.0991C22.9949 9.20044 23.2226 11.5127 22.7789 13.7435C22.3352 15.9742 21.2399 18.0233 19.6316 19.6316C18.0233 21.2399 15.9742 22.3352 13.7435 22.7789C11.5127 23.2226 9.20044 22.9949 7.0991 22.1245C4.99776 21.2541 3.20172 19.7801 1.93809 17.889C0.67446 15.9978 0 13.7744 0 11.4999C0 8.44997 1.2116 5.52491 3.36825 3.36825C5.52491 1.2116 8.44997 0 11.4999 0Z" fill="#10762C"/>
</svg>
