<svg width="16" height="19" viewBox="0 0 16 19" fill="none" xmlns="http://www.w3.org/2000/svg">
<path fill-rule="evenodd" clip-rule="evenodd" d="M13.6569 2.41009C12.0948 0.803362 10.2091 0 8.00003 0C5.79087 0 3.90525 0.803362 2.34316 2.41009C0.781052 4.01681 0 5.95633 0 8.22855C0 10.5008 0.781052 12.4403 2.34316 14.0471L6.57022 18.3949C7.35471 19.2017 8.64535 19.2017 9.42984 18.3949L13.6569 14.0471C15.219 12.4403 16 10.5008 16 8.22855C16 5.95633 15.219 4.01681 13.6569 2.41009ZM8.00003 11.3143C8.19698 11.3143 8.3921 11.2945 8.58527 11.2549C8.7785 11.2154 8.96606 11.1569 9.14808 11.0794C9.33003 11.0018 9.50296 10.9068 9.66674 10.7943C9.83052 10.6816 9.98202 10.5537 10.1213 10.4105C10.1908 10.339 10.2567 10.2642 10.319 10.1861C10.3813 10.108 10.4398 10.0269 10.4944 9.94289C10.549 9.85887 10.5995 9.77224 10.6458 9.68312C10.6921 9.594 10.734 9.5028 10.7716 9.4094C10.8092 9.316 10.8423 9.221 10.8708 9.12428C10.8994 9.02756 10.9232 8.92965 10.9424 8.83055C10.9616 8.7314 10.976 8.63159 10.9856 8.53101C10.9952 8.43043 11 8.32961 11 8.22855C11 8.12749 10.9952 8.02668 10.9856 7.92609C10.976 7.82551 10.9616 7.7257 10.9424 7.62655C10.9232 7.52745 10.8994 7.42954 10.8708 7.33282C10.8423 7.2361 10.8092 7.1411 10.7716 7.0477C10.734 6.9543 10.6921 6.8631 10.6458 6.77398C10.5995 6.68486 10.549 6.59823 10.4944 6.51421C10.4398 6.4302 10.3813 6.34915 10.319 6.27101C10.2567 6.19288 10.1908 6.11806 10.1213 6.04664C9.98202 5.90336 9.83052 5.77544 9.66674 5.66288C9.50296 5.55031 9.33003 5.45527 9.14808 5.37773C8.96606 5.3002 8.7785 5.24166 8.58527 5.20213C8.3921 5.16261 8.19698 5.14285 8.00003 5.14285C7.80302 5.14285 7.60796 5.16261 7.41473 5.20213C7.22156 5.24166 7.03394 5.3002 6.85198 5.37773C6.66997 5.45527 6.4971 5.55031 6.33332 5.66288C6.16954 5.77544 6.01798 5.90336 5.87869 6.04664C5.80922 6.11806 5.74331 6.19288 5.68098 6.27101C5.61865 6.34915 5.56019 6.4302 5.5056 6.51421C5.45101 6.59823 5.40056 6.68486 5.35425 6.77398C5.30793 6.8631 5.26597 6.95436 5.22837 7.0477C5.19077 7.1411 5.15771 7.2361 5.12919 7.33282C5.10067 7.42954 5.07682 7.52745 5.05765 7.62655C5.03848 7.7257 5.02409 7.82551 5.01446 7.92609C5.00483 8.02668 5.00001 8.12749 5.00001 8.22855C5.00001 8.32961 5.00483 8.43043 5.01446 8.53101C5.02409 8.63159 5.03848 8.7314 5.05765 8.83055C5.07682 8.92965 5.10067 9.02756 5.12919 9.12428C5.15771 9.221 5.19077 9.31606 5.22837 9.4094C5.26597 9.5028 5.30793 9.594 5.35425 9.68312C5.40056 9.77224 5.45101 9.85887 5.5056 9.94289C5.56019 10.0269 5.61865 10.108 5.68098 10.1861C5.74331 10.2642 5.80922 10.339 5.87869 10.4105C6.01798 10.5537 6.16954 10.6816 6.33332 10.7943C6.4971 10.9068 6.66997 11.0018 6.85198 11.0794C7.03394 11.1569 7.22156 11.2154 7.41473 11.2549C7.60796 11.2945 7.80302 11.3143 8.00003 11.3143Z" fill="#10762C"/>
</svg>
