<svg width="20" height="20" viewBox="0 0 20 20" fill="none" xmlns="http://www.w3.org/2000/svg">
<path d="M14.1899 0H5.80998C2.16999 0 0 2.16999 0 5.80998V14.1799C0 17.8299 2.16999 19.9999 5.80998 19.9999H14.1799C17.8199 19.9999 19.9899 17.8299 19.9899 14.1899V5.80998C19.9999 2.16999 17.8299 0 14.1899 0Z" fill="#10762C"/>
<path d="M8.57961 13.5801C8.37961 13.5801 8.18962 13.5001 8.04962 13.3601L5.21958 10.5301C4.92958 10.2401 4.92958 9.76006 5.21958 9.47007C5.50958 9.18007 5.98957 9.18007 6.27957 9.47007L8.57961 11.7701L13.7196 6.63008C14.0096 6.34008 14.4896 6.34008 14.7796 6.63008C15.0696 6.92008 15.0696 7.40007 14.7796 7.69007L9.10961 13.3601C8.96961 13.5001 8.77961 13.5801 8.57961 13.5801Z" fill="white"/>
</svg>
