<svg width="11" height="11" viewBox="0 0 11 11" fill="none" xmlns="http://www.w3.org/2000/svg">
<path d="M10.9605 4.17307C10.9197 4.05085 10.814 3.96181 10.6869 3.94221L7.31197 3.4255L5.79982 0.197678C5.74321 0.0770084 5.6221 0 5.48915 0C5.35621 0 5.23527 0.0770084 5.17849 0.197678L3.66633 3.4255L0.291386 3.94238C0.164273 3.96181 0.0587735 4.05102 0.0177747 4.17324C-0.0230527 4.29528 0.00765359 4.43005 0.0975423 4.52235L2.54958 7.0418L1.97011 10.6007C1.94884 10.7306 2.00356 10.8615 2.11112 10.9371C2.17013 10.9789 2.23926 11 2.30857 11C2.36552 11 2.42281 10.9856 2.47462 10.957L5.48898 9.28639L8.50334 10.957C8.55515 10.9856 8.61244 11 8.6694 11C8.7387 11 8.808 10.9789 8.86684 10.9371C8.9744 10.8615 9.02912 10.7306 9.00785 10.6007L8.42838 7.0418L10.8804 4.52235C10.9705 4.42988 11.0014 4.29511 10.9605 4.17307Z" fill="#EBE300"/>
</svg>
