<svg width="44" height="28" viewBox="0 0 44 28" fill="none" xmlns="http://www.w3.org/2000/svg">
<path d="M39.113 0H4.88696C4.88696 2.75758 2.69476 4.98485 0 4.98485V23.0152C2.70343 23.0152 4.88696 25.2513 4.88696 28H39.113C39.113 25.2424 41.3052 23.0152 44 23.0152V4.98485C41.3052 4.98485 39.113 2.75758 39.113 0Z" fill="#FFD15C"/>
<path d="M9.65889 24.4618H7.3736L7.23297 24.1893C6.9517 23.6356 6.60891 23.0994 6.21338 22.616L6.97807 21.9919C7.35602 22.4578 7.69003 22.95 7.97129 23.4774H9.6501V24.4618H9.65889Z" fill="white"/>
<path d="M5.99369 22.3524C5.91459 22.2645 5.84427 22.1854 5.75638 22.0975L6.46833 21.4119C6.55623 21.5086 6.64412 21.5965 6.73202 21.6932L5.99369 22.3524ZM5.51027 21.8514C5.43116 21.7723 5.34327 21.6932 5.25537 21.6141L5.91459 20.8757C6.01127 20.9636 6.10796 21.0515 6.19585 21.1394L5.51027 21.8514Z" fill="white"/>
<path d="M5.00059 21.3942C4.51717 20.9987 3.981 20.6559 3.42726 20.3747L3.15479 20.234V17.9399H4.14801V19.6363C4.67538 19.9176 5.1676 20.2516 5.63344 20.6295L5.00059 21.3942Z" fill="white"/>
<path d="M4.14801 16.3755H3.15479V14.8022H4.14801V16.3755ZM4.14801 13.2201H3.15479V11.6467H4.14801V13.2201Z" fill="white"/>
<path d="M4.14801 10.0647H3.15479V7.77057L3.42726 7.62994C3.98979 7.34868 4.51717 7.00588 5.00059 6.61035L5.62465 7.38383C5.15881 7.76179 4.66659 8.09579 4.13922 8.37706V10.0647H4.14801Z" fill="white"/>
<path d="M5.92338 7.14633L5.26416 6.408C5.35206 6.32889 5.43116 6.24979 5.51906 6.17068L6.20464 6.88264C6.10796 6.97053 6.02006 7.05843 5.92338 7.14633ZM6.47712 6.61016L5.75638 5.92457C5.83548 5.84547 5.91459 5.75757 5.99369 5.66968L6.74081 6.3289C6.65291 6.41679 6.56502 6.51348 6.47712 6.61016Z" fill="white"/>
<path d="M6.98735 6.03896L6.22266 5.4149C6.61819 4.93147 6.96098 4.39531 7.24225 3.84157L7.38288 3.56909H9.67696V4.56231H7.98057C7.6993 5.07211 7.3653 5.57311 6.98735 6.03896Z" fill="white"/>
<path d="M18.6332 4.55352H16.3919V3.5603H18.6332V4.55352ZM14.1505 4.55352H11.9092V3.5603H14.1505V4.55352Z" fill="white"/>
<path d="M32.0988 4.55352H29.8574V3.5603H32.0988V4.55352ZM27.6073 4.55352H25.366V3.5603H27.6073V4.55352ZM23.1246 4.55352H20.8833V3.5603H23.1246V4.55352Z" fill="white"/>
<path d="M37.0124 6.03896C36.6344 5.57311 36.3004 5.0809 36.0191 4.55352H34.3403V3.5603H36.6344L36.775 3.83278C37.0563 4.38652 37.3903 4.92269 37.7946 5.40611L37.0124 6.03896Z" fill="white"/>
<path d="M38.085 7.14633C37.9883 7.05843 37.8916 6.97053 37.8037 6.88264L38.4893 6.17068C38.5684 6.24979 38.6563 6.32889 38.7442 6.408L38.085 7.14633ZM37.5225 6.61016C37.4346 6.51348 37.3467 6.42558 37.2588 6.3289L37.9971 5.66968C38.0762 5.75757 38.1553 5.83668 38.2344 5.92457L37.5225 6.61016Z" fill="white"/>
<path d="M40.8449 10.0647H39.8516V8.38584C39.3331 8.10458 38.8321 7.77057 38.3662 7.39262L38.9903 6.61914C39.4737 7.01467 40.0099 7.35746 40.5636 7.63873L40.8361 7.77936V10.0647H40.8449Z" fill="white"/>
<path d="M40.8443 16.3755H39.8511V14.8022H40.8443V16.3755ZM40.8443 13.2201H39.8511V11.6467H40.8443V13.2201Z" fill="white"/>
<path d="M38.9986 21.3942L38.3745 20.6208C38.8404 20.2428 39.3326 19.9088 39.8599 19.6275V17.9487H40.8532V20.2428L40.5807 20.3834C40.0182 20.6559 39.482 20.9987 38.9986 21.3942Z" fill="white"/>
<path d="M38.0059 22.3524L37.2588 21.6932C37.3467 21.5965 37.4346 21.4998 37.5225 21.4119L38.2432 22.0975C38.1553 22.1854 38.0762 22.2645 38.0059 22.3524ZM38.4805 21.8514L37.795 21.1394C37.8916 21.0515 37.9795 20.9636 38.0762 20.8757L38.7354 21.6141C38.6475 21.6932 38.5684 21.7723 38.4805 21.8514Z" fill="white"/>
<path d="M36.6256 24.4618H34.3315V23.4686H36.0103C36.2916 22.95 36.6256 22.449 37.0036 21.9832L37.7771 22.6072C37.3815 23.0906 37.0387 23.6268 36.7575 24.1805L36.6256 24.4618Z" fill="white"/>
<path d="M32.0985 24.462H29.8572V23.4688H32.0985V24.462ZM27.6071 24.462H25.3657V23.4688H27.6071V24.462Z" fill="white"/>
<path d="M23.1247 24.462H20.8833V23.4688H23.1247V24.462ZM18.6332 24.462H16.3919V23.4688H18.6332V24.462ZM14.1505 24.462H11.9092V23.4688H14.1505V24.462Z" fill="white"/>
<path d="M17.5871 14.8255C17.2707 14.4739 16.8312 14.2981 16.2687 14.2981C15.7149 14.2981 15.2754 14.4739 14.959 14.8255C14.6426 15.1771 14.4756 15.7132 14.4756 16.4427C14.4756 17.1723 14.6338 17.7172 14.959 18.0688C15.2754 18.4204 15.7237 18.5962 16.2862 18.5962C16.8312 18.5962 17.2619 18.4204 17.5871 18.0688C17.9035 17.7172 18.0705 17.1723 18.0705 16.4427C18.0705 15.7132 17.9035 15.1771 17.5871 14.8255ZM16.6466 17.4975C16.5587 17.6293 16.4269 17.6997 16.2687 17.6997C16.1104 17.6997 15.9786 17.6293 15.8819 17.4975C15.7589 17.3217 15.6973 16.9701 15.6973 16.4427C15.6973 15.9154 15.7589 15.5638 15.8819 15.3792C15.9698 15.2474 16.1017 15.1771 16.2687 15.1771C16.4357 15.1771 16.5675 15.2474 16.6554 15.3792C16.7697 15.5638 16.8312 15.9154 16.8312 16.4427C16.8312 16.9701 16.7609 17.3217 16.6466 17.4975Z" fill="#40596B"/>
<path d="M12.5861 12.1447C12.5861 11.4151 12.4279 10.8702 12.1115 10.5274C11.7951 10.1758 11.3468 10 10.7843 10C10.2393 10 9.80864 10.1758 9.48343 10.5274C9.167 10.879 9 11.4151 9 12.1447C9 12.8742 9.15821 13.4191 9.48343 13.7619C9.79985 14.1135 10.2481 14.2893 10.8107 14.2893C11.3556 14.2893 11.7863 14.1135 12.1115 13.7619C12.4279 13.4191 12.5861 12.8742 12.5861 12.1447ZM11.171 13.1994C11.0743 13.3312 10.9513 13.4016 10.7843 13.4016C10.6261 13.4016 10.4942 13.3312 10.3975 13.1994C10.2745 13.0148 10.213 12.6632 10.213 12.1359C10.213 11.6085 10.2745 11.2569 10.3975 11.0723C10.4854 10.9405 10.6173 10.8702 10.7843 10.8702C10.9513 10.8702 11.0831 10.9405 11.171 11.0723C11.2853 11.2481 11.3468 11.5997 11.3468 12.1271C11.3468 12.6544 11.2853 13.0236 11.171 13.1994Z" fill="#40596B"/>
<path d="M15.1438 10L10.8105 18.5786H11.9708L16.2601 10H15.1438Z" fill="#40596B"/>
<path d="M22.8478 11C22.3732 11 21.9425 11.0791 21.5821 11.2285C21.3096 11.3428 21.0547 11.5186 20.8174 11.7559C20.5889 11.9932 20.4043 12.2657 20.2725 12.5645C20.0967 12.9689 20 13.4787 20 14.0763C20 15.0168 20.2549 15.7464 20.7735 16.2825C21.2921 16.8187 21.9864 17.0824 22.8654 17.0824C23.7268 17.0824 24.4212 16.8099 24.9397 16.2737C25.4583 15.7376 25.7132 14.9905 25.7132 14.0412C25.7132 13.0831 25.4495 12.336 24.9309 11.7999C24.4036 11.2725 23.7092 11 22.8478 11ZM24.0256 15.5618C23.718 15.9046 23.3312 16.0716 22.8566 16.0716C22.382 16.0716 21.9952 15.8958 21.6876 15.553C21.38 15.2102 21.2217 14.7004 21.2217 14.0412C21.2217 13.3644 21.3712 12.8546 21.67 12.5206C21.9689 12.1866 22.3644 12.0196 22.8566 12.0196C23.3488 12.0196 23.7356 12.1866 24.0344 12.5206C24.3333 12.8546 24.4739 13.3556 24.4739 14.0324C24.4739 14.7092 24.3245 15.219 24.0256 15.5618Z" fill="#F1543F"/>
<path d="M26.645 16.9857H27.8316V14.4895H30.2839V13.4874H27.8316V12.0987H30.6794V11.0967H26.645V16.9857Z" fill="#F1543F"/>
<path d="M35.698 12.0987V11.0967H31.6636V16.9857H32.8502V14.4895H35.3112V13.4874H32.8502V12.0987H35.698Z" fill="#F1543F"/>
</svg>
