<svg width="23" height="23" viewBox="0 0 23 23" fill="none" xmlns="http://www.w3.org/2000/svg">
<path d="M11.4749 22.9999C17.8123 22.9999 22.9498 17.8512 22.9498 11.5C22.9498 5.14871 17.8123 0 11.4749 0C5.13749 0 0 5.14871 0 11.5C0 17.8512 5.13749 22.9999 11.4749 22.9999Z" fill="#10762C"/>
<path d="M6.11222 11.0316C6.21584 10.9401 6.3369 10.8705 6.46809 10.8272C6.59928 10.7838 6.73788 10.7676 6.87551 10.7794C7.01314 10.7912 7.14696 10.8309 7.26887 10.896C7.39079 10.9611 7.49827 11.0503 7.58483 11.1581L9.81575 13.4351L16.4224 6.98366C16.5231 6.88916 16.6419 6.81613 16.7715 6.76901C16.9012 6.72189 17.0391 6.70166 17.1768 6.70955C17.3145 6.71743 17.4491 6.75327 17.5726 6.81489C17.6961 6.8765 17.8058 6.96261 17.895 7.06799C17.9896 7.16874 18.0627 7.28774 18.1099 7.41772C18.157 7.5477 18.1773 7.68594 18.1694 7.82403C18.1615 7.96211 18.1257 8.09715 18.0641 8.2209C18.0024 8.34465 17.9163 8.45452 17.8109 8.54382L10.4889 15.7131C10.3816 15.8152 10.2499 15.8878 10.1064 15.9239H10.0682C10.0516 15.9399 10.0317 15.952 10.0098 15.9593C9.988 15.9666 9.96482 15.9689 9.94197 15.9661H9.55948C9.5174 15.9661 9.43325 15.9239 9.39118 15.9239C9.25432 15.8548 9.12595 15.7698 9.00868 15.6709L6.02903 12.5496C5.92931 12.4474 5.8519 12.3255 5.80171 12.1917C5.75151 12.0579 5.72963 11.9151 5.73746 11.7723C5.74528 11.6296 5.78264 11.49 5.84715 11.3625C5.91167 11.235 6.00194 11.1223 6.11222 11.0316Z" fill="white"/>
</svg>
