<svg width="54" height="32" viewBox="0 0 54 32" fill="none" xmlns="http://www.w3.org/2000/svg">
<path d="M38.2909 0.24535H15.7091C7.16876 0.24535 0.245457 7.16866 0.245457 15.709C0.245457 24.2493 7.16876 31.1726 15.7091 31.1726H38.2909C46.8312 31.1726 53.7546 24.2493 53.7546 15.709C53.7546 7.16866 46.8312 0.24535 38.2909 0.24535Z" stroke="#10762C" stroke-width="0.486536"/>
<path d="M24.138 11.5646L22.5887 18.6612H24.6407L25.1433 16.3097H26.6072C27.2861 16.3285 27.9493 16.104 28.4771 15.6767C29.005 15.2495 29.3628 14.6477 29.4859 13.9799C29.5771 13.6939 29.5975 13.3901 29.5453 13.0945C29.4932 12.799 29.3701 12.5205 29.1867 12.2829C29.0032 12.0454 28.7649 11.856 28.4921 11.7308C28.2193 11.6057 27.9202 11.5487 27.6205 11.5646H24.138ZM25.8689 13.0079H26.8743C26.9921 13.0053 27.1088 13.0315 27.2142 13.0843C27.3196 13.137 27.4105 13.2147 27.479 13.3106C27.5475 13.4065 27.5916 13.5177 27.6073 13.6345C27.6231 13.7513 27.6101 13.8702 27.5694 13.9808C27.503 14.2477 27.3527 14.4863 27.1406 14.6614C26.9286 14.8366 26.6659 14.9391 26.3912 14.9538H25.4291L25.8689 13.0079ZM30.2292 13.4251C30.2282 13.6588 30.2032 13.8917 30.1545 14.1203C30.0305 14.7393 29.7511 15.3167 29.3426 15.7982C29.2595 16.0398 29.1063 16.2512 28.9026 16.4055C28.6989 16.5597 28.4539 16.6497 28.1988 16.6641H28.1781C27.6845 16.8864 27.1486 16.9993 26.6072 16.995H25.6991L25.3142 18.8016L25.1964 19.3465H24.6299L24.406 20.3715H26.4423L26.9489 18.02H28.4138C29.0933 18.0386 29.7572 17.8142 30.2862 17.3872C30.8151 16.9601 31.1743 16.3584 31.2993 15.6902C31.4432 15.2473 31.4127 14.7663 31.214 14.3452C31.0153 13.9241 30.6634 13.5947 30.2301 13.4241L30.2292 13.4251Z" fill="#10762C"/>
</svg>
