<svg width="14" height="8" viewBox="0 0 14 8" fill="none" xmlns="http://www.w3.org/2000/svg">
<path d="M7.00036 5.59165L1.71682 0.30362C1.62451 0.208375 1.51415 0.132457 1.39218 0.0802969C1.27021 0.0281362 1.13906 0.000778208 1.0064 -0.000182511C0.873733 -0.00114374 0.742206 0.024312 0.619489 0.0747004C0.496773 0.125089 0.385325 0.1994 0.291648 0.293298C0.19797 0.387196 0.12394 0.498802 0.0738748 0.621602C0.0238101 0.744403 -0.0012859 0.875938 5.07152e-05 1.00854C0.00138733 1.14113 0.0291298 1.27214 0.0816598 1.39391C0.13419 1.51567 0.210455 1.62576 0.306006 1.71776L6.29595 7.70986C6.47798 7.89058 6.72258 7.99439 6.97908 7.99978C7.23558 8.00517 7.48433 7.91173 7.67379 7.73882L13.7067 1.72275C13.889 1.53466 13.9901 1.28253 13.9882 1.02066C13.9863 0.758796 13.8815 0.508153 13.6966 0.32272C13.5116 0.137287 13.2611 0.0319005 12.9991 0.0292621C12.7371 0.0266238 12.4846 0.126945 12.2959 0.308615L7.00036 5.59165Z" fill="#10762C"/>
</svg>
