<svg width="13" height="13" viewBox="0 0 13 13" fill="none" xmlns="http://www.w3.org/2000/svg">
<path d="M6.49998 0C7.78556 0 9.04226 0.381217 10.1112 1.09544C11.1801 1.80967 12.0132 2.82483 12.5052 4.01255C12.9972 5.20026 13.1259 6.50719 12.8751 7.76807C12.6243 9.02894 12.0052 10.1871 11.0962 11.0962C10.1871 12.0052 9.02894 12.6243 7.76807 12.8751C6.50719 13.1259 5.20026 12.9972 4.01255 12.5052C2.82483 12.0132 1.80967 11.1801 1.09544 10.1112C0.381217 9.04226 0 7.78556 0 6.49998C0 4.77608 0.684818 3.12278 1.9038 1.9038C3.12278 0.684818 4.77608 0 6.49998 0Z" fill="#10762C"/>
</svg>
