<svg width="12" height="12" viewBox="0 0 12 12" fill="none" xmlns="http://www.w3.org/2000/svg">
<path fill-rule="evenodd" clip-rule="evenodd" d="M4.2 10.8003C2.5458 10.8003 1.2 9.45484 1.2 7.80105C1.2 6.14726 2.5458 4.8018 4.2 4.8018C5.8542 4.8018 7.2 6.14726 7.2 7.80105C7.2 9.45484 5.8542 10.8003 4.2 10.8003ZM7.2 0V1.1997H9.9516L6.7116 4.44008C6.0108 3.91521 5.1432 3.60152 4.2 3.60152C1.8804 3.60152 0 5.48145 0 7.80046C0 10.1195 1.8804 12 4.2 12C6.5196 12 8.4 10.1201 8.4 7.80105C8.4 6.85809 8.085 5.9907 7.5606 5.28947L10.8 2.05085V4.7988H12V0H7.2Z" fill="#10762C"/>
</svg>
