<svg width="23" height="23" viewBox="0 0 23 23" fill="none" xmlns="http://www.w3.org/2000/svg">
<path d="M11.476 22.5208C17.5494 22.5208 22.4728 17.5867 22.4728 11.5C22.4728 5.41341 17.5494 0.479224 11.476 0.479224C5.40265 0.479224 0.479224 5.41341 0.479224 11.5C0.479224 17.5867 5.40265 22.5208 11.476 22.5208Z" stroke="#10762C" stroke-width="0.933968"/>
<path d="M6.11322 11.0314C6.21684 10.9398 6.3379 10.8703 6.46909 10.8269C6.60028 10.7836 6.73888 10.7673 6.87651 10.7792C7.01415 10.791 7.14796 10.8306 7.26987 10.8957C7.39179 10.9608 7.49927 11.05 7.58584 11.1579L9.81675 13.4349L16.4234 6.98341C16.5241 6.8889 16.6429 6.81588 16.7725 6.76876C16.9022 6.72164 17.0401 6.70141 17.1778 6.7093C17.3155 6.71718 17.4501 6.75302 17.5736 6.81464C17.6971 6.87625 17.8068 6.96236 17.896 7.06774C17.9906 7.16849 18.0637 7.28749 18.1109 7.41747C18.158 7.54745 18.1783 7.68569 18.1704 7.82378C18.1625 7.96186 18.1267 8.0969 18.0651 8.22065C18.0034 8.3444 17.9173 8.45427 17.8119 8.54357L10.4899 15.7128C10.3826 15.8149 10.2509 15.8875 10.1074 15.9237H10.0692C10.0526 15.9397 10.0327 15.9517 10.0108 15.959C9.989 15.9663 9.96582 15.9687 9.94297 15.9658H9.56048C9.5184 15.9658 9.43425 15.9237 9.39218 15.9237C9.25532 15.8545 9.12696 15.7696 9.00968 15.6707L6.03003 12.5494C5.93032 12.4472 5.8529 12.3253 5.80271 12.1914C5.75252 12.0576 5.73064 11.9148 5.73846 11.7721C5.74628 11.6293 5.78364 11.4898 5.84815 11.3622C5.91267 11.2347 6.00294 11.1221 6.11322 11.0314Z" fill="#10762C"/>
</svg>
