<svg width="26" height="26" viewBox="0 0 26 26" fill="none" xmlns="http://www.w3.org/2000/svg">
<path fill-rule="evenodd" clip-rule="evenodd" d="M12.9998 24.6998C12.9998 23.9818 13.5818 23.3998 14.2997 23.3998H24.6995C25.4175 23.3998 25.9995 23.9818 25.9995 24.6998C25.9995 25.4178 25.4175 25.9998 24.6995 25.9998H14.2997C13.5818 25.9998 12.9998 25.4178 12.9998 24.6998Z" fill="#10762C"/>
<path fill-rule="evenodd" clip-rule="evenodd" d="M24.4052 7.92977C26.4979 5.82884 26.409 3.06991 24.8464 1.38035C24.0844 0.556516 22.9999 0.0302855 21.7716 0.00127002C20.5387 -0.0278494 19.2613 0.443639 18.0827 1.42977C18.0525 1.45499 18.0235 1.48157 17.9958 1.50941L1.13678 18.4357C0.408751 19.1666 0 20.1562 0 21.1879V23.3894C0 24.8213 1.15954 25.9995 2.60493 25.9995H4.78735C5.82437 25.9995 6.81868 25.5865 7.5505 24.8518L24.4052 7.92977ZM19.7689 4.93074C19.2612 4.42307 18.4381 4.42307 17.9304 4.93074C17.4228 5.43842 17.4228 6.26151 17.9304 6.76919L19.2304 8.06916C19.738 8.57683 20.5612 8.57683 21.0688 8.06916C21.5765 7.56149 21.5765 6.73839 21.0688 6.23071L19.7689 4.93074Z" fill="#10762C"/>
</svg>
