<svg width="18" height="20" viewBox="0 0 18 20" fill="none" xmlns="http://www.w3.org/2000/svg">
<path opacity="0.4" d="M17.0111 16.9934C17.0111 16.9934 14.7913 13.1783 14.3931 12.494C14.8461 12.3558 15.3287 12.2338 15.5292 11.8875C15.8634 11.3106 15.2686 10.3642 15.4248 9.74588C15.5857 9.10946 16.5355 8.55876 16.5355 7.91186C16.5355 7.2816 15.5535 6.5453 15.3925 5.91261C15.2352 5.29435 15.8283 4.34694 15.493 3.77073C15.1578 3.19447 14.0411 3.24182 13.5814 2.79949C13.1084 2.34429 13.1099 1.23057 12.5394 0.925523C11.9666 0.619339 11.0357 1.23814 10.3997 1.09156C9.77093 0.946656 9.20921 0 8.55246 0C7.88599 0 6.82595 1.07383 6.65969 1.11248C6.02403 1.26024 5.09191 0.642958 4.5197 0.950439C3.94977 1.25651 3.95328 2.37034 3.48117 2.82629C3.02224 3.26943 1.9055 3.22414 1.57126 3.80105C1.23708 4.37786 1.83194 5.32403 1.67579 5.94272C1.51921 6.56298 0.536292 7.19145 0.536292 7.90878C0.536292 8.55574 1.48851 9.1047 1.65039 9.7408C1.80772 10.3591 1.21465 11.3064 1.54991 11.8828C1.73243 12.1965 2.14655 12.3253 2.56013 12.4492C2.60839 12.4636 2.69968 12.5176 2.63785 12.6077C2.35491 13.0961 0.077584 17.0264 0.077584 17.0264C-0.103586 17.339 0.0435336 17.607 0.404414 17.6222L2.17087 17.6958C2.53175 17.711 2.98446 17.9733 3.17709 18.2788L4.11969 19.7745C4.31232 20.0801 4.61796 20.0743 4.79908 19.7618C4.79908 19.7618 7.43648 15.2084 7.43756 15.2071C7.49047 15.1453 7.54365 15.158 7.56911 15.1796C7.85767 15.4253 8.25995 15.6704 8.5957 15.6704C8.92496 15.6704 9.22985 15.4397 9.53144 15.1824C9.55598 15.1615 9.6157 15.1186 9.65937 15.2076C9.66008 15.209 12.2946 19.7374 12.2946 19.7374C12.4762 20.0496 12.7818 20.0549 12.9739 19.749L13.9138 18.2515C14.1059 17.9457 14.5581 17.6824 14.919 17.6667L16.6853 17.5897C17.046 17.5739 17.1927 17.3056 17.0111 16.9934ZM11.4718 12.8976C9.51869 14.0339 7.17434 13.9121 5.38372 12.7826C2.75995 11.102 1.89663 7.6254 3.47392 4.90304C5.06921 2.14928 8.57603 1.1776 11.3546 2.6909C11.3692 2.69885 11.3836 2.70706 11.3981 2.71517C11.4187 2.72657 11.4392 2.73814 11.4597 2.74981C12.3169 3.24403 13.0603 3.96131 13.5925 4.87618C15.2193 7.67242 14.268 11.2709 11.4718 12.8976Z" fill="#292D32"/>
<path d="M11.0251 3.5728C11.017 3.5681 11.0088 3.56372 11.0007 3.55908C9.51643 2.70003 7.62463 2.63723 6.03913 3.55967C3.6863 4.9285 2.88568 7.95623 4.25451 10.309C4.67219 11.027 5.24456 11.6001 5.90493 12.0114C5.96108 12.047 6.01789 12.082 6.07593 12.1156C8.4313 13.4801 11.4574 12.6741 12.8219 10.3188C14.1864 7.96342 13.3805 4.93736 11.0251 3.5728ZM11.6144 7.42326L10.7896 8.22712C10.5342 8.47607 10.3746 8.96747 10.4349 9.31906L10.6296 10.4541C10.6899 10.8057 10.481 10.9575 10.1652 10.7915L9.14582 10.2556C8.83007 10.0896 8.31343 10.0896 7.99767 10.2556L6.97832 10.7915C6.66257 10.9575 6.45357 10.8057 6.51389 10.4541L6.70857 9.31906C6.76889 8.96747 6.60923 8.47607 6.3538 8.22712L5.52913 7.42326C5.27364 7.17431 5.35352 6.92861 5.70651 6.87726L6.84618 6.71166C7.19917 6.66037 7.61718 6.35667 7.77505 6.03681L8.28473 5.00411C8.4426 4.68425 8.70095 4.68425 8.85877 5.00411L9.3685 6.03681C9.52638 6.35667 9.94433 6.66037 10.2974 6.71166L11.437 6.87726C11.79 6.92861 11.8698 7.17431 11.6144 7.42326Z" fill="#292D32"/>
</svg>
