<svg width="21" height="20" viewBox="0 0 21 20" fill="none" xmlns="http://www.w3.org/2000/svg">
<path d="M17.2871 9.91129e-05H9.10206C8.74467 -0.00296766 8.39024 0.0651639 8.05946 0.200519C7.72868 0.335875 7.42816 0.535744 7.17543 0.788469C6.92271 1.04119 6.72284 1.34171 6.58748 1.6725C6.45213 2.00328 6.384 2.35771 6.38706 2.7151V5.8281C6.38706 6.09332 6.49242 6.34767 6.67995 6.53521C6.86749 6.72274 7.12185 6.8281 7.38706 6.8281C7.65228 6.8281 7.90663 6.72274 8.09417 6.53521C8.28171 6.34767 8.38706 6.09332 8.38706 5.8281V2.7151C8.38733 2.52555 8.46274 2.34384 8.59677 2.20981C8.7308 2.07578 8.91251 2.00036 9.10206 2.0001H17.2871C17.3816 1.9997 17.4753 2.01803 17.5627 2.05402C17.6501 2.09001 17.7295 2.14296 17.7964 2.2098C17.8632 2.27665 17.9161 2.35607 17.9521 2.44348C17.9881 2.53089 18.0065 2.62457 18.0061 2.7191V17.2851C18.0059 17.3793 17.9872 17.4725 17.951 17.5595C17.9148 17.6464 17.8617 17.7254 17.7949 17.7918C17.7281 17.8582 17.6489 17.9108 17.5618 17.9466C17.4746 17.9823 17.3813 18.0005 17.2871 18.0001H9.10206C8.91251 17.9998 8.7308 17.9244 8.59677 17.7904C8.46274 17.6564 8.38733 17.4746 8.38706 17.2851V13.7721C8.38706 13.5069 8.28171 13.2525 8.09417 13.065C7.90663 12.8775 7.65228 12.7721 7.38706 12.7721C7.12185 12.7721 6.86749 12.8775 6.67995 13.065C6.49242 13.2525 6.38706 13.5069 6.38706 13.7721V17.2851C6.38759 18.005 6.67381 18.6953 7.18285 19.2043C7.6919 19.7134 8.38216 19.9996 9.10206 20.0001H17.2871C18.007 19.9996 18.6972 19.7134 19.2063 19.2043C19.7153 18.6953 20.0015 18.005 20.0021 17.2851V2.7151C19.9948 1.9973 19.7064 1.31095 19.1988 0.803364C18.6912 0.295774 18.0049 0.00738966 17.2871 9.91129e-05Z" fill="#E1FBDE"/>
<path d="M15.1701 10.7791C15.2101 10.7791 15.2101 10.7791 15.2501 10.7391C15.2718 10.7418 15.2938 10.7396 15.3146 10.7327C15.3354 10.7258 15.3543 10.7143 15.3701 10.6991C15.4004 10.695 15.4285 10.6809 15.4501 10.6591C15.4901 10.6591 15.4901 10.6191 15.5301 10.6191C15.6415 10.547 15.7363 10.4518 15.8081 10.3401C15.8081 10.3001 15.8481 10.3001 15.8481 10.2601C15.8522 10.2298 15.8663 10.2016 15.8881 10.1801C15.8881 10.1401 15.9281 10.1001 15.9281 10.0601C15.9281 10.0201 15.9281 10.0201 15.9681 9.98012C16.0082 9.8498 16.0082 9.71043 15.9681 9.58012C15.9681 9.54012 15.9681 9.54012 15.9281 9.50012C15.9308 9.4784 15.9286 9.45636 15.9216 9.4356C15.9147 9.41483 15.9033 9.39588 15.8881 9.38012C15.8839 9.34977 15.8699 9.32165 15.8481 9.30012C15.8481 9.26012 15.8081 9.26012 15.8081 9.22012C15.7681 9.18012 15.7281 9.10012 15.6881 9.06012L12.0151 5.38712C11.8294 5.20147 11.5776 5.09717 11.3151 5.09717C11.0525 5.09717 10.8007 5.20147 10.6151 5.38712C10.4294 5.57277 10.3251 5.82457 10.3251 6.08712C10.3251 6.34967 10.4294 6.60147 10.6151 6.78712L12.5751 8.74012H1.00007C0.732332 8.75263 0.479535 8.86715 0.293573 9.06018C0.107611 9.2532 0.00259241 9.5101 7.37821e-05 9.77812C-0.0015366 9.90989 0.0232293 10.0406 0.0729138 10.1627C0.122598 10.2848 0.196197 10.3956 0.289379 10.4888C0.38256 10.582 0.49344 10.6556 0.615493 10.7053C0.737546 10.755 0.868305 10.7797 1.00007 10.7781L15.1701 10.7791Z" fill="#E1FBDE"/>
<path d="M10.539 13.6129L12.295 11.8569C12.3851 11.7617 12.4937 11.686 12.614 11.6342C12.7344 11.5824 12.864 11.5557 12.995 11.5557C13.1261 11.5557 13.2557 11.5824 13.3761 11.6342C13.4964 11.686 13.605 11.7617 13.695 11.8569C13.7902 11.947 13.866 12.0555 13.9178 12.1758C13.9695 12.2962 13.9962 12.4258 13.9962 12.5569C13.9962 12.6879 13.9695 12.8175 13.9178 12.9379C13.866 13.0583 13.7902 13.1668 13.695 13.2569L11.937 15.0069C11.847 15.102 11.7384 15.1778 11.6181 15.2296C11.4977 15.2814 11.3681 15.3081 11.237 15.3081C11.106 15.3081 10.9764 15.2814 10.856 15.2296C10.7357 15.1778 10.6271 15.102 10.537 15.0069C10.443 14.9167 10.3681 14.8085 10.3171 14.6886C10.266 14.5687 10.2398 14.4397 10.24 14.3094C10.2402 14.1792 10.2668 14.0503 10.3182 13.9305C10.3696 13.8108 10.4447 13.7027 10.539 13.6129Z" fill="#E1FBDE"/>
</svg>
