<svg width="14" height="8" viewBox="0 0 14 8" fill="none" xmlns="http://www.w3.org/2000/svg">
<path d="M6.98796 2.40835L12.2715 7.69638C12.3638 7.79163 12.4742 7.86754 12.5961 7.9197C12.7181 7.97186 12.8493 7.99922 12.9819 8.00018C13.1146 8.00114 13.2461 7.97569 13.3688 7.9253C13.4915 7.87491 13.603 7.8006 13.6967 7.7067C13.7903 7.6128 13.8644 7.5012 13.9144 7.3784C13.9645 7.2556 13.9896 7.12406 13.9883 6.99146C13.9869 6.85887 13.9592 6.72786 13.9067 6.60609C13.8541 6.48433 13.7779 6.37424 13.6823 6.28224L7.69237 0.290137C7.51034 0.10942 7.26574 0.00561262 7.00924 0.000221001C6.75274 -0.00517062 6.50399 0.0882661 6.31453 0.261175L0.281618 6.27725C0.0993298 6.46534 -0.00175312 6.71747 0.000146009 6.97934C0.00204413 7.2412 0.106771 7.49185 0.291768 7.67728C0.476764 7.86271 0.727228 7.9681 0.989211 7.97074C1.25119 7.97338 1.50373 7.87306 1.69243 7.69139L6.98796 2.40835Z" fill="#10762C"/>
</svg>
