<svg width="350" height="113" viewBox="0 0 350 113" fill="none" xmlns="http://www.w3.org/2000/svg">
<path d="M5.51181 0.918635C4.29407 0.920094 3.12663 1.40448 2.26556 2.26556C1.40448 3.12663 0.920094 4.29407 0.918635 5.51181V107.48C0.920094 108.698 1.40448 109.866 2.26556 110.727C3.12663 111.588 4.29407 112.072 5.51181 112.073H344.488C345.706 112.072 346.873 111.588 347.734 110.727C348.596 109.866 349.08 108.698 349.081 107.48V5.51181C349.08 4.29407 348.596 3.12663 347.734 2.26556C346.873 1.40448 345.706 0.920094 344.488 0.918635H5.51181ZM5.51181 0H344.488C345.95 0 347.352 0.580707 348.386 1.61437C349.419 2.64804 350 4.04999 350 5.51181V107.48C350 108.942 349.419 110.344 348.386 111.378C347.352 112.411 345.95 112.992 344.488 112.992H5.51181C4.04999 112.992 2.64804 112.411 1.61437 111.378C0.580707 110.344 0 108.942 0 107.48L0 5.51181C0 4.04999 0.580707 2.64804 1.61437 1.61437C2.64804 0.580707 4.04999 0 5.51181 0Z" fill="#10762C"/>
</svg>
