<svg width="12" height="16" viewBox="0 0 12 16" fill="none" xmlns="http://www.w3.org/2000/svg">
<path d="M11.2646 2.28624L8.58701 0.19667C8.49363 0.121731 8.38614 0.066322 8.27093 0.0337344C8.15572 0.00114677 8.03514 -0.00795517 7.91634 0.00696916C7.79754 0.0218935 7.68295 0.0605397 7.57938 0.120612C7.47581 0.180685 7.38537 0.260959 7.31343 0.356667L1.14231 8.19656C1.0569 8.29926 1.00153 8.42357 0.982317 8.55575L0.0655297 12.4405C0.0202431 12.608 0.0272364 12.7854 0.0855726 12.9488C0.143909 13.1122 0.250801 13.2539 0.391925 13.3549C0.530539 13.4593 0.695171 13.5236 0.867849 13.5408C1.04053 13.558 1.21462 13.5275 1.37111 13.4525L4.93026 11.6573C5.05267 11.5886 5.16294 11.5002 5.25666 11.3957L11.4278 3.59182C11.572 3.39435 11.6353 3.1493 11.605 2.90668C11.5747 2.66406 11.4529 2.44215 11.2646 2.28624ZM4.08147 10.2861L2.0271 11.3309L2.5495 9.07815L6.17104 4.47341L7.70702 5.68139L4.08147 10.2861ZM8.68541 4.40861L7.14703 3.20143L8.16302 1.92705L9.6974 3.13503L8.68541 4.40861Z" fill="#E1FBDE"/>
<path d="M10.6119 15.9999H0.816037C0.708515 16.001 0.60186 15.9806 0.502323 15.9399C0.402787 15.8992 0.312371 15.8391 0.236375 15.763C0.160378 15.6869 0.10033 15.5964 0.0597495 15.4969C0.0191688 15.3973 -0.00112807 15.2906 4.83631e-05 15.1831C-0.00102091 15.0756 0.0193551 14.9691 0.0599837 14.8696C0.100612 14.7701 0.160677 14.6797 0.236663 14.6037C0.312648 14.5277 0.403028 14.4677 0.502511 14.427C0.601994 14.3864 0.708583 14.366 0.816037 14.3671H10.6119C10.7194 14.366 10.8259 14.3864 10.9254 14.427C11.0249 14.4677 11.1153 14.5277 11.1913 14.6037C11.2673 14.6797 11.3273 14.7701 11.368 14.8696C11.4086 14.9691 11.429 15.0756 11.4279 15.1831C11.4291 15.2906 11.4088 15.3973 11.3682 15.4969C11.3276 15.5964 11.2676 15.6869 11.1916 15.763C11.1156 15.8391 11.0252 15.8992 10.9256 15.9399C10.8261 15.9806 10.7194 16.001 10.6119 15.9999Z" fill="#E1FBDE"/>
</svg>
