<svg width="121" height="119" viewBox="0 0 121 119" fill="none" xmlns="http://www.w3.org/2000/svg">
<path d="M81.9406 40.2481C80.9968 42.5412 75.4412 42.3832 69.6208 39.9833C63.8004 37.5834 59.8418 33.7786 60.7856 31.4854C61.0076 30.9559 61.6396 28.9702 62.2716 28.6969C64.4409 27.7788 68.5703 29.8414 73.0413 31.6861C77.2048 33.3943 81.9662 34.5088 82.7049 36.7678C83.149 38.1428 82.2096 39.5947 81.9406 40.2481Z" fill="#10762C"/>
<path opacity="0.2" d="M82.7049 36.7673C83.0593 38.5651 82.2779 39.4277 81.9405 40.2476C81.6032 41.0675 80.6167 41.6056 79.2374 41.7935C79.065 41.8228 78.8911 41.8427 78.7165 41.8533C77.6588 41.9154 76.5975 41.8596 75.5522 41.6867C75.4027 41.6867 75.2533 41.6397 75.0995 41.6141C73.8725 41.3939 72.6635 41.0827 71.4826 40.6832L71.0556 40.538C70.5816 40.3715 70.0948 40.1878 69.6079 39.9871C69.1211 39.7864 68.6599 39.5601 68.203 39.3594L67.8102 39.1715C66.7337 38.6392 65.6962 38.0313 64.7057 37.3524L64.3555 37.1047C63.4908 36.4935 62.6985 35.7857 61.994 34.9952C61.8873 34.8756 61.7891 34.7603 61.6951 34.6407C60.777 33.4792 60.414 32.369 60.777 31.485C61.0161 30.9171 61.5286 28.9741 62.2631 28.6922C63.1664 28.4377 64.1226 28.4377 65.0259 28.6922L65.453 28.7947C67.5881 29.3413 70.2784 30.5583 73.0242 31.69C76.2611 33.0266 80.0915 34.4144 81.9704 36.0158C82.0822 36.1099 82.1891 36.2096 82.2907 36.3147C82.4406 36.4543 82.5791 36.6057 82.7049 36.7673Z" fill="black"/>
<g opacity="0.2">
<path d="M65.6665 28.4281L65.47 28.7868L62.0026 34.9915C61.8958 34.8719 61.7976 34.7566 61.7037 34.637L65.0345 28.6843L65.295 28.2231L65.6665 28.4281Z" fill="black"/>
</g>
<g opacity="0.2">
<path d="M68.2884 30.9599L64.7142 37.3653L64.364 37.1176L67.9169 30.7634L68.2884 30.9599Z" fill="black"/>
</g>
<g opacity="0.2">
<path d="M74.8604 34.6324L71.4826 40.6834L71.0555 40.5382L74.4718 34.4061L74.8604 34.6324Z" fill="black"/>
</g>
<g opacity="0.2">
<path d="M71.8029 32.9245L68.2116 39.3598L67.8187 39.1719L71.4314 32.6981L71.8029 32.9245Z" fill="black"/>
</g>
<g opacity="0.2">
<path d="M78.8446 35.8024L75.5522 41.6869C75.4027 41.6869 75.2533 41.6399 75.0995 41.6143L78.4688 35.5889L78.8446 35.8024Z" fill="black"/>
</g>
<path d="M82.6793 38.2492C81.7356 40.5423 76.2482 40.4527 70.4236 38.0485C64.5989 35.6443 60.6446 31.8438 61.5926 29.5506C62.5406 27.2575 68.0237 27.3514 73.8483 29.7513C79.673 32.1512 83.623 35.9432 82.6793 38.2492Z" fill="#10762C"/>
<path opacity="0.2" d="M80.6978 37.416C80.0317 39.0344 75.7529 38.8081 71.1452 36.9078C66.5376 35.0076 63.3434 32.1507 64.0096 30.5323C64.6757 28.9139 68.9546 29.1402 73.5665 31.0405C78.1784 32.9407 81.3683 35.7976 80.6978 37.416Z" fill="white"/>
<path d="M111.371 19.5194C112.892 21.4794 109.996 26.2237 105.013 30.0798C100.029 33.9359 94.7642 35.4732 93.2482 33.496C92.8981 33.0434 91.4803 31.5274 91.5657 30.8186C91.8518 28.4827 95.6908 25.9291 99.517 22.9655C103.078 20.2069 106.405 16.6284 108.732 17.1109C110.146 17.4227 110.94 18.9642 111.371 19.5194Z" fill="#10762C"/>
<path opacity="0.2" d="M108.732 17.1282C110.47 17.7175 110.829 18.8363 111.371 19.5196C111.914 20.2028 111.892 21.343 111.371 22.6369C111.312 22.7949 111.239 22.9529 111.162 23.1151C110.694 24.0645 110.121 24.9583 109.454 25.7798C109.364 25.8994 109.266 26.0147 109.168 26.1342C108.365 27.092 107.491 27.9884 106.554 28.816L106.226 29.1021C105.846 29.4309 105.444 29.7597 105.03 30.08C104.616 30.4002 104.201 30.7034 103.783 30.9895C103.668 31.075 103.544 31.1561 103.429 31.2372C102.431 31.9065 101.386 32.5031 100.303 33.0222C100.17 33.0905 100.042 33.146 99.9184 33.2058C98.9557 33.6512 97.9458 33.9864 96.9078 34.2051C96.7541 34.2392 96.6047 34.2649 96.4552 34.2862C94.9905 34.504 93.846 34.2862 93.261 33.5133C92.8852 33.0265 91.4547 31.613 91.5785 30.8401C91.8019 29.9264 92.2768 29.0935 92.9493 28.4359C93.0432 28.3292 93.1457 28.2224 93.2525 28.1114C94.7941 26.5143 97.1811 24.8019 99.5298 22.987C102.301 20.8519 105.41 18.2086 107.729 17.3801C107.869 17.3287 108.011 17.2846 108.156 17.2478C108.345 17.1939 108.537 17.1539 108.732 17.1282Z" fill="black"/>
<g opacity="0.2">
<path d="M93.0262 27.7612L93.2397 28.1114L96.8951 34.2051C96.7414 34.2393 96.5919 34.2649 96.4424 34.2862L92.9365 28.4274L92.6632 28.0004L93.0262 27.7612Z" fill="black"/>
</g>
<g opacity="0.2">
<path d="M96.5236 26.7453L100.29 33.0226C100.158 33.0909 100.029 33.1465 99.9057 33.2062L96.1563 26.9631L96.5236 26.7453Z" fill="black"/>
</g>
<g opacity="0.2">
<path d="M102.976 22.8764L106.542 28.8206L106.213 29.1067L102.609 23.0942L102.976 22.8764Z" fill="black"/>
</g>
<g opacity="0.2">
<path d="M99.9782 24.6737L103.77 30.9894C103.655 31.0748 103.531 31.156 103.416 31.2371L99.6067 24.8914L99.9782 24.6737Z" fill="black"/>
</g>
<g opacity="0.2">
<path d="M105.974 19.9939L109.441 25.7802C109.352 25.8998 109.253 26.015 109.155 26.1346L105.607 20.216L105.974 19.9939Z" fill="black"/>
</g>
<path d="M103.72 28.4047C108.7 24.5472 111.507 19.8316 109.989 17.872C108.471 15.9124 103.204 17.4509 98.2235 21.3083C93.2434 25.1657 90.4366 29.8813 91.9545 31.841C93.4723 33.8006 98.74 32.2621 103.72 28.4047Z" fill="#10762C"/>
<path opacity="0.2" d="M103.102 27.2157C107.044 24.1627 109.369 20.5647 108.296 19.1793C107.223 17.794 103.158 19.1459 99.2166 22.1989C95.275 25.2519 92.9496 28.8499 94.0226 30.2353C95.0956 31.6206 99.1608 30.2687 103.102 27.2157Z" fill="white"/>
<path d="M90.7587 10.3385C90.2719 13.1484 83.9689 14.3355 76.829 13.0544C69.6891 11.7733 64.3042 8.47241 64.8039 5.66256C64.9192 5.00921 65.1199 2.63066 65.7903 2.15666C68.0066 0.593733 73.1565 1.90044 78.6396 2.87407C83.7639 3.78364 89.3708 3.85623 90.7587 6.2177C91.5999 7.6696 90.8996 9.53571 90.7587 10.3385Z" fill="#10762C"/>
<path opacity="0.2" d="M90.7587 6.22221C91.6127 8.16092 90.9337 9.31817 90.7587 10.326C90.5836 11.3337 89.6057 12.175 88.1025 12.7301C87.9189 12.8027 87.7268 12.8625 87.5303 12.9223C86.3546 13.2528 85.1458 13.4518 83.9262 13.5159C83.7511 13.5159 83.5803 13.5159 83.401 13.5458C81.9642 13.5986 80.5255 13.5458 79.0965 13.3878L78.5969 13.3237C78.0204 13.2511 77.4268 13.1657 76.8333 13.0589C76.2397 12.9522 75.6632 12.8326 75.0953 12.7002C74.933 12.6661 74.7707 12.6234 74.6084 12.5849C73.2668 12.2536 71.951 11.8255 70.6712 11.3039C70.5132 11.2441 70.3638 11.1757 70.2143 11.116C69.0911 10.6379 68.0254 10.0348 67.0372 9.31817C66.8878 9.21141 66.7511 9.10466 66.6102 8.99363C65.2864 7.91325 64.6074 6.75173 64.7996 5.67135C64.9277 4.97102 65.0302 2.68215 65.7818 2.16544C66.5333 1.64874 67.6094 1.48647 68.8905 1.4822H69.403C71.9651 1.5676 75.2661 2.28074 78.6353 2.87858C82.6067 3.58745 87.257 4.20664 89.7594 5.54751C89.9062 5.6253 90.0487 5.71083 90.1865 5.80372C90.3878 5.9281 90.5791 6.06803 90.7587 6.22221Z" fill="black"/>
<g opacity="0.2">
<path d="M69.5439 1.04692L69.4073 1.4953L67.033 9.32701C66.8835 9.22025 66.7469 9.1135 66.6059 9.00247L68.8863 1.49103L69.0656 0.906005L69.5439 1.04692Z" fill="black"/>
</g>
<g opacity="0.2">
<path d="M73.1139 3.23262L70.667 11.2992C70.509 11.2394 70.3595 11.1711 70.2101 11.1113L72.6441 3.08316L73.1139 3.23262Z" fill="black"/>
</g>
<g opacity="0.2">
<path d="M81.411 5.76085L79.0923 13.4004L78.5926 13.3363L80.937 5.61566L81.411 5.76085Z" fill="black"/>
</g>
<g opacity="0.2">
<path d="M77.555 4.59148L75.091 12.705C74.9287 12.6709 74.7665 12.6282 74.6042 12.5897L77.081 4.43775L77.555 4.59148Z" fill="black"/>
</g>
<g opacity="0.2">
<path d="M86.1809 6.09424L83.9219 13.5288C83.7468 13.5288 83.576 13.5288 83.3967 13.5587L85.7069 5.95332L86.1809 6.09424Z" fill="black"/>
</g>
<path d="M91.0913 7.88586C91.5912 5.07631 86.2065 1.76842 79.0642 0.497469C71.922 -0.773479 65.7267 0.473803 65.2268 3.28335C64.7268 6.09289 70.1115 9.40079 77.2538 10.6717C84.396 11.9427 90.5913 10.6954 91.0913 7.88586Z" fill="#10762C"/>
<path opacity="0.2" d="M88.6605 7.4563C89.0138 5.47104 84.7187 3.0464 79.0671 2.04072C73.4155 1.03503 68.5476 1.82913 68.1943 3.81439C67.841 5.79965 72.1362 8.22429 77.7878 9.22997C83.4394 10.2357 88.3073 9.44156 88.6605 7.4563Z" fill="white"/>
<path d="M111.271 47.4861L67.3254 50.0483C65.773 50.1397 64.2498 50.51 62.8287 51.1415L15.0955 72.4929C14.258 72.8611 13.5721 73.5054 13.1524 74.3184C12.7327 75.1313 12.6046 76.0636 12.7895 76.9596L20.6767 114.261C20.8101 114.861 21.079 115.423 21.463 115.904C21.8469 116.385 22.3357 116.772 22.892 117.035C23.4483 117.297 24.0573 117.43 24.6726 117.421C25.2878 117.412 25.8929 117.263 26.4416 116.985L73.5557 93.4643L117.061 92.0081C117.597 91.9938 118.123 91.8656 118.605 91.6321C119.087 91.3986 119.513 91.0651 119.856 90.6538C120.2 90.2425 120.451 89.7629 120.594 89.2468C120.737 88.7308 120.769 88.1902 120.687 87.6609L114.866 51.9443C114.563 50.0995 113.163 47.4306 111.271 47.4861Z" fill="#10762C"/>
<path opacity="0.1" d="M111.271 47.4861L67.3254 50.0483C65.773 50.1397 64.2498 50.51 62.8287 51.1415L15.0955 72.4929C14.258 72.8611 13.5721 73.5054 13.1524 74.3184C12.7327 75.1313 12.6046 76.0636 12.7895 76.9596L20.6767 114.261C20.8101 114.861 21.079 115.423 21.463 115.904C21.8469 116.385 22.3357 116.772 22.892 117.035C23.4483 117.297 24.0573 117.43 24.6726 117.421C25.2878 117.412 25.8929 117.263 26.4416 116.985L73.5557 93.4643L117.061 92.0081C117.597 91.9938 118.123 91.8656 118.605 91.6321C119.087 91.3986 119.513 91.0651 119.856 90.6538C120.2 90.2425 120.451 89.7629 120.594 89.2468C120.737 88.7308 120.769 88.1902 120.687 87.6609L114.866 51.9443C114.563 50.0995 113.163 47.4306 111.271 47.4861Z" fill="black"/>
<path d="M23.0634 23.1985L0.00145704 44.4571L41.387 89.3532L64.4489 68.0946L23.0634 23.1985Z" fill="#10762C"/>
<path opacity="0.5" d="M64.4429 68.0991L41.3791 89.3566L0 44.463L15.1339 30.512L23.0638 23.2013L24.3833 24.6361L64.4429 68.0991Z" fill="#FAFAFA"/>
<path d="M23.2115 25.9436L2.86234 44.7015L41.5735 86.6965L61.9226 67.9385L23.2115 25.9436Z" stroke="#10762C" stroke-width="0.944789" stroke-miterlimit="10"/>
<path d="M36.9713 61.2913C39.3054 59.1398 39.0102 55.0227 36.3119 52.0956C33.6137 49.1685 29.5342 48.5398 27.2002 50.6913C24.8661 52.8429 25.1613 56.9599 27.8596 59.887C30.5578 62.8141 34.6372 63.4429 36.9713 61.2913Z" fill="#10762C"/>
<path opacity="0.1" d="M41.1356 71.1353L32.941 73.9665L15.1339 30.512L23.0638 23.2013L24.3833 24.6361L41.1356 71.1353Z" fill="black"/>
<path d="M42.7323 5.60919L13.2455 16.3007L34.0594 73.7046L63.5462 63.0131L42.7323 5.60919Z" fill="#10762C"/>
<path opacity="0.5" d="M42.7323 5.60919L13.2455 16.3007L34.0594 73.7046L63.5462 63.0131L42.7323 5.60919Z" fill="#FAFAFA"/>
<path d="M41.8055 8.19788L15.7873 17.6318L35.2562 71.3262L61.2744 61.8923L41.8055 8.19788Z" stroke="#10762C" stroke-width="0.944789" stroke-miterlimit="10"/>
<path d="M40.8372 46.1138C43.8215 45.0317 45.1407 41.1205 43.7837 37.378C42.4267 33.6354 38.9073 31.4786 35.923 32.5607C32.9387 33.6428 31.6195 37.5539 32.9765 41.2965C34.3335 45.0391 37.8529 47.1958 40.8372 46.1138Z" fill="#10762C"/>
<path d="M111.557 49.0025L68.2135 51.4451C66.677 51.5293 65.1696 51.8986 63.7682 52.5341L16.7352 73.7659C15.9068 74.1403 15.2309 74.7863 14.8194 75.5969C14.4079 76.4075 14.2853 77.3343 14.472 78.2241L22.3592 115.542C22.4862 116.139 22.7484 116.699 23.1257 117.179C23.5029 117.659 23.9851 118.046 24.5352 118.31C25.0853 118.574 25.6887 118.709 26.299 118.704C26.9093 118.698 27.5103 118.553 28.0558 118.279L74.4738 94.891L117.382 93.5331C117.913 93.5163 118.434 93.3864 118.911 93.152C119.388 92.9176 119.81 92.5842 120.148 92.174C120.486 91.7637 120.732 91.2862 120.871 90.7731C121.009 90.26 121.037 89.7233 120.952 89.1987L115.114 53.4863C114.811 51.6245 113.427 48.9513 111.557 49.0025Z" fill="#10762C"/>
<path opacity="0.2" d="M69.9772 57.9782L107.167 55.6894" stroke="black" stroke-width="1.88958" stroke-linecap="round" stroke-linejoin="round"/>
<path opacity="0.2" d="M65.5233 58.9389L72.3173 90.1461" stroke="black" stroke-width="1.88958" stroke-linecap="round" stroke-linejoin="round"/>
<path opacity="0.2" d="M20.2241 87.1139L25.0153 111.117C25.0153 111.117 28.6878 101.594 20.2241 87.1139Z" fill="#FAFAFA"/>
<path opacity="0.2" d="M20.8518 87.3962C21.0183 87.8232 63.4095 69.6318 63.4095 69.6318C63.5243 73.7561 62.4931 77.8315 60.4305 81.4049C58.3679 84.9782 55.3548 87.9096 51.726 89.873C38.9663 97.0257 20.8518 87.3962 20.8518 87.3962Z" fill="#FAFAFA"/>
<path d="M49.01 88.1046C50.0242 88.1046 50.8463 87.2825 50.8463 86.2684C50.8463 85.2543 50.0242 84.4322 49.01 84.4322C47.9959 84.4322 47.1738 85.2543 47.1738 86.2684C47.1738 87.2825 47.9959 88.1046 49.01 88.1046Z" fill="#10762C"/>
<path opacity="0.2" d="M63.4308 69.6318C63.4308 69.6318 68.6876 77.5446 67.415 91.0217L63.4308 69.6318Z" fill="black"/>
<g opacity="0.2">
<path d="M18.1957 77.6851L19.1736 77.2538" stroke="#FAFAFA" stroke-width="0.944789" stroke-linecap="round" stroke-linejoin="round"/>
<path d="M21.202 76.357L60.7875 58.8574" stroke="#FAFAFA" stroke-width="0.944789" stroke-linecap="round" stroke-linejoin="round" stroke-dasharray="4.91 4.91"/>
<path d="M61.8039 58.4097L62.7775 57.9784" stroke="#FAFAFA" stroke-width="0.944789" stroke-linecap="round" stroke-linejoin="round"/>
</g>
<path opacity="0.2" d="M71.2241 64.994L108.414 62.7008" stroke="black" stroke-width="1.88958" stroke-linecap="round" stroke-linejoin="round"/>
<path opacity="0.2" d="M72.8981 73.7443L110.088 71.4512" stroke="black" stroke-width="1.88958" stroke-linecap="round" stroke-linejoin="round"/>
</svg>
