<svg width="29" height="29" viewBox="0 0 29 29" fill="none" xmlns="http://www.w3.org/2000/svg">
<path d="M14.5001 28.9999C22.5082 28.9999 29 22.508 29 14.4999C29 6.49185 22.5082 0 14.5001 0C6.49197 0 0.00012629 6.49185 0.00012629 14.4999C0.00012629 22.508 6.49197 28.9999 14.5001 28.9999Z" fill="#10762C"/>
<path d="M14.5 28.5125C22.239 28.5125 28.5126 22.2388 28.5126 14.4999C28.5126 6.7609 22.239 0.487225 14.5 0.487225C6.76103 0.487225 0.487351 6.7609 0.487351 14.4999C0.487351 22.2388 6.76103 28.5125 14.5 28.5125Z" stroke="white" stroke-width="0.942029"/>
<path d="M15.0787 21.4361C15.3922 20.9981 15.5754 20.4804 15.6072 19.9427L15.6155 17.9125L20.0012 13.5269L19.9088 12.7853L15.9311 14.7411L15.6252 16.3827L15.6355 12.6096L16.8222 10.8854L16.7657 9.64219L14.6886 11.1252L12.6115 9.64219L12.5557 10.8847L13.7424 12.6089L13.7521 16.3827L13.4461 14.7411L9.46908 12.7847L9.37673 13.5262L13.7624 17.9119L13.7721 19.9421C13.7721 20.3555 14.0966 21.6201 14.69 21.6208C14.7645 21.621 14.838 21.6046 14.9053 21.5726C14.9726 21.5406 15.0318 21.494 15.0787 21.4361Z" fill="white"/>
</svg>
