<svg width="19" height="20" viewBox="0 0 19 20" fill="none" xmlns="http://www.w3.org/2000/svg">
<path d="M9.23051 13.1659C8.3025 13.1664 7.41281 13.4294 6.75661 13.897C6.10041 14.3646 5.73149 14.9987 5.73068 15.6601V20H12.7303V15.6601C12.7295 14.9987 12.3606 14.3646 11.7044 13.897C11.0482 13.4294 10.1584 13.1664 9.23051 13.1659Z" fill="#292D32"/>
<path opacity="0.4" d="M17.2908 5.37653L10.8545 0.548373C10.3761 0.192311 9.79555 0 9.19914 0C8.60273 0 8.02221 0.192311 7.54377 0.548373L1.10752 5.37653C0.764585 5.63351 0.486009 5.96667 0.29382 6.34969C0.101624 6.73271 0.00104052 7.15515 0 7.58369V17.24C0.0014583 17.9713 0.292599 18.6722 0.809674 19.1893C1.32678 19.7064 2.02767 19.9975 2.75895 19.999H5.75045V16.6173C5.75076 15.7027 6.1142 14.8257 6.76089 14.179C7.40759 13.5323 8.28458 13.1689 9.19914 13.1686C10.1135 13.1697 10.9901 13.5333 11.6366 14.1799C12.2831 14.8264 12.6468 15.703 12.6478 16.6173V19.999H15.6354C16.3669 19.9982 17.0681 19.7072 17.5853 19.19C18.1026 18.6728 18.3935 17.9715 18.3943 17.24V7.58369C18.3928 7.15566 18.2923 6.73378 18.1009 6.35091C17.9095 5.96809 17.6322 5.63461 17.2908 5.37653Z" fill="#292D32"/>
</svg>
