<svg width="22" height="15" viewBox="0 0 22 15" fill="none" xmlns="http://www.w3.org/2000/svg">
<path d="M11.2226 0H13.2429C13.5744 0.00110604 13.9052 0.0283831 14.2323 0.0819724H14.4572L14.5868 0.20752L18.1564 3.66676C18.2648 3.67361 18.3669 3.7203 18.4431 3.79791C18.5193 3.87553 18.5641 3.97867 18.5691 4.0874H21.2023C21.4139 4.0874 21.6167 4.17136 21.7663 4.32124C21.9159 4.47112 21.9999 4.67446 21.9999 4.88642C21.9999 5.09838 21.9159 5.30172 21.7663 5.4516C21.6167 5.60148 21.4139 5.68587 21.2023 5.68587H20.354L18.5947 14.3322C18.555 14.5156 18.4535 14.6797 18.3071 14.7969C18.1608 14.914 17.9786 14.9771 17.7914 14.9755H4.56389C4.37875 14.9766 4.19874 14.9147 4.05328 14.7999C3.90782 14.6851 3.80557 14.5245 3.76323 14.3439L1.85581 5.685H0.797598C0.586057 5.685 0.383226 5.60061 0.233644 5.45074C0.0840622 5.30086 0 5.09752 0 4.88556C0 4.6736 0.0840622 4.47026 0.233644 4.32038C0.383226 4.1705 0.586057 4.08654 0.797598 4.08654H3.79584C3.80482 3.97863 3.85245 3.8773 3.92992 3.8018C4.00738 3.72629 4.10948 3.68141 4.21738 3.67538L7.90165 0.0405548L11.2226 0ZM13.2905 1.30768C13.2343 1.24797 13.1926 1.17573 13.1688 1.09714L12.5904 1.16099H8.55684L6.13003 4.08482H16.0868L13.4413 1.45954C13.421 1.44099 13.4052 1.42408 13.3902 1.40906L13.324 1.34392L13.3187 1.33831L13.2878 1.30854L13.2905 1.30768ZM18.6846 5.68285H3.53039L5.2244 13.3701H17.1185L18.6846 5.68285Z" fill="#10762C"/>
<path d="M4.42199 14.6909C4.33854 14.6911 4.25752 14.6626 4.19251 14.6102C4.1275 14.5578 4.08243 14.4846 4.06485 14.4028L2.14952 5.29579H0.780916C0.733552 5.29579 0.686653 5.28644 0.642894 5.26828C0.599136 5.25012 0.559376 5.2235 0.525885 5.18994C0.492394 5.15638 0.465827 5.11655 0.447702 5.0727C0.429576 5.02886 0.420247 4.98186 0.420247 4.93441C0.420247 4.88695 0.429576 4.83996 0.447702 4.79611C0.465827 4.75227 0.492394 4.71243 0.525885 4.67887C0.559376 4.64531 0.599136 4.61869 0.642894 4.60053C0.686653 4.58237 0.733552 4.57302 0.780916 4.57302H4.07455C4.08514 4.06408 4.10101 4.13123 4.1257 4.20457C4.13628 4.23373 4.14863 4.26377 4.16274 4.24963L7.81263 0.48118C7.88754 0.419886 7.98336 0.3903 8.0797 0.398716C8.17605 0.407132 8.26531 0.452886 8.32851 0.526242C8.39755 0.611079 8.43525 0.717191 8.43525 0.826658C8.43525 0.936126 8.39755 1.04224 8.32851 1.12707L5.02869 4.57302H16.586L13.2862 1.1474C13.2161 1.05003 13.1783 0.933019 13.1783 0.812963C13.1783 0.692907 13.2161 0.575898 13.2862 0.478529C13.3611 0.417236 13.4569 0.387649 13.5532 0.396065C13.6496 0.404481 13.7388 0.450235 13.802 0.523592L17.4502 4.22754C17.4634 4.2408 17.4757 4.21517 17.4863 4.18867C17.5119 4.12417 17.5278 4.05967 17.5392 4.57302H20.4845C20.5319 4.57302 20.5788 4.58237 20.6226 4.60053C20.6663 4.61869 20.7061 4.64531 20.7396 4.67887C20.7731 4.71243 20.7996 4.75227 20.8178 4.79611C20.8359 4.83996 20.8452 4.88695 20.8452 4.93441C20.8452 4.98186 20.8359 5.02886 20.8178 5.0727C20.7996 5.11655 20.7731 5.15638 20.7396 5.18994C20.7061 5.2235 20.6663 5.25012 20.6226 5.26828C20.5788 5.28644 20.5319 5.29579 20.4845 5.29579H19.3188L17.5507 14.3966C17.5343 14.4795 17.4896 14.554 17.4242 14.6074C17.3589 14.6608 17.277 14.6897 17.1927 14.6891L4.42199 14.6909ZM4.71829 13.9681H16.8911L18.5754 5.29667H2.89378L4.71829 13.9681Z" fill="#10762C"/>
</svg>
