<svg width="60" height="28" viewBox="0 0 60 28" fill="none" xmlns="http://www.w3.org/2000/svg">
<path d="M5.74789 20.0097H6.11703L5.77133 21.4486C5.7186 21.66 5.73032 21.8245 5.80063 21.9302C5.87094 22.0359 5.99985 22.0888 6.19321 22.0888C6.38071 22.0888 6.53891 22.0359 6.66196 21.9302C6.785 21.8245 6.86703 21.66 6.91977 21.4486L7.26547 20.0097H7.64047L7.28891 21.4838C7.21274 21.801 7.07797 22.0418 6.87875 22.2004C6.68539 22.3589 6.42758 22.4411 6.11117 22.4411C5.79477 22.4411 5.57797 22.3648 5.46078 22.2062C5.3436 22.0477 5.32016 21.8069 5.39633 21.4897L5.74789 20.0097ZM7.58774 22.3765L8.17367 19.9157L9.28695 21.3605C9.31625 21.4016 9.34555 21.4427 9.37484 21.4897C9.40414 21.5367 9.43344 21.5896 9.4686 21.6483L9.86117 20.0097H10.2069L9.62094 22.4646L8.48422 20.9905C8.45492 20.9494 8.42563 20.9083 8.39633 20.8672C8.36703 20.8202 8.3436 20.7791 8.32602 20.7262L7.93344 22.3707H7.58774V22.3765ZM10.1776 22.3765L10.7401 20.0097H11.1151L10.5526 22.3765H10.1776ZM11.0858 22.3765L11.6483 20.0097H12.9315L12.8553 20.3386H11.9471L11.8065 20.9259H12.7147L12.6327 21.2607H11.7245L11.4608 22.3707H11.0858V22.3765ZM12.785 22.3765L13.3475 20.0097H13.7225L13.16 22.3765H12.785ZM13.6932 22.3765L14.2557 20.0097H15.5389L15.4627 20.3386H14.5545L14.4139 20.9318H15.3221L15.2401 21.2665H14.3319L14.1502 22.03H15.0584L14.9764 22.3765H13.6932ZM15.41 22.3765L15.9725 20.0097H16.4764C16.8045 20.0097 17.033 20.0273 17.1561 20.0626C17.2791 20.0978 17.3846 20.1507 17.4666 20.2329C17.5721 20.3386 17.6424 20.4737 17.6717 20.6322C17.701 20.7967 17.6893 20.9846 17.6424 21.1902C17.5897 21.4016 17.5135 21.5837 17.408 21.7481C17.3026 21.9126 17.1678 22.0418 17.0096 22.1475C16.8924 22.2297 16.7635 22.2826 16.6229 22.3178C16.4881 22.3531 16.283 22.3707 16.0135 22.3707H15.9139H15.41V22.3765ZM15.867 22.0242H16.1834C16.3534 22.0242 16.4881 22.0124 16.5819 21.9889C16.6756 21.9654 16.7577 21.9243 16.8338 21.8715C16.9393 21.7951 17.0272 21.7011 17.0975 21.5837C17.1678 21.4721 17.2205 21.337 17.2557 21.1843C17.2909 21.0316 17.3026 20.9024 17.285 20.7908C17.2674 20.6792 17.2264 20.5794 17.1561 20.503C17.1034 20.4443 17.0389 20.4091 16.951 20.3856C16.8631 20.3621 16.7284 20.3503 16.535 20.3503H16.4002H16.2655L15.867 22.0242ZM19.3651 21.3135L19.1131 22.3765H18.7616L19.3241 20.0097H19.8924C20.0623 20.0097 20.1795 20.0215 20.2557 20.0391C20.3319 20.0567 20.3905 20.0861 20.4373 20.133C20.4959 20.1859 20.5369 20.2622 20.5545 20.3562C20.5721 20.4502 20.5662 20.55 20.5428 20.6616C20.5135 20.7732 20.4725 20.8789 20.408 20.9729C20.3436 21.0669 20.2674 21.1432 20.1854 21.1961C20.1151 21.2372 20.0389 21.2724 19.9569 21.29C19.8748 21.3076 19.7459 21.3194 19.5819 21.3194H19.5057H19.3651V21.3135ZM19.4647 20.9964H19.5584C19.7635 20.9964 19.91 20.9729 19.992 20.9259C20.0741 20.8789 20.1268 20.7967 20.1561 20.6792C20.1854 20.5559 20.1678 20.4619 20.1092 20.4149C20.0448 20.3621 19.9159 20.3386 19.7225 20.3386H19.6287L19.4647 20.9964ZM21.8143 22.3765L21.6971 21.7657H20.783L20.3729 22.3765H19.9803L21.6795 19.9157L22.2069 22.3765H21.8143ZM21.0057 21.4427H21.6444L21.5389 20.9024C21.533 20.8672 21.5272 20.8261 21.5272 20.7849C21.5213 20.738 21.5213 20.691 21.5213 20.6381C21.4979 20.691 21.4744 20.738 21.4452 20.7849C21.4217 20.8319 21.3983 20.873 21.3748 20.9083L21.0057 21.4427ZM22.7459 22.3765L23.0037 21.2959L22.535 20.0156H22.9276L23.2205 20.8202C23.2264 20.8437 23.2323 20.8672 23.244 20.9024C23.2557 20.9376 23.2616 20.9729 23.2733 21.0081C23.2967 20.9729 23.3201 20.9376 23.3436 20.9024C23.367 20.8672 23.3905 20.8378 23.4139 20.8084L24.0994 20.0156H24.4744L23.3787 21.29L23.1209 22.3707H22.7459V22.3765ZM26.3143 21.2078C26.3143 21.1902 26.3201 21.1373 26.3319 21.0551C26.3377 20.9846 26.3436 20.9318 26.3494 20.8848C26.326 20.9376 26.3026 20.9905 26.2733 21.0492C26.244 21.1021 26.2088 21.1608 26.1678 21.2137L25.2655 22.4764L24.9725 21.1902C24.9608 21.1373 24.9491 21.0845 24.9432 21.0375C24.9373 20.9905 24.9315 20.9376 24.9315 20.8907C24.9198 20.9376 24.9022 20.9905 24.8846 21.0492C24.867 21.1021 24.8436 21.1608 24.8143 21.2196L24.2869 22.3824H23.9412L25.0721 19.9157L25.3944 21.4075C25.4002 21.431 25.4061 21.4721 25.4119 21.525C25.4178 21.5778 25.4295 21.6483 25.4412 21.7305C25.4823 21.66 25.535 21.5778 25.6053 21.4721C25.6229 21.4427 25.6405 21.4251 25.6463 21.4075L26.6659 19.9157L26.6307 22.3824H26.285L26.3143 21.2078ZM26.9354 22.3765L27.4979 20.0097H28.7811L28.7049 20.3386H27.7967L27.6561 20.9318H28.5643L28.4823 21.2665H27.5741L27.3924 22.03H28.3006L28.2186 22.3765H26.9354ZM28.6463 22.3765L29.2323 19.9157L30.3455 21.3605C30.3748 21.4016 30.4041 21.4427 30.4334 21.4897C30.4627 21.5367 30.492 21.5896 30.5272 21.6483L30.9198 20.0097H31.2655L30.6795 22.4646L29.5428 20.9905C29.5135 20.9494 29.4842 20.9083 29.4549 20.8672C29.4256 20.8202 29.4022 20.7791 29.3846 20.7262L28.992 22.3707H28.6463V22.3765ZM32.4608 20.3327L31.9744 22.3707H31.5994L32.0858 20.3327H31.4764L31.5526 20.0038H33.1463L33.0701 20.3327H32.4608ZM32.8534 21.9008L33.1873 21.7599C33.1932 21.8656 33.2225 21.9478 33.2869 22.0007C33.3514 22.0535 33.4393 22.0829 33.5565 22.0829C33.6678 22.0829 33.7616 22.0535 33.8436 21.9889C33.9256 21.9243 33.9783 21.8421 34.0018 21.7364C34.0369 21.5954 33.9549 21.4721 33.7557 21.3664C33.7264 21.3488 33.7088 21.337 33.6912 21.3311C33.4686 21.2019 33.328 21.0903 33.2694 20.9846C33.2108 20.8789 33.1991 20.7556 33.2342 20.6088C33.2811 20.4149 33.3807 20.2622 33.5389 20.1389C33.6971 20.0215 33.8729 19.9568 34.0838 19.9568C34.2537 19.9568 34.3885 19.9921 34.4881 20.0567C34.5877 20.1213 34.6405 20.2211 34.658 20.3445L34.3299 20.4972C34.3006 20.4208 34.2655 20.368 34.2186 20.3327C34.1717 20.2975 34.1131 20.2799 34.0428 20.2799C33.9432 20.2799 33.8553 20.3092 33.785 20.3621C33.7147 20.4149 33.6678 20.4854 33.6444 20.5794C33.6092 20.7203 33.7088 20.8554 33.9373 20.9788C33.9549 20.9905 33.9666 20.9964 33.9784 21.0023C34.1776 21.108 34.3123 21.2137 34.3709 21.3194C34.4295 21.4251 34.4412 21.5484 34.4061 21.707C34.3533 21.9302 34.242 22.1064 34.0721 22.2415C33.9022 22.3707 33.703 22.4411 33.4686 22.4411C33.2752 22.4411 33.1229 22.3942 33.0174 22.3002C32.9002 22.2062 32.8475 22.0711 32.8534 21.9008ZM35.6131 22.3765L36.1756 20.0097H36.5506L35.9881 22.3765H35.6131ZM36.5272 22.3765L37.1131 19.9157L38.2264 21.3605C38.2557 21.4016 38.285 21.4427 38.3143 21.4897C38.3436 21.5367 38.3729 21.5896 38.408 21.6483L38.8006 20.0097H39.1463L38.5604 22.4646L37.4237 20.9905C37.3944 20.9494 37.3651 20.9083 37.3358 20.8672C37.3065 20.8202 37.283 20.7791 37.2655 20.7262L36.8729 22.3707H36.5272V22.3765ZM40.3416 20.3327L39.8553 22.3707H39.4803L39.9666 20.3327H39.3573L39.4334 20.0038H41.0272L40.951 20.3327H40.3416ZM40.7459 22.3765L41.3084 20.0097H42.5975L42.5213 20.3386H41.6131L41.4725 20.9318H42.3807L42.2987 21.2665H41.3905L41.2088 22.03H42.117L42.035 22.3765H40.7459ZM43.0604 21.3135L42.8084 22.3707H42.4569L43.0194 20.0038H43.5408C43.6932 20.0038 43.8104 20.0156 43.8865 20.0332C43.9686 20.0508 44.033 20.0861 44.0799 20.133C44.1385 20.1918 44.1737 20.2622 44.1912 20.3562C44.2088 20.4443 44.203 20.5442 44.1795 20.6557C44.1326 20.8437 44.0565 20.9964 43.9393 21.1021C43.8221 21.2078 43.6756 21.2724 43.4998 21.2959L44.033 22.3707H43.6112L43.1014 21.3135H43.0604ZM43.1541 21.014H43.2244C43.4237 21.014 43.5584 20.9905 43.6346 20.9435C43.7108 20.8965 43.7635 20.8143 43.7928 20.691C43.8221 20.5618 43.8104 20.4678 43.7518 20.4149C43.6932 20.3621 43.5701 20.3327 43.3826 20.3327H43.3123L43.1541 21.014ZM44.2616 22.3765L44.824 20.0097H46.1073L46.0311 20.3386H45.1229L44.9823 20.9259H45.8905L45.8084 21.2607H44.9002L44.6365 22.3707H44.2616V22.3765ZM47.3553 22.3765L47.2381 21.7657H46.324L45.9139 22.3765H45.5213L47.2205 19.9157L47.7479 22.3765H47.3553ZM46.5408 21.4427H47.1795L47.0741 20.9024C47.0682 20.8672 47.0623 20.8261 47.0623 20.7849C47.0565 20.738 47.0565 20.691 47.0565 20.6381C47.033 20.691 47.0096 20.738 46.9803 20.7849C46.9569 20.8319 46.9334 20.873 46.91 20.9083L46.5408 21.4427ZM50.1854 20.5853C50.1033 20.4913 50.0037 20.4208 49.8983 20.3797C49.7928 20.3327 49.6756 20.3092 49.5408 20.3092C49.2889 20.3092 49.0662 20.3915 48.867 20.5559C48.6678 20.7203 48.5389 20.9376 48.4744 21.2019C48.4158 21.4545 48.4393 21.6659 48.5565 21.8362C48.6678 22.0007 48.8436 22.0829 49.078 22.0829C49.2127 22.0829 49.3475 22.0594 49.4823 22.0065C49.617 21.9596 49.7518 21.8832 49.8924 21.7834L49.7869 22.218C49.6698 22.2943 49.5467 22.3472 49.4178 22.3824C49.2889 22.4177 49.16 22.4353 49.0194 22.4353C48.8436 22.4353 48.6854 22.4059 48.5506 22.3472C48.4158 22.2884 48.3045 22.2004 48.2166 22.0829C48.1287 21.9713 48.076 21.8362 48.0526 21.6835C48.0291 21.5308 48.035 21.3664 48.0819 21.1902C48.1229 21.014 48.1932 20.8554 48.2869 20.7027C48.3807 20.55 48.5037 20.4149 48.6444 20.3034C48.785 20.1859 48.9373 20.0978 49.1014 20.0391C49.2655 19.9803 49.4295 19.951 49.5994 19.951C49.7342 19.951 49.8573 19.9686 49.9744 20.0097C50.0858 20.0508 50.1912 20.1095 50.285 20.1918L50.1854 20.5853ZM50.2205 22.3765L50.783 20.0097H52.0662L51.9901 20.3386H51.0819L50.9412 20.9318H51.8494L51.7674 21.2665H50.8592L50.6776 22.03H51.5858L51.5037 22.3765H50.2205Z" fill="#3D3D3C"/>
<path d="M43.4002 17.9481H40.8279L44.4021 5.00982H46.9744L43.4002 17.9481ZM42.0642 5.41506C41.8885 5.16839 41.6131 5.04506 41.2381 5.04506H27.1053L26.408 7.58222H28.9803H39.2635L38.5135 10.2897H28.2303V10.2838H25.658L23.5252 18.0069H26.0975L27.5271 12.8268H39.0877C39.451 12.8268 39.7908 12.7035 40.1072 12.4568C40.4236 12.2102 40.6346 11.9048 40.7342 11.5407L42.1639 6.36062C42.2752 5.973 42.24 5.66173 42.0642 5.41506ZM22.0252 17.1377C21.8846 17.6486 21.4158 18.0069 20.8885 18.0069H7.62872C7.26544 18.0069 6.99591 17.8835 6.82012 17.6369C6.64434 17.3902 6.60333 17.0848 6.7088 16.7207L9.94317 5.04506H12.5154L9.62676 15.4756H19.9158L22.8045 5.04506H25.3768L22.0252 17.1377Z" fill="#70706E"/>
<path d="M51.4157 5.03305L54.6677 11.5169L47.8298 18.0007L51.4157 5.03305Z" fill="#098041"/>
<path d="M49.1307 5.03305L52.3826 11.5169L45.5389 18.0007L49.1307 5.03305Z" fill="#E97626"/>
</svg>
