<svg width="16" height="16" viewBox="0 0 16 16" fill="none" xmlns="http://www.w3.org/2000/svg">
<path d="M15.6479 3.616L13.76 0.86404C13.5576 0.597055 13.2964 0.38025 12.9968 0.230423C12.6971 0.0805956 12.367 0.0017696 12.032 5.24738e-05H3.96809C3.63338 -0.00235659 3.30328 0.078219 3.00733 0.234575C2.71137 0.39093 2.45877 0.618192 2.27211 0.89604L0.384141 3.648C0.130202 3.97787 -0.00508417 4.38373 0.000146154 4.79999V13.9519C0.00391739 14.4938 0.220896 15.0126 0.604151 15.3958C0.987405 15.7791 1.50613 15.9961 2.04812 15.9998H13.92C14.1891 16.0007 14.4558 15.9483 14.7047 15.8457C14.9535 15.743 15.1796 15.5922 15.37 15.4019C15.5603 15.2115 15.7111 14.9854 15.8138 14.7366C15.9164 14.4877 15.9688 14.221 15.9679 13.9519V4.79999C15.9914 4.38118 15.8792 3.96596 15.6479 3.616ZM12.032 1.60003C12.1068 1.59805 12.181 1.61453 12.248 1.64801C12.315 1.6815 12.3727 1.73096 12.416 1.79203L13.6 3.52H8.80002V1.60003H12.032ZM3.5841 1.79203C3.62742 1.73096 3.68511 1.6815 3.75208 1.64801C3.81906 1.61453 3.89324 1.59805 3.96809 1.60003H7.20005V3.52H2.40011L3.5841 1.79203ZM14.3999 13.9519C14.4014 14.0111 14.3908 14.07 14.3687 14.125C14.3467 14.18 14.3138 14.2299 14.2719 14.2718C14.23 14.3137 14.1801 14.3466 14.1251 14.3687C14.0701 14.3907 14.0112 14.4013 13.952 14.3999H2.04812C1.9889 14.4013 1.93 14.3907 1.87501 14.3687C1.82001 14.3466 1.77005 14.3137 1.72817 14.2718C1.68628 14.2299 1.65333 14.18 1.63132 14.125C1.60931 14.07 1.5987 14.0111 1.60012 13.9519V5.53598C1.60198 5.42623 1.6464 5.32149 1.72401 5.24387C1.80163 5.16626 1.90637 5.12183 2.01612 5.11998H14.048C14.1577 5.12183 14.2624 5.16626 14.3401 5.24387C14.4177 5.32149 14.4621 5.42623 14.4639 5.53598V13.9519H14.3999Z" fill="#E1FBDE"/>
<path d="M10.3999 8.3199H5.59998C5.49463 8.32097 5.39012 8.30101 5.29258 8.26118C5.19503 8.22136 5.10642 8.16247 5.03192 8.08797C4.95742 8.01347 4.89853 7.92486 4.85871 7.82731C4.81888 7.72977 4.79892 7.62526 4.79999 7.51991C4.79892 7.41456 4.81888 7.31005 4.85871 7.21251C4.89853 7.11496 4.95742 7.02635 5.03192 6.95185C5.10642 6.87735 5.19503 6.81846 5.29258 6.77864C5.39012 6.73881 5.49463 6.71885 5.59998 6.71992H10.3999C10.5053 6.71885 10.6098 6.73881 10.7073 6.77864C10.8049 6.81846 10.8935 6.87735 10.968 6.95185C11.0425 7.02635 11.1014 7.11496 11.1412 7.21251C11.181 7.31005 11.201 7.41456 11.1999 7.51991C11.201 7.62526 11.181 7.72977 11.1412 7.82731C11.1014 7.92486 11.0425 8.01347 10.968 8.08797C10.8935 8.16247 10.8049 8.22136 10.7073 8.26118C10.6098 8.30101 10.5053 8.32097 10.3999 8.3199Z" fill="#E1FBDE"/>
</svg>
