<svg width="50" height="31" viewBox="0 0 50 31" fill="none" xmlns="http://www.w3.org/2000/svg">
<path fill-rule="evenodd" clip-rule="evenodd" d="M24.0539 0.753499C20.4687 4.3635 17.8218 10.0511 18.9623 11.6937C19.2453 12.1014 19.846 13.3183 19.9581 13.7109C19.9915 13.8288 19.8797 13.7 19.7095 13.4246C17.5527 9.93607 12.6748 7.77431 6.4949 7.56806L4.96023 7.51698V7.82122C4.96023 8.72588 5.5671 11.3663 6.13052 12.9145C7.2966 16.1178 10.0859 19.9648 11.2429 19.9648C13.078 19.9648 16.2994 21.4298 18.014 23.0441L18.5758 23.5732L18.1006 23.2417C15.9432 21.7376 13.4084 20.7587 11.2584 20.5987C8.39752 20.3863 4.02367 21.7199 0.832434 23.7779C-0.200731 24.4442 -0.168314 24.3597 0.36626 24.9964C5.13853 30.6792 16.5118 32.9447 20.8211 29.0706C22.9954 27.1164 23.4713 24.2665 22.2083 20.7651C21.0471 17.5454 16.635 13.7337 12.3084 12.2128C10.9725 11.7432 10.9881 11.7528 11.5593 11.7464C13.3439 11.7258 17.2781 13.3546 20.6075 15.4926C25.2763 18.4903 24.6999 18.426 28.0108 16.3182C32.7286 13.3154 36.3578 11.7268 38.4591 11.7454L38.9778 11.7499L38.0267 12.0789C33.2564 13.7289 28.8384 17.5082 27.6561 20.9498C26.1672 25.2839 27.5683 28.9222 31.2717 30.3374C34.9097 31.7278 41.1388 30.8456 45.4404 28.3308C47.1336 27.341 50 24.9222 50 24.4834C50 24.3558 48.1035 23.3953 46.1961 22.5574C40.2055 19.9253 36.7565 20.022 32.3263 22.9461C31.8481 23.2616 31.3985 23.5562 31.3272 23.6002C31.025 23.7865 32.3509 22.6278 32.8732 22.2484C34.5132 21.0574 36.7932 20.138 38.4566 19.9963L39.0641 19.9446L39.9779 19.0338C42.6469 16.3728 44.9859 11.136 44.9859 7.82122V7.51698L43.4515 7.56806C37.2477 7.77495 32.4018 9.92258 30.2366 13.4246C30.0664 13.7 29.9546 13.8288 29.9883 13.7109C30.1002 13.3189 30.7005 12.1017 30.9829 11.6953C32.1052 10.0787 29.4498 4.31466 25.9814 0.838954C24.8756 -0.269072 25.0611 -0.26104 24.0539 0.753499ZM25.1266 8.59577L25.146 10.977L25.3622 11.0222C27.2477 11.418 27.7427 13.4593 26.3821 15.2272C25.5075 16.3642 24.3923 16.2996 23.4353 15.0566C22.2306 13.4924 22.8109 11.3904 24.5502 11.0187L24.8186 10.9612L24.8095 9.10208C24.8043 8.07951 24.8371 6.66468 24.8821 5.95791L24.9641 4.67287L25.0355 5.44389C25.075 5.86796 25.1159 7.28632 25.1266 8.59577ZM11.5304 14.1915C13.4742 15.8691 15.0147 17.0372 17.2791 18.5503C18.8657 19.6102 18.8819 19.6227 18.3599 19.367C14.9178 17.6826 11.0552 14.5914 8.29411 11.312C7.62759 10.5204 7.64866 10.5365 9.07246 11.9157C9.87773 12.6954 10.9835 13.7196 11.5304 14.1915ZM41.642 11.3307C39.7351 13.5586 37.1598 15.8842 34.9146 17.4057C33.7024 18.2271 31.4403 19.5061 31.3531 19.4193C31.3298 19.3965 31.439 19.312 31.5956 19.2317C33.6269 18.1908 38.4906 14.3158 41.3103 11.4919C41.8326 10.9689 42.2728 10.541 42.2887 10.541C42.3046 10.541 42.0135 10.8963 41.642 11.3307ZM12.6109 24.3308C14.1764 24.5544 15.4028 24.8316 16.6732 25.2489C17.4548 25.5056 18.8686 26.08 18.3304 25.922C14.2338 24.7198 9.01185 24.2084 4.00941 24.5187L3.1017 24.5749L4.1822 24.4136C6.77435 24.0272 10.246 23.9928 12.6109 24.3308ZM45.3318 24.3337C47.0247 24.5544 47.2195 24.6292 45.8492 24.5325C44.3362 24.4255 39.8039 24.4535 38.7185 24.5762C36.2479 24.8554 34.2218 25.2207 32.4508 25.7058C31.4646 25.9759 31.4228 25.9801 31.8896 25.7626C33.4515 25.0359 36.5325 24.3349 39.0641 24.1309C40.2603 24.0346 43.9518 24.1541 45.3318 24.3337Z" fill="white"/>
</svg>
