<svg width="44" height="27" viewBox="0 0 44 27" fill="none" xmlns="http://www.w3.org/2000/svg">
<path d="M44 13.3316C44 15.9673 43.2184 18.5438 41.7541 20.7352C40.2898 22.9267 38.2085 24.6347 35.7735 25.6433C33.3384 26.6519 30.659 26.9157 28.0739 26.4015C25.4889 25.8872 23.1145 24.6179 21.2509 22.7542C19.3872 20.8904 18.1181 18.5159 17.6041 15.9308C17.09 13.3458 17.354 10.6664 18.3628 8.23138C19.3715 5.7964 21.0797 3.71524 23.2712 2.25107C25.4628 0.786913 28.0393 0.00551734 30.675 0.00570183C32.4249 0.00570183 34.1577 0.350394 35.7745 1.0201C37.3912 1.6898 38.8602 2.6714 40.0975 3.90884C41.3349 5.14628 42.3164 6.61532 42.986 8.2321C43.6555 9.84887 44.0001 11.5817 44 13.3316Z" fill="#FFC107"/>
<path d="M20.0346 21.3266C19.4102 20.5024 18.8842 19.608 18.4675 18.6616H25.5623C25.9385 17.8057 26.223 16.9124 26.4112 15.9966H17.6196C17.4392 15.1198 17.3485 14.2268 17.3491 13.3316H26.677C26.6765 12.4367 26.5874 11.544 26.4112 10.6666H17.614C17.8038 9.7507 18.0899 8.85741 18.4675 8.00162H25.5623C25.1456 7.05527 24.6196 6.16087 23.9952 5.33662H20.0346C20.6133 4.55922 21.2748 3.84704 22.0074 3.21264C19.9785 1.47197 17.473 0.381648 14.8163 0.0832846C12.1597 -0.215079 9.47478 0.292308 7.11024 1.53954C4.74571 2.78677 2.81085 4.71622 1.557 7.07725C0.303152 9.43829 -0.211752 12.1218 0.0791704 14.7792C0.370093 17.4367 1.4534 19.9452 3.18838 21.9791C4.92335 24.0129 7.22982 25.478 9.8082 26.1841C12.3866 26.8902 15.1177 26.8047 17.6469 25.9386C20.176 25.0726 22.3863 23.466 23.9906 21.3276L20.0346 21.3266Z" fill="#FF3D00"/>
</svg>
