<svg width="11" height="11" viewBox="0 0 11 11" fill="none" xmlns="http://www.w3.org/2000/svg">
<path d="M5.49995 11C5.31477 11 5.13718 10.9264 5.00624 10.7955C4.87531 10.6645 4.80175 10.4869 4.80175 10.3018V0.698204C4.80175 0.513029 4.87531 0.335438 5.00624 0.204499C5.13718 0.0735606 5.31477 0 5.49995 0C5.68513 0 5.86272 0.0735606 5.99365 0.204499C6.12459 0.335438 6.19815 0.513029 6.19815 0.698204V10.3018C6.19815 10.4869 6.12459 10.6645 5.99365 10.7955C5.86272 10.9264 5.68513 11 5.49995 11Z" fill="#E1FBDE"/>
<path d="M10.3018 6.19865H0.698204C0.513029 6.19865 0.335438 6.12509 0.204499 5.99415C0.0735606 5.86321 0 5.68562 0 5.50044C0 5.31527 0.0735606 5.13768 0.204499 5.00674C0.335438 4.8758 0.513029 4.80224 0.698204 4.80224H10.3018C10.4869 4.80224 10.6645 4.8758 10.7955 5.00674C10.9264 5.13768 11 5.31527 11 5.50044C11 5.68562 10.9264 5.86321 10.7955 5.99415C10.6645 6.12509 10.4869 6.19865 10.3018 6.19865Z" fill="#E1FBDE"/>
</svg>
