<svg width="54" height="32" viewBox="0 0 54 32" fill="none" xmlns="http://www.w3.org/2000/svg">
<path d="M15.7091 0.252247H38.2909C46.8275 0.252247 53.7478 7.17251 53.7478 15.7091C53.7478 24.2457 46.8275 31.1659 38.2909 31.1659H15.7091C7.17251 31.1659 0.252247 24.2457 0.252247 15.7091C0.252247 7.17251 7.17251 0.252247 15.7091 0.252247Z" fill="white" stroke="#10762C" stroke-width="0.5"/>
<path d="M30.6318 13.0226L30.0054 11.8484C29.8654 11.6037 29.6631 11.4006 29.419 11.2597C29.175 11.1188 28.8979 11.0451 28.6161 11.0462C28.3549 11.0439 28.0979 11.1117 27.8719 11.2426L24.623 13.003H23.6412C23.227 13.0053 22.8304 13.1712 22.5379 13.4644C22.2453 13.7577 22.0804 14.1547 22.0791 14.569V18.2871C22.0804 18.702 22.2458 19.0996 22.5392 19.393C22.8326 19.6864 23.2302 19.8518 23.6451 19.8531H30.2989C30.7137 19.8516 31.111 19.686 31.4042 19.3927C31.6974 19.0993 31.8627 18.7019 31.8639 18.2871V14.569C31.8657 14.2093 31.7445 13.8599 31.5203 13.5787C31.2962 13.2974 30.9827 13.1012 30.6318 13.0226ZM28.3412 12.1026C28.4234 12.0511 28.5191 12.0252 28.6161 12.028C28.7217 12.0274 28.8253 12.0565 28.9152 12.1119C29.0051 12.1672 29.0777 12.2467 29.1247 12.3412L29.4771 13.0069H26.678L28.3412 12.1026ZM30.8851 18.2881C30.8851 18.4443 30.823 18.5942 30.7125 18.7046C30.6021 18.8151 30.4522 18.8772 30.296 18.8772H23.6451C23.4889 18.8772 23.3391 18.8151 23.2286 18.7046C23.1181 18.5942 23.0561 18.4443 23.0561 18.2881V14.569C23.0561 14.4127 23.1181 14.2629 23.2286 14.1524C23.3391 14.0419 23.4889 13.9799 23.6451 13.9799H30.2989C30.4552 13.9799 30.605 14.0419 30.7155 14.1524C30.826 14.2629 30.888 14.4127 30.888 14.569L30.8851 18.2881Z" fill="#10762C"/>
<path d="M29.4172 15.9428H24.5268C24.4621 15.9437 24.3978 15.9316 24.3379 15.9073C24.2779 15.8829 24.2234 15.8468 24.1776 15.801C24.1318 15.7553 24.0957 15.7008 24.0714 15.6408C24.047 15.5808 24.035 15.5166 24.0359 15.4519C24.035 15.3871 24.047 15.3229 24.0714 15.2629C24.0957 15.2029 24.1318 15.1484 24.1776 15.1027C24.2234 15.0569 24.2779 15.0208 24.3379 14.9964C24.3978 14.9721 24.4621 14.96 24.5268 14.9609H29.4192C29.4839 14.96 29.5482 14.9721 29.6082 14.9964C29.6681 15.0208 29.7226 15.0569 29.7684 15.1027C29.8142 15.1484 29.8503 15.2029 29.8746 15.2629C29.899 15.3229 29.911 15.3871 29.9101 15.4519C29.9086 15.5819 29.8561 15.7062 29.7639 15.798C29.6718 15.8898 29.5473 15.9417 29.4172 15.9428Z" fill="#10762C"/>
</svg>
