<svg width="54" height="32" viewBox="0 0 54 32" fill="none" xmlns="http://www.w3.org/2000/svg">
<path d="M15.7091 0.252247H38.2909C46.8275 0.252247 53.7477 7.17251 53.7477 15.7091C53.7477 24.2457 46.8275 31.1659 38.2909 31.1659H15.7091C7.17251 31.1659 0.252247 24.2457 0.252247 15.7091C0.252247 7.17251 7.17251 0.252247 15.7091 0.252247Z" stroke="#10762C" stroke-width="0.5"/>
<path d="M30.6318 13.0228L30.0054 11.8486C29.8654 11.604 29.6631 11.4009 29.419 11.2599C29.175 11.119 28.8979 11.0454 28.6161 11.0464C28.3549 11.0441 28.0979 11.1119 27.8719 11.2428L24.623 13.0032H23.6412C23.227 13.0055 22.8304 13.1714 22.5378 13.4647C22.2453 13.758 22.0804 14.155 22.0791 14.5692V18.2874C22.0804 18.7023 22.2458 19.0999 22.5392 19.3933C22.8326 19.6867 23.2302 19.8521 23.6451 19.8534H30.2989C30.7137 19.8518 31.111 19.6863 31.4042 19.3929C31.6974 19.0995 31.8626 18.7021 31.8639 18.2874V14.5692C31.8657 14.2096 31.7445 13.8602 31.5203 13.5789C31.2962 13.2976 30.9827 13.1014 30.6318 13.0228ZM28.3412 12.1029C28.4234 12.0514 28.5191 12.0254 28.6161 12.0283C28.7217 12.0277 28.8253 12.0567 28.9152 12.1121C29.0051 12.1675 29.0777 12.2469 29.1247 12.3415L29.4771 13.0071H26.678L28.3412 12.1029ZM30.8851 18.2883C30.8851 18.4446 30.823 18.5944 30.7125 18.7049C30.602 18.8154 30.4522 18.8774 30.296 18.8774H23.6451C23.4889 18.8774 23.3391 18.8154 23.2286 18.7049C23.1181 18.5944 23.056 18.4446 23.056 18.2883V14.5692C23.056 14.413 23.1181 14.2631 23.2286 14.1527C23.3391 14.0422 23.4889 13.9801 23.6451 13.9801H30.2989C30.4552 13.9801 30.605 14.0422 30.7155 14.1527C30.8259 14.2631 30.888 14.413 30.888 14.5692L30.8851 18.2883Z" fill="#10762C"/>
<path d="M29.4172 15.9428H24.5268C24.4621 15.9437 24.3978 15.9316 24.3378 15.9073C24.2779 15.8829 24.2234 15.8468 24.1776 15.801C24.1318 15.7553 24.0957 15.7008 24.0714 15.6408C24.047 15.5808 24.035 15.5166 24.0359 15.4519C24.035 15.3871 24.047 15.3229 24.0714 15.2629C24.0957 15.2029 24.1318 15.1484 24.1776 15.1027C24.2234 15.0569 24.2779 15.0208 24.3378 14.9964C24.3978 14.9721 24.4621 14.96 24.5268 14.9609H29.4192C29.4839 14.96 29.5482 14.9721 29.6081 14.9964C29.6681 15.0208 29.7226 15.0569 29.7684 15.1027C29.8142 15.1484 29.8503 15.2029 29.8746 15.2629C29.899 15.3229 29.911 15.3871 29.9101 15.4519C29.9086 15.5819 29.8561 15.7062 29.7639 15.798C29.6718 15.8898 29.5473 15.9417 29.4172 15.9428Z" fill="#10762C"/>
</svg>
