<svg width="126" height="126" viewBox="0 0 126 126" fill="none" xmlns="http://www.w3.org/2000/svg">
<path opacity="0.4" d="M108.598 22.5669H106.078L84.7872 1.27559C83.0864 -0.425196 80.3147 -0.425196 78.551 1.27559C76.8502 2.97637 76.8502 5.74802 78.551 7.51179L93.6061 22.5669H32.3779L47.4329 7.51179C49.1337 5.81101 49.1337 3.03936 47.4329 1.27559C45.7322 -0.425196 42.9605 -0.425196 41.1967 1.27559L19.9685 22.5669H17.4488C11.7795 22.5669 0 22.5669 0 38.6928C0 44.803 1.25984 48.8345 3.9055 51.4804C5.41731 53.0552 7.24408 53.8741 9.19683 54.3151C11.0236 54.756 12.9763 54.819 14.8661 54.819H111.118C113.071 54.819 114.897 54.693 116.661 54.3151C121.952 53.0552 125.984 49.2755 125.984 38.6928C125.984 22.5669 114.204 22.5669 108.598 22.5669Z" fill="#10762C"/>
<path d="M111.187 54.819H14.8721C13.0453 54.819 11.0296 54.756 9.2028 54.2521L17.1398 102.693C18.9036 113.527 23.628 126 44.6043 126H79.9425C101.171 126 104.95 115.354 107.218 103.449L116.73 54.2521C114.966 54.693 113.076 54.819 111.187 54.819ZM62.9977 103.953C48.2578 103.953 36.2263 91.9213 36.2263 77.1811C36.2263 74.5985 38.3681 72.4567 40.9508 72.4567C43.5334 72.4567 45.6751 74.5985 45.6751 77.1811C45.6751 86.7559 53.4229 94.5039 62.9977 94.5039C72.5725 94.5039 80.3205 86.7559 80.3205 77.1811C80.3205 74.5985 82.4622 72.4567 85.0449 72.4567C87.6275 72.4567 89.7693 74.5985 89.7693 77.1811C89.7693 91.9213 77.7378 103.953 62.9977 103.953Z" fill="#10762C"/>
</svg>
