<svg width="54" height="31" viewBox="0 0 54 31" fill="none" xmlns="http://www.w3.org/2000/svg">
<path d="M38.1348 0H15.5C6.93957 0 0 6.93957 0 15.5C0 24.0604 6.93957 30.9999 15.5 30.9999H38.1348C46.6952 30.9999 53.6348 24.0604 53.6348 15.5C53.6348 6.93957 46.6952 0 38.1348 0Z" fill="#10762C"/>
<path d="M30.9124 15.9515V14.9871C30.9098 14.5803 30.7464 14.1911 30.4578 13.9044C30.1693 13.6177 29.779 13.4568 29.3722 13.4568H23.4281C23.3515 13.456 23.2757 13.4401 23.2053 13.41C23.1348 13.3798 23.071 13.3361 23.0175 13.2812C22.964 13.2263 22.9219 13.1614 22.8935 13.0902C22.8652 13.019 22.8512 12.9429 22.8524 12.8663C22.8612 12.7157 22.9273 12.5743 23.0371 12.4709C23.1469 12.3675 23.2921 12.31 23.4429 12.3103H29.3722C29.4758 12.3096 29.5775 12.338 29.6657 12.3923C29.7539 12.4466 29.8251 12.5246 29.8712 12.6173C29.9126 12.6986 29.9757 12.7667 30.0535 12.8141C30.1314 12.8616 30.2209 12.8864 30.3121 12.886C30.3967 12.8878 30.4803 12.8671 30.5544 12.8261C30.6284 12.7851 30.6903 12.7252 30.7337 12.6525C30.7771 12.5798 30.8005 12.4969 30.8014 12.4122C30.8024 12.3276 30.7809 12.2442 30.7392 12.1705C30.6112 11.919 30.4152 11.7085 30.1736 11.5627C29.932 11.4169 29.6544 11.3418 29.3722 11.3458H23.4281C23.0213 11.3471 22.6316 11.5093 22.344 11.7969C22.0563 12.0846 21.8942 12.4743 21.8929 12.8811V18.6382C21.8942 19.045 22.0563 19.4347 22.344 19.7223C22.6316 20.01 23.0213 20.1721 23.4281 20.1734H29.3722C29.779 20.1721 30.1687 20.01 30.4564 19.7223C30.744 19.4347 30.9062 19.045 30.9075 18.6382V17.6787H29.9529V18.6382C29.9523 18.7907 29.8915 18.9369 29.7837 19.0447C29.6758 19.1526 29.5297 19.2134 29.3771 19.2139H23.4281C23.2756 19.2134 23.1294 19.1526 23.0216 19.0447C22.9137 18.9369 22.8529 18.7907 22.8524 18.6382V14.2982C23.034 14.3768 23.2302 14.416 23.4281 14.4134H29.3722C29.5253 14.4126 29.6724 14.4725 29.7812 14.5801C29.8901 14.6877 29.9518 14.8341 29.9529 14.9871V15.9515H30.9124Z" fill="white"/>
<path d="M30.5285 16.3353V17.2949H28.0338V16.3353H30.5285ZM30.6624 15.3758H27.8989C27.7904 15.375 27.6828 15.3958 27.5824 15.437C27.482 15.4782 27.3908 15.5389 27.314 15.6156C27.2373 15.6924 27.1766 15.7836 27.1354 15.884C27.0943 15.9844 27.0735 16.092 27.0742 16.2005V17.4287C27.0735 17.5372 27.0943 17.6448 27.1354 17.7452C27.1766 17.8456 27.2373 17.9369 27.314 18.0136C27.3908 18.0903 27.482 18.1511 27.5824 18.1922C27.6828 18.2334 27.7904 18.2542 27.8989 18.2534H30.6624C30.7709 18.2542 30.8785 18.2334 30.9789 18.1922C31.0793 18.1511 31.1705 18.0903 31.2473 18.0136C31.324 17.9369 31.3847 17.8456 31.4259 17.7452C31.4671 17.6448 31.4879 17.5372 31.4871 17.4287V16.2005C31.4879 16.092 31.4671 15.9844 31.4259 15.884C31.3847 15.7836 31.324 15.6924 31.2473 15.6156C31.1705 15.5389 31.0793 15.4782 30.9789 15.437C30.8785 15.3958 30.7709 15.375 30.6624 15.3758Z" fill="white"/>
</svg>
