<svg width="20" height="20" viewBox="0 0 20 20" fill="none" xmlns="http://www.w3.org/2000/svg">
<path fill-rule="evenodd" clip-rule="evenodd" d="M19.6213 8.00396H10.1082C10.1082 9.0034 10.1081 11.0021 10.1021 12.0015H15.6147C15.4035 13.001 14.6545 14.4005 13.5962 15.1051C13.5962 15.1051 13.5942 15.1109 13.5922 15.1099C12.1852 16.0484 10.3285 16.2614 8.94984 15.9815C6.78886 15.5478 5.07866 13.9646 4.38427 11.9537C4.38832 11.9507 4.39136 11.923 4.39439 11.921C3.95977 10.6737 3.95977 9.0034 4.39439 8.00396H4.39338C4.95334 6.16699 6.71506 4.491 8.87908 4.03226C10.6196 3.65946 12.5835 4.06302 14.0278 5.42826C14.2199 5.23837 16.6861 2.80582 16.8711 2.60793C11.9366 -1.90655 4.03557 -0.318482 1.07913 5.51127H1.07812C1.07812 5.51127 1.07914 5.51151 1.07307 5.5225C-0.38948 8.3859 -0.328836 11.7599 1.08318 14.4864C1.07914 14.4894 1.07611 14.4912 1.07307 14.4942C2.35268 17.0028 4.68145 18.9267 7.48729 19.6593C10.468 20.4489 14.2613 19.9092 16.8023 17.5875L16.8054 17.5904C18.9583 15.6315 20.2985 12.2946 19.6213 8.00396Z" fill="white"/>
</svg>
