<svg width="25" height="25" viewBox="0 0 25 25" fill="none" xmlns="http://www.w3.org/2000/svg">
<path d="M12.4739 25C19.3624 25 24.9466 19.4035 24.9466 12.5C24.9466 5.59643 19.3624 0 12.4739 0C5.58537 0 0.00113106 5.59643 0.00113106 12.5C0.00113106 19.4035 5.58537 25 12.4739 25Z" fill="white"/>
<path d="M12.4738 24.5193C19.0974 24.5193 24.4669 19.1381 24.4669 12.5C24.4669 5.86201 19.0974 0.480827 12.4738 0.480827C5.85028 0.480827 0.480827 5.86201 0.480827 12.5C0.480827 19.1381 5.85028 24.5193 12.4738 24.5193Z" stroke="#10762C" stroke-width="0.933968"/>
<path d="M12.4739 18.9481C15.6532 18.9481 18.2306 16.2132 18.2306 12.8395C18.2306 9.46576 15.6532 6.73083 12.4739 6.73083C9.29459 6.73083 6.71725 9.46576 6.71725 12.8395C6.71725 16.2132 9.29459 18.9481 12.4739 18.9481Z" fill="white"/>
</svg>
