<svg width="13" height="10" viewBox="0 0 13 10" fill="none" xmlns="http://www.w3.org/2000/svg">
<path d="M0.393404 4.5103C0.501732 4.41481 0.628291 4.34225 0.76544 4.29703C0.902588 4.2518 1.04748 4.23485 1.19136 4.24718C1.33525 4.25951 1.47514 4.30088 1.60259 4.36879C1.73004 4.43669 1.84241 4.52972 1.93291 4.64226L4.26515 7.01749L11.1719 0.287672C11.2771 0.189091 11.4013 0.112915 11.5369 0.0637627C11.6724 0.0146106 11.8166 -0.00649225 11.9605 0.00173404C12.1045 0.00996032 12.2453 0.0473443 12.3743 0.111618C12.5034 0.175893 12.6181 0.265717 12.7114 0.375644C12.8103 0.480742 12.8867 0.604868 12.936 0.740457C12.9853 0.876045 13.0065 1.02026 12.9983 1.1643C12.99 1.30834 12.9525 1.4492 12.8881 1.57829C12.8237 1.70738 12.7336 1.82199 12.6234 1.91515L4.96892 9.39372C4.85675 9.50018 4.71903 9.57593 4.56905 9.61365H4.52907C4.51172 9.63033 4.49088 9.64293 4.46805 9.65053C4.44522 9.65814 4.42099 9.66057 4.39711 9.65764H3.99724C3.95325 9.65764 3.86528 9.61365 3.82129 9.61365C3.67822 9.54149 3.54402 9.45292 3.42142 9.34974L0.306433 6.09379C0.20219 5.98715 0.121263 5.85999 0.0687885 5.7204C0.0163144 5.5808 -0.00655967 5.43182 0.00161886 5.28292C0.00979739 5.13401 0.0488498 4.98843 0.116296 4.85543C0.183743 4.72242 0.27811 4.60489 0.393404 4.5103Z" fill="#E1FBDE"/>
</svg>
