<svg width="304" height="37" viewBox="0 0 304 37" fill="none" xmlns="http://www.w3.org/2000/svg">
<path d="M38.519 13.9814C38.4793 13.8587 38.406 13.7495 38.3074 13.6662C38.2089 13.583 38.089 13.5289 37.9613 13.5103L25.4772 11.6975L19.8945 0.384836C19.8377 0.269344 19.7496 0.172081 19.6403 0.104065C19.531 0.0360498 19.4049 0 19.2761 0C19.1474 0 19.0213 0.0360498 18.912 0.104065C18.8027 0.172081 18.7146 0.269344 18.6578 0.384836L13.0741 11.6975L0.590946 13.5103C0.463534 13.5288 0.343839 13.5826 0.245391 13.6655C0.146942 13.7485 0.0736646 13.8574 0.0338422 13.9798C-0.0059802 14.1022 -0.0107601 14.2334 0.020043 14.3584C0.050846 14.4834 0.116004 14.5973 0.208151 14.6872L9.24249 23.4924L7.10859 35.9287C7.0873 36.0556 7.10185 36.186 7.15062 36.3052C7.19939 36.4243 7.28043 36.5275 7.38464 36.6031C7.48858 36.6795 7.61195 36.7249 7.74055 36.7341C7.86916 36.7434 7.99777 36.7162 8.11158 36.6556L19.2789 30.7858L30.4444 36.6556C30.5583 36.7154 30.6867 36.7422 30.815 36.7329C30.9434 36.7236 31.0666 36.6786 31.1707 36.603C31.2748 36.5274 31.3557 36.4242 31.4043 36.305C31.4529 36.1859 31.4671 36.0555 31.4455 35.9287L29.3107 23.4952L38.345 14.689C38.4371 14.599 38.5021 14.485 38.5328 14.36C38.5636 14.235 38.5588 14.1039 38.519 13.9814Z" fill="#10762C"/>
<path d="M171.243 13.9817C171.204 13.8589 171.13 13.7497 171.032 13.6665C170.933 13.5832 170.813 13.5292 170.686 13.5105L158.202 11.6978L152.619 0.38508C152.562 0.269589 152.474 0.172326 152.365 0.10431C152.255 0.0362944 152.129 0.000244551 152 0.000244551C151.872 0.000244551 151.746 0.0362944 151.636 0.10431C151.527 0.172326 151.439 0.269589 151.382 0.38508L145.798 11.6978L133.315 13.5105C133.188 13.529 133.068 13.5828 132.97 13.6658C132.871 13.7488 132.798 13.8576 132.758 13.98C132.718 14.1025 132.714 14.2336 132.744 14.3586C132.775 14.4836 132.84 14.5975 132.932 14.6874L141.967 23.4927L139.833 35.9289C139.812 36.0559 139.826 36.1863 139.875 36.3054C139.924 36.4246 140.005 36.5278 140.109 36.6034C140.213 36.6797 140.336 36.7251 140.465 36.7344C140.593 36.7437 140.722 36.7164 140.836 36.6558L152.003 30.786L163.169 36.6558C163.283 36.7157 163.411 36.7424 163.539 36.7331C163.668 36.7239 163.791 36.6789 163.895 36.6033C163.999 36.5277 164.08 36.4244 164.129 36.3053C164.177 36.1861 164.191 36.0558 164.17 35.9289L162.035 23.4954L171.069 14.6893C171.161 14.5993 171.226 14.4853 171.257 14.3603C171.288 14.2352 171.283 14.1041 171.243 13.9817Z" fill="#10762C"/>
<path d="M104.882 13.9817C104.842 13.8589 104.769 13.7497 104.67 13.6665C104.572 13.5832 104.452 13.5292 104.324 13.5105L91.8399 11.6978L86.2572 0.38508C86.2003 0.269589 86.1123 0.172326 86.003 0.10431C85.8937 0.0362944 85.7676 0.000244551 85.6388 0.000244551C85.5101 0.000244551 85.3839 0.0362944 85.2747 0.10431C85.1654 0.172326 85.0773 0.269589 85.0205 0.38508L79.4368 11.6978L66.9536 13.5105C66.8262 13.529 66.7065 13.5828 66.6081 13.6658C66.5096 13.7488 66.4364 13.8576 66.3965 13.98C66.3567 14.1025 66.3519 14.2336 66.3827 14.3586C66.4135 14.4836 66.4787 14.5975 66.5708 14.6874L75.6052 23.4927L73.4713 35.9289C73.45 36.0559 73.4645 36.1863 73.5133 36.3054C73.5621 36.4246 73.6431 36.5278 73.7473 36.6034C73.8513 36.6797 73.9746 36.7251 74.1032 36.7344C74.2318 36.7437 74.3605 36.7164 74.4743 36.6558L85.6416 30.786L96.8071 36.6558C96.921 36.7157 97.0494 36.7424 97.1777 36.7331C97.3061 36.7239 97.4293 36.6789 97.5334 36.6033C97.6375 36.5277 97.7184 36.4244 97.767 36.3053C97.8155 36.1861 97.8298 36.0558 97.8082 35.9289L95.6734 23.4954L104.708 14.6893C104.8 14.5993 104.865 14.4853 104.896 14.3603C104.926 14.2352 104.921 14.1041 104.882 13.9817Z" fill="#10762C"/>
<path d="M237.606 13.9817C237.566 13.8589 237.493 13.7497 237.394 13.6665C237.296 13.5832 237.176 13.5292 237.048 13.5105L224.564 11.6978L218.981 0.38508C218.924 0.269589 218.836 0.172326 218.727 0.10431C218.618 0.0362944 218.492 0.000244551 218.363 0.000244551C218.234 0.000244551 218.108 0.0362944 217.999 0.10431C217.889 0.172326 217.801 0.269589 217.744 0.38508L212.161 11.6978L199.678 13.5105C199.55 13.529 199.431 13.5828 199.332 13.6658C199.234 13.7488 199.16 13.8576 199.121 13.98C199.081 14.1025 199.076 14.2336 199.107 14.3586C199.138 14.4836 199.203 14.5975 199.295 14.6874L208.329 23.4927L206.195 35.9289C206.174 36.0559 206.189 36.1863 206.237 36.3054C206.286 36.4246 206.367 36.5278 206.471 36.6034C206.575 36.6797 206.699 36.7251 206.827 36.7344C206.956 36.7437 207.084 36.7164 207.198 36.6558L218.366 30.786L229.531 36.6558C229.645 36.7157 229.773 36.7424 229.902 36.7331C230.03 36.7239 230.153 36.6789 230.257 36.6033C230.362 36.5277 230.442 36.4244 230.491 36.3053C230.54 36.1861 230.554 36.0558 230.532 35.9289L228.397 23.4954L237.432 14.6893C237.524 14.5993 237.589 14.4853 237.62 14.3603C237.65 14.2352 237.645 14.1041 237.606 13.9817Z" fill="#BDF8B7"/>
<path d="M303.966 13.9817C303.926 13.8589 303.853 13.7497 303.755 13.6665C303.656 13.5832 303.536 13.5292 303.409 13.5105L290.924 11.6978L285.342 0.38508C285.285 0.269589 285.197 0.172326 285.088 0.10431C284.978 0.0362944 284.852 0.000244551 284.723 0.000244551C284.595 0.000244551 284.468 0.0362944 284.359 0.10431C284.25 0.172326 284.162 0.269589 284.105 0.38508L278.521 11.6978L266.038 13.5105C265.911 13.529 265.791 13.5828 265.693 13.6658C265.594 13.7488 265.521 13.8576 265.481 13.98C265.441 14.1025 265.436 14.2336 265.467 14.3586C265.498 14.4836 265.563 14.5975 265.655 14.6874L274.69 23.4927L272.556 35.9289C272.535 36.0559 272.549 36.1863 272.598 36.3054C272.647 36.4246 272.728 36.5278 272.832 36.6034C272.936 36.6797 273.059 36.7251 273.188 36.7344C273.316 36.7437 273.445 36.7164 273.559 36.6558L284.726 30.786L295.892 36.6558C296.006 36.7157 296.134 36.7424 296.262 36.7331C296.391 36.7239 296.514 36.6789 296.618 36.6033C296.722 36.5277 296.803 36.4244 296.852 36.3053C296.9 36.1861 296.914 36.0558 296.893 35.9289L294.758 23.4954L303.792 14.6893C303.884 14.5993 303.949 14.4853 303.98 14.3603C304.011 14.2352 304.006 14.1041 303.966 13.9817Z" fill="#BDF8B7"/>
</svg>
