<svg width="21" height="19" viewBox="0 0 21 19" fill="none" xmlns="http://www.w3.org/2000/svg">
<path d="M0.669084 3.27357e-09H20.2936C20.4211 -1.26117e-05 20.546 0.0364345 20.6535 0.105046C20.7611 0.173658 20.8467 0.271575 20.9004 0.387257C20.9542 0.50294 20.9737 0.631567 20.9567 0.75798C20.9398 0.884393 20.887 1.00332 20.8047 1.10076L13.1128 10.1994V18.3311C13.1128 18.4451 13.0837 18.5572 13.0282 18.6568C12.9727 18.7563 12.8926 18.8401 12.7957 18.9C12.6987 18.96 12.588 18.9942 12.4742 18.9994C12.3603 19.0045 12.247 18.9805 12.145 18.9296L8.22006 16.9672C8.10884 16.9116 8.01529 16.8262 7.9499 16.7205C7.88451 16.6148 7.84987 16.4929 7.84987 16.3686V10.1967L0.157955 1.10076C0.0756452 1.00332 0.0229022 0.884393 0.00594174 0.75798C-0.0110188 0.631567 0.00851 0.50294 0.0622264 0.387257C0.115943 0.271575 0.201608 0.173658 0.309127 0.105046C0.416646 0.0364345 0.541538 -1.26117e-05 0.669084 3.27357e-09ZM18.8521 1.33803H2.11059L9.02912 9.51967C9.13109 9.64041 9.18703 9.79336 9.18701 9.95141V15.9547L11.7739 17.2482V9.95141C11.7739 9.79336 11.8298 9.64041 11.9318 9.51967L18.8521 1.33803Z" fill="#10762C"/>
</svg>
