<svg width="8" height="12" viewBox="0 0 8 12" fill="none" xmlns="http://www.w3.org/2000/svg">
<path fill-rule="evenodd" clip-rule="evenodd" d="M4.00575 7.18242C3.24308 7.18242 2.52665 6.87117 1.98719 6.30615C0.190129 4.42137 1.48027 1.19707 4.00575 1.19707C6.52951 1.19707 7.82308 4.41957 6.0243 6.30615C5.48484 6.87117 4.76842 7.18242 4.00575 7.18242ZM6.8235 7.15247C9.34955 4.50396 7.52966 0 4.00404 0C0.486405 0 -1.35461 4.50396 1.17201 7.15247C1.80623 7.81744 2.84805 8.2077 3.4189 8.33159V9.60586H1.70633V10.8029H3.4189V12H4.56062V10.8029H6.2732V9.60586H4.56062V8.33159C5.70234 8.2077 6.18871 7.81744 6.8235 7.15247Z" fill="#10762C"/>
</svg>
