<svg width="16" height="15" viewBox="0 0 16 15" fill="none" xmlns="http://www.w3.org/2000/svg">
<path d="M13.984 3.23211L12.96 1.3121C12.7311 0.912064 12.4003 0.579869 12.0011 0.349388C11.602 0.118908 11.1489 -0.00161669 10.688 0.000102662C10.2614 -0.00385443 9.84146 0.106648 9.47202 0.320103L4.16001 3.20011H2.56C1.88163 3.20201 1.23159 3.47233 0.751907 3.95201C0.272224 4.4317 0.00189991 5.08174 0 5.76011V11.8401C0.00189991 12.5185 0.272224 13.1685 0.751907 13.6482C1.23159 14.1279 1.88163 14.3982 2.56 14.4001H13.44C14.1184 14.3982 14.7684 14.1279 15.2481 13.6482C15.7278 13.1685 15.9981 12.5185 16 11.8401V5.76011C16.0027 5.172 15.8042 4.60065 15.4375 4.14083C15.0708 3.68102 14.558 3.36038 13.984 3.23211ZM10.24 1.72811C10.3733 1.64193 10.5293 1.59738 10.688 1.60011C10.8607 1.599 11.0303 1.6464 11.1774 1.73692C11.3245 1.82743 11.4432 1.95743 11.52 2.11211L12.096 3.20011H7.52001L10.24 1.72811ZM14.4 11.8401C14.4 12.0947 14.2989 12.3389 14.1188 12.5189C13.9388 12.699 13.6946 12.8001 13.44 12.8001H2.56C2.3054 12.8001 2.06122 12.699 1.88118 12.5189C1.70115 12.3389 1.6 12.0947 1.6 11.8401V5.76011C1.6 5.5055 1.70115 5.26132 1.88118 5.08129C2.06122 4.90125 2.3054 4.80011 2.56 4.80011H13.44C13.6946 4.80011 13.9388 4.90125 14.1188 5.08129C14.2989 5.26132 14.4 5.5055 14.4 5.76011V11.8401Z" fill="#E1FBDE"/>
<path d="M12 8.00024H4.00002C3.89466 8.00131 3.79015 7.98135 3.69261 7.94153C3.59506 7.9017 3.50645 7.84281 3.43195 7.76831C3.35745 7.69381 3.29856 7.60519 3.25873 7.50765C3.21891 7.41011 3.19895 7.3056 3.20002 7.20024C3.19895 7.09489 3.21891 6.99038 3.25873 6.89283C3.29856 6.79529 3.35745 6.70667 3.43195 6.63217C3.50645 6.55767 3.59506 6.49878 3.69261 6.45896C3.79015 6.41913 3.89466 6.39917 4.00002 6.40024H12C12.1054 6.39917 12.2099 6.41913 12.3074 6.45896C12.405 6.49878 12.4936 6.55767 12.5681 6.63217C12.6426 6.70667 12.7015 6.79529 12.7413 6.89283C12.7811 6.99038 12.8011 7.09489 12.8 7.20024C12.7967 7.41139 12.7114 7.61296 12.5621 7.76228C12.4127 7.9116 12.2112 7.99694 12 8.00024Z" fill="#E1FBDE"/>
</svg>
