<svg width="20" height="20" viewBox="0 0 20 20" fill="none" xmlns="http://www.w3.org/2000/svg">
<path opacity="0.2" d="M20 3.57129H1.42859V19.9999H20V3.57129Z" fill="#292D32"/>
<path opacity="0.4" d="M20 3.57129H1.42859V9.28557H20V3.57129Z" fill="#292D32"/>
<path d="M18.5714 7.85693H0V18.5712H18.5714V7.85693Z" fill="#FDFFFF"/>
<path d="M18.5714 7.85735H0V2.14307H18.5714V7.85735ZM7.14286 9.28592H5.71429V16.4288H7.14286V9.28592ZM10.7357 10.7145H10.6929C10.3107 10.7145 10 11.0252 10 11.4074V14.3074C10 14.6895 10.3107 15.0002 10.6929 15.0002H10.7357C11.1179 15.0002 11.4286 14.6895 11.4286 14.3074V11.4074C11.4286 11.0252 11.1179 10.7145 10.7357 10.7145ZM10.7357 9.28592C11.9071 9.28592 12.8571 10.2359 12.8571 11.4074V14.3074C12.8571 15.4788 11.9071 16.4288 10.7357 16.4288H10.6929C9.52143 16.4288 8.57143 15.4788 8.57143 14.3074V11.4074C8.57143 10.2359 9.52143 9.28592 10.6929 9.28592H10.7357Z" fill="#292D32"/>
<path d="M3.57139 5.71408C4.36037 5.71408 4.99997 5.07448 4.99997 4.28551C4.99997 3.49653 4.36037 2.85693 3.57139 2.85693C2.78242 2.85693 2.14282 3.49653 2.14282 4.28551C2.14282 5.07448 2.78242 5.71408 3.57139 5.71408Z" fill="#C4CCCC"/>
<path d="M15 5.71408C15.789 5.71408 16.4286 5.07448 16.4286 4.28551C16.4286 3.49653 15.789 2.85693 15 2.85693C14.211 2.85693 13.5714 3.49653 13.5714 4.28551C13.5714 5.07448 14.211 5.71408 15 5.71408Z" fill="#C4CCCC"/>
<path d="M4.28575 4.29286V0.707143C4.28575 0.316429 3.96932 0 3.57861 0H3.56432C3.17361 0 2.85718 0.316429 2.85718 0.707143V4.29286C2.85718 4.68357 3.17361 5 3.56432 5H3.57861C3.96932 5 4.28575 4.68357 4.28575 4.29286ZM15.7143 4.29286V0.707143C15.7143 0.316429 15.3979 0 15.0072 0H14.9929C14.6022 0 14.2857 0.316429 14.2857 0.707143V4.29286C14.2857 4.68357 14.6022 5 14.9929 5H15.0072C15.3979 5 15.7143 4.68357 15.7143 4.29286Z" fill="#FDFFFF"/>
</svg>
