<svg width="16" height="16" viewBox="0 0 16 16" fill="none" xmlns="http://www.w3.org/2000/svg">
<path d="M8.57584 8.83207L11.4558 7.26409C11.5444 7.20975 11.6213 7.13842 11.6822 7.0542C11.743 6.96999 11.7866 6.87456 11.8104 6.77341C11.8342 6.67227 11.8377 6.56742 11.8208 6.4649C11.8039 6.36238 11.7668 6.26423 11.7118 6.1761C11.6575 6.08754 11.5861 6.01061 11.5019 5.94975C11.4177 5.88889 11.3223 5.8453 11.2211 5.8215C11.12 5.7977 11.0151 5.79416 10.9126 5.81109C10.8101 5.82801 10.7119 5.86506 10.6238 5.92011L7.74385 7.48809C7.65529 7.54242 7.57835 7.61375 7.51749 7.69797C7.45663 7.78218 7.41305 7.87762 7.38925 7.97876C7.36545 8.0799 7.36191 8.18476 7.37883 8.28727C7.39576 8.38979 7.43281 8.48794 7.48785 8.57607C7.53953 8.66745 7.60957 8.74715 7.69355 8.81015C7.77753 8.87315 7.87364 8.91809 7.97583 8.94213C8.07803 8.96618 8.18409 8.96881 8.28735 8.94987C8.39061 8.93093 8.48883 8.89082 8.57584 8.83207Z" fill="#E1FBDE"/>
<path d="M7.99989 0C6.41766 0 4.87097 0.469185 3.55539 1.34822C2.23982 2.22726 1.21445 3.47668 0.608959 4.93846C0.00346622 6.40025 -0.154958 8.00876 0.153719 9.56059C0.462397 11.1124 1.22431 12.5379 2.34312 13.6567C3.46192 14.7755 4.88737 15.5374 6.43919 15.8461C7.99102 16.1547 9.59953 15.9963 11.0613 15.3908C12.5231 14.7853 13.7725 13.76 14.6516 12.4444C15.5306 11.1288 15.9998 9.58212 15.9998 7.99989C15.9998 5.87819 15.1569 3.84338 13.6567 2.34311C12.1564 0.842843 10.1216 0 7.99989 0ZM7.99989 14.3998C6.73411 14.3998 5.49675 14.0245 4.44429 13.3212C3.39183 12.618 2.57154 11.6185 2.08715 10.449C1.60275 9.2796 1.47601 7.99279 1.72295 6.75133C1.9699 5.50987 2.57943 4.36951 3.47447 3.47447C4.36952 2.57942 5.50987 1.96989 6.75133 1.72295C7.99279 1.47601 9.2796 1.60275 10.449 2.08714C11.6185 2.57154 12.618 3.39183 13.3212 4.44429C14.0245 5.49675 14.3998 6.73411 14.3998 7.99989C14.3947 9.69569 13.7188 11.3206 12.5197 12.5197C11.3206 13.7188 9.6957 14.3947 7.99989 14.3998Z" fill="#E1FBDE"/>
<path d="M5.37597 4.38412C5.21793 4.25136 5.01439 4.1854 4.80852 4.20023C4.60265 4.21505 4.41066 4.3095 4.27328 4.46354C4.13589 4.61757 4.06393 4.81908 4.07265 5.02529C4.08137 5.23151 4.17009 5.42622 4.31999 5.5681L7.64794 8.76806C7.80598 8.90082 8.00952 8.96678 8.21539 8.95195C8.42126 8.93713 8.61325 8.84268 8.75063 8.68864C8.88802 8.5346 8.95998 8.3331 8.95126 8.12689C8.94254 7.92067 8.85382 7.72596 8.70393 7.58408L5.37597 4.38412Z" fill="#E1FBDE"/>
</svg>
