<svg width="38" height="24" viewBox="0 0 38 24" fill="none" xmlns="http://www.w3.org/2000/svg">
<path fill-rule="evenodd" clip-rule="evenodd" d="M18.2809 0.583354C15.5562 3.37819 13.5446 7.78148 14.4113 9.05317C14.6264 9.3688 15.0829 10.3109 15.1682 10.6149C15.1936 10.7062 15.1086 10.6064 14.9792 10.3933C13.3401 7.69244 9.63282 6.01882 4.93613 5.85915L3.76977 5.8196V6.05514C3.76977 6.75552 4.23099 8.79973 4.6592 9.9983C5.54542 12.4783 7.66525 15.4566 8.54457 15.4566C9.93931 15.4566 12.3876 16.5908 13.6907 17.8406L14.1176 18.2502L13.7564 17.9936C12.1168 16.8291 10.1904 16.0712 8.5564 15.9474C6.38212 15.783 3.05799 16.8154 0.63265 18.4087C-0.152556 18.9245 -0.127919 18.8591 0.278358 19.3521C3.90528 23.7516 12.5489 25.5056 15.824 22.5063C17.4765 20.9933 17.8382 18.787 16.8783 16.0762C15.9958 13.5836 12.6426 10.6325 9.35442 9.4551C8.33909 9.09148 8.35092 9.09894 8.78504 9.09396C10.1413 9.07805 13.1314 10.339 15.6617 11.9943C19.21 14.315 18.772 14.2653 21.2882 12.6335C24.8737 10.3087 27.6319 9.07879 29.229 9.09322L29.6232 9.0967L28.9003 9.35139C25.2748 10.6288 21.9172 13.5547 21.0187 16.2192C19.8871 19.5747 20.9519 22.3914 23.7665 23.487C26.5314 24.5634 31.2655 23.8805 34.5347 21.9335C35.8215 21.1672 38 19.2946 38 18.9549C38 18.8561 36.5587 18.1125 35.109 17.4638C30.5562 15.4261 27.935 15.5009 24.568 17.7647C24.2046 18.009 23.8629 18.2371 23.8086 18.2711C23.579 18.4154 24.5867 17.5183 24.9836 17.2245C26.2301 16.3025 27.9628 15.5907 29.227 15.481L29.6887 15.441L30.3832 14.7359C32.4117 12.6757 34.1893 8.6214 34.1893 6.05514V5.8196L33.0232 5.85915C28.3082 6.01932 24.6254 7.682 22.9798 10.3933C22.8505 10.6064 22.7655 10.7062 22.7911 10.6149C22.8761 10.3114 23.3324 9.36905 23.547 9.05442C24.4 7.80287 22.3819 3.34039 19.7459 0.649513C18.9055 -0.208314 19.0464 -0.202095 18.2809 0.583354ZM19.0962 6.65479L19.111 8.49829L19.2753 8.53335C20.7082 8.83977 21.0845 10.4201 20.0504 11.7888C19.3857 12.669 18.5381 12.619 17.8108 11.6567C16.8953 10.4457 17.3363 8.81838 18.6581 8.53062L18.8621 8.4861L18.8552 7.04677C18.8513 6.2551 18.8762 5.15975 18.9104 4.61257L18.9727 3.6177L19.027 4.21463C19.057 4.54293 19.0881 5.64102 19.0962 6.65479ZM8.76311 10.987C10.2404 12.2858 11.4112 13.1901 13.1321 14.3615C14.3379 15.1821 14.3502 15.1918 13.9535 14.9938C11.3375 13.6898 8.40192 11.2966 6.30352 8.7577C5.79697 8.14486 5.81298 8.15729 6.89507 9.22504C7.50708 9.82867 8.34747 10.6216 8.76311 10.987ZM31.6479 8.77212C30.1987 10.497 28.2415 12.2974 26.5351 13.4754C25.6139 14.1113 23.8946 15.1015 23.8284 15.0343C23.8106 15.0167 23.8936 14.9513 24.0126 14.8891C25.5565 14.0832 29.2529 11.0832 31.3959 8.89698C31.7928 8.49207 32.1273 8.16078 32.1394 8.16078C32.1515 8.16078 31.9302 8.43586 31.6479 8.77212ZM9.58429 18.8367C10.774 19.0098 11.7061 19.2245 12.6716 19.5476C13.2657 19.7463 14.3401 20.191 13.9311 20.0686C10.8177 19.1379 6.849 18.742 3.04715 18.9822L2.35729 19.0257L3.17847 18.9009C5.1485 18.6017 7.78696 18.5751 9.58429 18.8367ZM34.4522 18.839C35.7387 19.0098 35.8868 19.0678 34.8454 18.9929C33.6955 18.9101 30.2509 18.9317 29.4261 19.0267C27.5484 19.2429 26.0086 19.5257 24.6626 19.9012C23.9131 20.1104 23.8813 20.1136 24.2361 19.9453C25.4232 19.3827 27.7647 18.84 29.6887 18.682C30.5978 18.6074 33.4033 18.6999 34.4522 18.839Z" fill="#10762C"/>
</svg>
