<svg width="141" height="109" viewBox="0 0 141 109" fill="none" xmlns="http://www.w3.org/2000/svg">
<g style="mix-blend-mode:soft-light" opacity="0.2">
<path d="M140.304 63.8008L136.292 50.5377V48.2964C136.292 36.2118 126.46 26.3798 114.379 26.3798L63.9752 26.3798C66.2083 25.1434 68.1136 23.3151 69.4298 21.0382C69.9226 20.1847 69.9226 19.1329 69.427 18.2794C66.8802 13.8794 62.1445 11.1483 57.0671 11.1483C53.9254 11.1483 50.9381 12.1641 48.493 14.0064C48.3526 13.8769 48.2094 13.7529 48.0608 13.6347C51.0813 10.9749 52.9893 7.08176 52.9893 2.75333C52.9893 1.23062 51.7559 0 50.236 0C48.716 0 47.4826 1.23062 47.4826 2.75333C47.4826 7.71229 43.4463 11.7486 38.4873 11.7486H31.3093C26.3506 11.7486 22.314 7.71229 22.314 2.75333C22.314 1.23062 21.0834 0 19.5607 0C18.0407 0 16.8074 1.23062 16.8074 2.75333C16.8074 7.0845 18.7154 10.9777 21.7359 13.6347C21.5872 13.7532 21.4441 13.8742 21.3036 14.0036C18.8586 12.1644 15.8713 11.1483 12.7323 11.1483C7.65243 11.1483 2.91371 13.8824 0.369639 18.2794C-0.123213 19.1329 -0.123213 20.182 0.369639 21.0355C2.91371 25.4382 7.64942 28.1721 12.7323 28.1721C15.0452 28.1721 17.2947 27.6104 19.3045 26.5668L21.1108 39.6673C18.9439 41.0136 17.4985 43.4146 17.4985 46.1459V48.5249C17.4985 52.7266 20.9155 56.1434 25.117 56.1434H26.5349V58.2278C26.5349 64.9157 29.6654 71.1218 34.974 75.0923L37.5458 106.472C37.6615 107.901 38.8565 109 40.2882 109L59.7655 109C61.1999 109 62.3922 107.901 62.5106 106.472L64.7355 79.2967H73.2461C73.505 79.7841 73.7859 80.2577 74.0804 80.7174V88.0965C74.0804 89.6192 75.3138 90.8498 76.8338 90.8498C78.3565 90.8498 79.5871 89.6192 79.5871 88.0965V86.3672C80.8646 87.2345 82.2414 87.9533 83.695 88.501V93.0055C83.695 94.5255 84.9257 95.7588 86.4484 95.7588C87.9683 95.7588 89.2017 94.5252 89.2017 93.0055V89.7182C89.6945 89.7538 92.5526 89.7045 93.4668 89.575L93.2273 106.208C93.2191 106.946 93.5027 107.656 94.0202 108.179C94.5378 108.705 95.2454 109 95.9807 109H115.981C117.333 109 118.484 108.02 118.699 106.684L122.691 81.9288C122.716 81.7829 122.727 81.637 122.727 81.4911V47.4457C122.727 44.3896 122.085 41.4379 120.819 38.6761C120.546 38.0785 119.192 35.7492 118.823 35.2316C117.972 34.0421 117.003 32.9492 115.934 31.9635C124.255 32.7482 130.786 39.7721 130.786 48.2964V50.5377L126.774 63.8008C126.521 64.6351 126.678 65.5383 127.198 66.2377C127.719 66.937 128.537 67.3501 129.409 67.3501H137.669C138.539 67.3501 139.36 66.937 139.88 66.2377C140.4 65.538 140.557 64.6351 140.304 63.8008ZM18.5281 20.4683C16.9393 21.8753 14.8798 22.6654 12.7323 22.6654C10.1828 22.6654 7.77338 21.5448 6.12424 19.6587C7.77338 17.7753 10.1828 16.6547 12.7323 16.6547C14.9432 16.6547 17.0331 17.4753 18.6383 18.9426C18.5555 19.4467 18.5171 19.9562 18.5281 20.4683ZM57.0668 16.6549C59.6136 16.6549 62.0227 17.7756 63.6721 19.6589C62.023 21.545 59.6163 22.6657 57.0668 22.6657C54.919 22.6657 52.8596 21.8755 51.2683 20.4713C51.2793 19.9565 51.2409 19.4442 51.158 18.9431C52.7633 17.4753 54.8557 16.6549 57.0668 16.6549ZM24.7862 18.3068C25.3781 17.6294 26.1987 17.255 27.0991 17.255L42.697 17.255C43.5974 17.255 44.4177 17.6294 45.0099 18.3068C45.599 18.9843 45.8579 19.8487 45.7339 20.7379L45.2191 24.4797C44.729 23.8683 43.9828 23.4748 43.1402 23.4748C41.6754 23.4748 40.4859 24.6615 40.4859 26.1264C40.4859 27.5912 41.6754 28.7779 43.1402 28.7779C43.7211 28.7779 44.2581 28.5879 44.6958 28.2714V28.2741L43.2806 38.5277H26.5152L25.1 28.2714V28.2686C25.5377 28.5881 26.0747 28.7779 26.6584 28.7779C28.1232 28.7779 29.3099 27.5912 29.3099 26.1264C29.3099 24.6615 28.1232 23.4748 26.6584 23.4748C25.8158 23.4748 25.0668 23.8686 24.5794 24.4797L24.0622 20.7382C23.9382 19.8487 24.1968 18.9843 24.7862 18.3068ZM25.117 50.637C23.9522 50.637 23.0052 49.69 23.0052 48.5252V46.1462C23.0052 44.9814 23.9522 44.0344 25.117 44.0344H44.6824C45.8445 44.0344 46.7915 44.9814 46.7915 46.1462V48.5252C46.7915 49.69 45.8445 50.637 44.6824 50.637H25.117ZM42.8262 103.493L40.753 78.1514C42.1874 78.6443 43.6742 78.983 45.1914 79.1563L47.1848 103.493H42.8262ZM95.3636 83.4817C93.8741 84.002 92.3017 84.2664 90.6912 84.2664C86.4429 84.2664 82.5275 82.4025 79.8677 79.2965H94.8129C95.8287 80.3647 96.9576 81.3202 98.172 82.1433C97.2881 82.6888 96.3465 83.1405 95.3636 83.4817ZM103.153 103.493H98.7749L98.9978 87.9423C100.587 87.2046 102.076 86.2573 103.42 85.1257L103.153 103.493ZM117.22 47.4457V81.2709L113.635 103.493H108.662L108.962 82.6145C108.982 81.2818 108.043 80.1283 106.732 79.8721C105.857 79.7043 104.973 79.4426 104.105 79.0984C101.812 78.1843 99.7551 76.692 98.1553 74.7785C97.6323 74.1507 96.8586 73.7901 96.0435 73.7901H62.1994C60.765 73.7901 59.5727 74.8888 59.4542 76.3177L57.2294 103.493H52.7139L50.4864 76.3177C50.3679 74.8888 49.1757 73.7901 47.7413 73.7901H47.7248C47.6834 73.7873 47.6395 73.7873 47.5981 73.7873C44.5722 73.7873 41.6397 72.9174 39.1176 71.2734C34.6874 68.3879 32.0413 63.5118 32.0413 58.2281V56.1437H44.6821C48.8811 56.1437 52.2979 52.7266 52.2979 48.5252V46.1462C52.2979 43.4148 50.8522 41.0139 48.6856 39.6676L49.773 31.7655C50.0264 31.8453 101.663 31.8867 101.663 31.8867C104.628 31.8867 107.495 32.9687 108.574 33.5084C108.596 33.5194 111.65 34.8603 114.337 38.426C116.314 41.0496 117.22 45.1852 117.22 47.4457ZM132.231 62.4846L133.539 58.162L134.847 62.4846H132.231Z" fill="white"/>
<path d="M109.054 44.07C108.957 43.8525 107.949 42.126 106.664 41.0495C106.27 40.719 105.254 40.1601 105.254 40.1601C104.139 39.6039 102.93 39.3203 101.664 39.3203H88.4473C86.9273 39.3203 85.694 40.5539 85.694 42.0736C85.694 43.5936 86.9276 44.827 88.4473 44.827H101.664C102.679 44.827 103.401 45.3914 103.792 45.9284C104.114 46.3689 104.279 47.0545 104.279 47.4456C104.279 48.9656 105.513 50.1989 107.033 50.1989C108.552 50.1989 109.786 48.9656 109.786 47.4456C109.786 46.2644 109.538 45.1245 109.054 44.07Z" fill="white"/>
</g>
</svg>
