<svg width="13" height="11" viewBox="0 0 13 11" fill="none" xmlns="http://www.w3.org/2000/svg">
<path d="M8.80541 1.18859e-05C9.51356 -0.000164489 10.2059 0.210108 10.7947 0.604231C11.3836 0.998353 11.8426 1.55862 12.1136 2.21415C12.3846 2.86968 12.4555 3.59102 12.3173 4.28693C12.1791 4.98284 11.838 5.62205 11.3372 6.12369L6.67592 10.8014C6.6131 10.8644 6.53851 10.9143 6.45641 10.9484C6.37431 10.9825 6.28631 11.0001 6.19744 11.0001C6.10857 11.0001 6.02057 10.9825 5.93847 10.9484C5.85637 10.9143 5.78178 10.8644 5.71896 10.8014L1.04869 6.12459C0.377225 5.4518 0 4.5393 0 3.58782C0 2.63635 0.377225 1.72384 1.04869 1.05105C1.72015 0.378257 2.63085 0.000285312 3.58045 0.000285312C4.53004 0.000285312 5.44074 0.378257 6.11221 1.05105L6.19338 1.13239L6.27456 1.05105C6.60608 0.716862 7.00047 0.45189 7.4349 0.271477C7.86932 0.0910641 8.33515 -0.00120523 8.80541 1.18859e-05ZM6.18977 9.36085L10.3775 5.16483C10.5949 4.96024 10.7691 4.71398 10.8898 4.44064C11.0104 4.1673 11.075 3.87247 11.0797 3.57364C11.0845 3.27481 11.0292 2.97807 10.9173 2.70104C10.8054 2.42401 10.6391 2.17232 10.4282 1.96093C10.2174 1.74954 9.96627 1.58275 9.68985 1.47045C9.41343 1.35815 9.11731 1.30264 8.81907 1.30721C8.52083 1.31177 8.22654 1.37633 7.95367 1.49704C7.68081 1.61775 7.43492 1.79216 7.23062 2.00991L6.67141 2.57022C6.60859 2.63321 6.534 2.68317 6.4519 2.71726C6.3698 2.75135 6.2818 2.7689 6.19293 2.7689C6.10406 2.7689 6.01606 2.75135 5.93396 2.71726C5.85186 2.68317 5.77727 2.63321 5.71445 2.57022L5.15524 2.00991C4.94844 1.80269 4.70292 1.63832 4.43272 1.52618C4.16252 1.41403 3.87291 1.35632 3.58045 1.35632C3.28798 1.35632 2.99838 1.41403 2.72817 1.52618C2.45797 1.63832 2.21246 1.80269 2.00565 2.00991C1.79885 2.21712 1.6348 2.46312 1.52288 2.73386C1.41096 3.0046 1.35335 3.29478 1.35335 3.58782C1.35335 3.88087 1.41096 4.17104 1.52288 4.44178C1.6348 4.71252 1.79885 4.95852 2.00565 5.16573L6.18977 9.36085Z" fill="black"/>
</svg>
