<svg width="273" height="162" viewBox="0 0 273 162" fill="none" xmlns="http://www.w3.org/2000/svg">
<mask id="mask0_8_1947" style="mask-type:luminance" maskUnits="userSpaceOnUse" x="0" y="0" width="327" height="162">
<path d="M317.329 0H9.52941C4.26646 0 0 4.26646 0 9.52941V152.471C0 157.734 4.26646 162 9.52941 162H317.329C322.592 162 326.859 157.734 326.859 152.471V9.52941C326.859 4.26646 322.592 0 317.329 0Z" fill="white"/>
</mask>
<g mask="url(#mask0_8_1947)">
<g opacity="0.87">
<path opacity="0.68" d="M104.824 -154.376C12.1956 -154.376 -62.8941 -79.2867 -62.8941 13.3412C-62.8941 105.969 12.1956 181.059 104.824 181.059C197.451 181.059 272.541 105.969 272.541 13.3412C272.541 -79.2867 197.451 -154.376 104.824 -154.376Z" fill="#E3E980"/>
</g>
</g>
</svg>
