<svg width="25" height="25" viewBox="0 0 25 25" fill="none" xmlns="http://www.w3.org/2000/svg">
<path d="M12.4736 25C19.3622 25 24.9464 19.4035 24.9464 12.5C24.9464 5.59643 19.3622 0 12.4736 0C5.58515 0 0.000911134 5.59643 0.000911134 12.5C0.000911134 19.4035 5.58515 25 12.4736 25Z" fill="white"/>
<path d="M12.4738 24.5193C19.0973 24.5193 24.4668 19.1381 24.4668 12.5C24.4668 5.86201 19.0973 0.480827 12.4738 0.480827C5.85022 0.480827 0.480764 5.86201 0.480764 12.5C0.480764 19.1381 5.85022 24.5193 12.4738 24.5193Z" stroke="#10762C" stroke-width="0.933968"/>
<path d="M12.4737 19.2309C16.1829 19.2309 19.1898 16.2175 19.1898 12.5002C19.1898 8.78289 16.1829 5.76942 12.4737 5.76942C8.76454 5.76942 5.75764 8.78289 5.75764 12.5002C5.75764 16.2175 8.76454 19.2309 12.4737 19.2309Z" fill="#10762C"/>
</svg>
