<svg width="14" height="17" viewBox="0 0 14 17" fill="none" xmlns="http://www.w3.org/2000/svg">
<path d="M6.89965 1.27727C4.26961 1.27727 2.13222 3.41466 2.13222 6.04468V8.34098C2.13222 8.82566 1.92563 9.56461 1.67931 9.97779L0.765558 11.4954C0.201414 12.433 0.590753 13.4739 1.62369 13.8235C5.04828 14.9677 8.74305 14.9677 12.1676 13.8235C13.1291 13.5057 13.5502 12.3694 13.0258 11.4954L12.112 9.97779C11.8737 9.56461 11.6671 8.82566 11.6671 8.34098V6.04468C11.6671 3.42261 9.52173 1.27727 6.89965 1.27727Z" stroke="#10762C" stroke-miterlimit="10" stroke-linecap="round"/>
<path d="M8.36954 1.50771C8.12322 1.4362 7.86896 1.38058 7.60675 1.3488C6.84396 1.25345 6.11296 1.30907 5.42963 1.50771C5.66006 0.91973 6.23215 0.506555 6.89958 0.506555C7.56702 0.506555 8.13911 0.91973 8.36954 1.50771Z" stroke="#10762C" stroke-miterlimit="10" stroke-linecap="round" stroke-linejoin="round"/>
<path d="M9.28335 14.1098C9.28335 15.4209 8.21068 16.4935 6.89964 16.4935C6.2481 16.4935 5.64423 16.2234 5.21517 15.7943C4.78611 15.3652 4.51595 14.7614 4.51595 14.1098" stroke="#10762C" stroke-miterlimit="10"/>
</svg>
