<svg width="30" height="30" viewBox="0 0 30 30" fill="none" xmlns="http://www.w3.org/2000/svg">
<path d="M1.95979e-05 15C1.95979e-05 23.2843 6.70871 30 14.9843 30C23.2599 30 29.9686 23.2843 29.9686 15C29.9686 6.71574 23.2599 0 14.9843 0C6.70871 0 1.95979e-05 6.71574 1.95979e-05 15Z" fill="white"/>
<path d="M0.499464 15C0.499464 23.0081 6.98453 29.5 14.9843 29.5C22.984 29.5 29.4691 23.0081 29.4691 15C29.4691 6.99183 22.984 0.49995 14.9843 0.49995C6.98453 0.49995 0.499464 6.99183 0.499464 15Z" stroke="#10762C" stroke-width="0.972222"/>
<path d="M6.9927 14.9998C6.9927 19.4181 10.5707 22.9998 14.9843 22.9998C19.398 22.9998 22.9759 19.4181 22.9759 14.9998C22.9759 10.5815 19.398 6.9998 14.9843 6.9998C10.5707 6.9998 6.9927 10.5815 6.9927 14.9998Z" fill="#10762C"/>
</svg>
