<svg width="51" height="57" viewBox="0 0 51 57" fill="none" xmlns="http://www.w3.org/2000/svg">
<path d="M25.5 57C22.8158 57 25.9912 52.8138 12.7581 46.3026C12.0331 45.9452 11.3295 45.5469 10.6509 45.1095C4.06658 40.8783 0 33.1395 0 24.8096C0 11.1084 11.4159 0 25.5 0C39.5841 0 51 11.1084 51 24.8069C51 33.9853 46.0503 42.4557 38.2634 46.292C25.0168 52.8112 28.1842 57 25.5 57ZM25.5 34.7567C31.1664 34.7567 35.7 30.324 35.7 24.9342C35.7 19.5444 31.1664 15.1116 25.5 15.1116C19.8336 15.1116 15.3 19.5444 15.3 24.9342C15.3 30.324 19.8336 34.7567 25.5 34.7567Z" fill="#10762C"/>
</svg>
