<svg width="307" height="110" viewBox="0 0 307 110" fill="none" xmlns="http://www.w3.org/2000/svg">
<path fill-rule="evenodd" clip-rule="evenodd" d="M0 3.27145C0.00100291 6.13176 0.0591715 7.25302 0.129375 5.76269C0.200582 4.27236 0.19958 1.93256 0.128373 0.562586C0.0571663 -0.807392 0 0.41215 0 3.27145ZM305.701 3.27145C305.702 5.92817 305.761 6.96518 305.832 5.57815C305.903 4.19012 305.903 2.01781 305.831 0.749129C305.759 -0.519555 305.7 0.615741 305.701 3.27145ZM306.815 3.27145C306.816 5.92817 306.875 6.96518 306.946 5.57815C307.019 4.19012 307.018 2.01781 306.945 0.749129C306.873 -0.519555 306.814 0.615741 306.815 3.27145ZM283.362 4.46693C283.925 4.55117 284.843 4.55117 285.405 4.46693C285.967 4.38168 285.507 4.31147 284.384 4.31147C283.26 4.31147 282.8 4.38168 283.362 4.46693ZM287.634 4.46291C288.094 4.55117 288.846 4.55117 289.305 4.46291C289.766 4.37365 289.389 4.30144 288.47 4.30144C287.55 4.30144 287.174 4.37365 287.634 4.46291ZM275.811 6.89297C275.701 7.69129 275.757 8.14661 275.944 7.96007C276.123 7.78055 276.21 7.15373 276.137 6.56702C276.015 5.58517 275.988 5.61125 275.811 6.89297ZM149.306 35.7738C149.306 37.5099 149.37 38.221 149.448 37.3524C149.526 36.4839 149.526 35.0628 149.448 34.1953C149.37 33.3267 149.306 34.0368 149.306 35.7738ZM194.644 43.9456C194.644 47.3164 194.7 48.6954 194.77 47.0105C194.838 45.3246 194.838 42.5666 194.77 40.8807C194.7 39.1958 194.644 40.5748 194.644 43.9456ZM221.389 43.9456C221.389 47.3164 221.445 48.6954 221.513 47.0105C221.582 45.3246 221.582 42.5666 221.513 40.8807C221.445 39.1958 221.389 40.5748 221.389 43.9456ZM167.192 41.345L165.706 41.6118L167.077 41.6639C167.83 41.693 168.551 41.5496 168.677 41.345C168.803 41.1414 168.855 40.998 168.792 41.0271C168.729 41.0552 168.009 41.1986 167.192 41.345ZM128.654 41.6078C129.113 41.696 129.865 41.696 130.325 41.6078C130.785 41.5185 130.409 41.4463 129.489 41.4463C128.57 41.4463 128.194 41.5185 128.654 41.6078ZM257.175 41.6078C257.635 41.696 258.387 41.696 258.847 41.6078C259.306 41.5185 258.93 41.4463 258.011 41.4463C257.092 41.4463 256.715 41.5185 257.175 41.6078ZM244.406 45.9885C244.407 48.236 244.468 49.1076 244.542 47.9251C244.616 46.7427 244.615 44.9044 244.54 43.8393C244.466 42.7742 244.406 43.741 244.406 45.9885ZM149.262 43.9456C149.262 44.6607 149.339 44.9535 149.432 44.5955C149.526 44.2384 149.526 43.6527 149.432 43.2957C149.339 42.9376 149.262 43.2305 149.262 43.9456ZM77.9955 105.606C77.9955 107.751 78.0567 108.628 78.1319 107.556C78.2071 106.483 78.2071 104.728 78.1319 103.656C78.0567 102.584 77.9955 103.461 77.9955 105.606ZM135.199 105.606C135.199 107.751 135.26 108.628 135.335 107.556C135.41 106.483 135.41 104.728 135.335 103.656C135.26 102.584 135.199 103.461 135.199 105.606ZM162.831 105.126C163.293 105.214 163.962 105.211 164.317 105.118C164.672 105.025 164.294 104.953 163.477 104.957C162.659 104.961 162.37 105.037 162.831 105.126ZM173.554 109.243C173.455 109.405 173.946 109.47 174.646 109.388C175.347 109.306 175.921 109.174 175.921 109.094C175.921 108.815 173.734 108.952 173.554 109.243Z" fill="#447C74"/>
</svg>
