<svg width="9" height="5" viewBox="0 0 9 5" fill="none" xmlns="http://www.w3.org/2000/svg">
<path d="M4.29212 3.49673L1.03291 0.197353C0.915812 0.0888062 0.761805 0.0301685 0.603003 0.0336661C0.444201 0.0371638 0.292863 0.102526 0.180546 0.216126C0.0682296 0.329726 0.00360452 0.482794 0.000146274 0.64341C-0.00331197 0.804027 0.054664 0.959794 0.161985 1.07823L3.85956 4.81805C3.97153 4.93126 4.12239 4.99639 4.28068 4.99985C4.43898 5.00332 4.59248 4.94485 4.70919 4.83665L8.42805 1.08313C8.4894 1.02626 8.53872 0.957426 8.57306 0.880766C8.6074 0.804106 8.62603 0.721208 8.62784 0.637068C8.62966 0.552928 8.61461 0.469288 8.5836 0.391188C8.5526 0.313089 8.50628 0.242147 8.44744 0.182637C8.38861 0.123127 8.31847 0.0762813 8.24125 0.0449232C8.16403 0.0135651 8.08134 -0.00165696 7.99815 0.000175134C7.91496 0.00200773 7.833 0.0208561 7.7572 0.0555847C7.68141 0.0903127 7.61335 0.140202 7.55713 0.202246L4.29212 3.49673Z" fill="#10762C"/>
</svg>
