<svg width="54" height="31" viewBox="0 0 54 31" fill="none" xmlns="http://www.w3.org/2000/svg">
<path d="M38.1348 0H15.5C6.93957 0 0 6.93957 0 15.5C0 24.0604 6.93957 30.9999 15.5 30.9999H38.1348C46.6952 30.9999 53.6348 24.0604 53.6348 15.5C53.6348 6.93957 46.6952 0 38.1348 0Z" fill="#10762C"/>
<path d="M23.9486 11.3461L22.3957 18.4593H24.4525L24.9564 16.1024H26.4237C27.1041 16.1211 27.7689 15.8961 28.298 15.4679C28.8271 15.0397 29.1857 14.4364 29.3092 13.767C29.4005 13.4804 29.421 13.1759 29.3687 12.8796C29.3165 12.5834 29.1931 12.3042 29.0092 12.0661C28.8253 11.828 28.5864 11.6381 28.313 11.5127C28.0395 11.3873 27.7397 11.3301 27.4393 11.3461H23.9486ZM25.6837 12.7927H26.6914C26.8095 12.7901 26.9265 12.8164 27.0321 12.8693C27.1377 12.9222 27.2288 13.0001 27.2975 13.0962C27.3662 13.1924 27.4104 13.3038 27.4261 13.4209C27.4419 13.538 27.4289 13.6571 27.3882 13.768C27.3216 14.0355 27.1709 14.2747 26.9584 14.4502C26.7458 14.6258 26.4825 14.7285 26.2072 14.7433H25.2428L25.6837 12.7927ZM30.0542 13.211C30.0532 13.4452 30.0281 13.6787 29.9794 13.9078C29.855 14.5283 29.5749 15.107 29.1655 15.5896C29.0822 15.8318 28.9287 16.0437 28.7245 16.1983C28.5203 16.3529 28.2747 16.4432 28.019 16.4576H27.9983C27.5035 16.6804 26.9664 16.7935 26.4237 16.7893H25.5134L25.1276 18.6001L25.0095 19.1462H24.4417L24.2173 20.1737H26.2584L26.7662 17.8167H28.2345C28.9157 17.8353 29.5811 17.6104 30.1113 17.1824C30.6415 16.7543 31.0016 16.1512 31.1268 15.4814C31.2711 15.0375 31.2405 14.5553 31.0413 14.1332C30.8422 13.7111 30.4894 13.3809 30.0551 13.21L30.0542 13.211Z" fill="white"/>
</svg>
