<svg width="350" height="471" viewBox="0 0 350 471" fill="none" xmlns="http://www.w3.org/2000/svg">
<path d="M5.51181 0.918635C4.29407 0.920094 3.12663 1.40448 2.26556 2.26556C1.40448 3.12663 0.920094 4.29407 0.918635 5.51181V464.829C0.920094 466.047 1.40448 467.215 2.26556 468.076C3.12663 468.937 4.29407 469.421 5.51181 469.423H344.488C345.706 469.421 346.873 468.937 347.734 468.076C348.596 467.215 349.08 466.047 349.081 464.829V5.51181C349.08 4.29407 348.596 3.12663 347.734 2.26556C346.873 1.40448 345.706 0.920094 344.488 0.918635H5.51181ZM5.51181 0H344.488C345.95 0 347.352 0.580707 348.386 1.61437C349.419 2.64804 350 4.04999 350 5.51181V464.829C350 466.291 349.419 467.693 348.386 468.727C347.352 469.761 345.95 470.341 344.488 470.341H5.51181C4.04999 470.341 2.64804 469.761 1.61437 468.727C0.580707 467.693 0 466.291 0 464.829L0 5.51181C0 4.04999 0.580707 2.64804 1.61437 1.61437C2.64804 0.580707 4.04999 0 5.51181 0Z" fill="#79DC83"/>
</svg>
