<svg width="34" height="34" viewBox="0 0 34 34" fill="none" xmlns="http://www.w3.org/2000/svg">
<g clip-path="url(#clip0_16_757)">
<path d="M25.8287 3.96981H3.71203V6.9635H25.8287V3.96981Z" fill="#D6FBE9"/>
<path d="M27.5946 6.17783L27.598 3.23779e-05H6.18139C5.18568 -0.00403324 4.22654 0.374921 3.50251 1.05845C2.77847 1.74198 2.34499 2.67774 2.29179 3.67203L2.28839 18.7646V20.6108H2.28499V24.7112C2.28541 25.804 2.7197 26.8519 3.49241 27.6246C4.26512 28.3973 5.31301 28.8316 6.40579 28.832H8.08198C7.94345 28.2852 7.87378 27.7233 7.87458 27.1592C7.87458 25.3449 8.59531 23.6049 9.87821 22.322C11.1611 21.0391 12.9011 20.3184 14.7154 20.3184C16.5297 20.3184 18.2697 21.0391 19.5525 22.322C20.8354 23.6049 21.5562 25.3449 21.5562 27.1592C21.557 27.7233 21.4873 28.2852 21.3488 28.832H27.5946C28.6873 28.8316 29.7352 28.3973 30.5079 27.6246C31.2806 26.8519 31.7149 25.804 31.7154 24.7112V10.2986C31.7154 9.75745 31.6089 9.22157 31.4018 8.72157C31.1948 8.22158 30.8912 7.76728 30.5086 7.38461C30.1259 7.00194 29.6716 6.69841 29.1716 6.49135C28.6716 6.28429 28.1357 6.17775 27.5946 6.17783ZM6.49079 1.76463H25.83V6.17783H6.49079C5.90556 6.17783 5.3443 5.94535 4.93048 5.53153C4.51667 5.11771 4.28419 4.55645 4.28419 3.97123C4.28419 3.386 4.51667 2.82475 4.93048 2.41093C5.3443 1.99711 5.90556 1.76463 6.49079 1.76463ZM26.6222 18.479C26.4093 18.4794 26.2012 18.4166 26.024 18.2986C25.8469 18.1806 25.7087 18.0128 25.6269 17.8163C25.5452 17.6198 25.5235 17.4035 25.5647 17.1946C25.6059 16.9858 25.7081 16.7939 25.8584 16.6432C26.0086 16.4925 26.2002 16.3897 26.4089 16.3478C26.6175 16.306 26.8339 16.3269 27.0307 16.4081C27.2275 16.4892 27.3957 16.6269 27.5143 16.8037C27.6328 16.9804 27.6962 17.1884 27.6966 17.4012C27.6965 17.6865 27.5834 17.96 27.382 18.162C27.1806 18.364 26.9074 18.478 26.6222 18.479Z" fill="#7A4DE8"/>
<path d="M21.556 27.159C21.5569 27.723 21.4872 28.285 21.3486 28.8318H8.08186C7.94332 28.285 7.87365 27.723 7.87446 27.159C7.87446 25.3447 8.59518 23.6047 9.87808 22.3218C11.161 21.0389 12.901 20.3182 14.7152 20.3182C16.5295 20.3182 18.2695 21.0389 19.5524 22.3218C20.8353 23.6047 21.556 25.3447 21.556 27.159Z" fill="#DCB262"/>
<path d="M21.3485 28.832C20.976 30.3089 20.1212 31.6193 18.9196 32.5555C17.718 33.4916 16.2384 33.9999 14.7151 33.9999C13.1919 33.9999 11.7123 33.4916 10.5107 32.5555C9.30909 31.6193 8.45429 30.3089 8.08175 28.832H21.3485Z" fill="#FFD317"/>
</g>
<defs>
<clipPath id="clip0_16_757">
<rect width="33.28" height="33.28" fill="white" transform="scale(1.02163)"/>
</clipPath>
</defs>
</svg>
