<svg width="54" height="32" viewBox="0 0 54 32" fill="none" xmlns="http://www.w3.org/2000/svg">
<path d="M38.2909 0.24535H15.7091C7.16875 0.24535 0.245442 7.16866 0.245442 15.709C0.245442 24.2493 7.16875 31.1726 15.7091 31.1726H38.2909C46.8312 31.1726 53.7546 24.2493 53.7546 15.709C53.7546 7.16866 46.8312 0.24535 38.2909 0.24535Z" stroke="#10762C" stroke-width="0.486536"/>
<path d="M31.0854 16.1597V15.1976C31.0828 14.7918 30.9197 14.4034 30.6319 14.1174C30.344 13.8314 29.9546 13.6708 29.5488 13.6708H23.6186C23.5422 13.6701 23.4666 13.6542 23.3963 13.6241C23.326 13.5941 23.2624 13.5504 23.209 13.4957C23.1556 13.4409 23.1136 13.3762 23.0853 13.3052C23.0571 13.2341 23.0431 13.1582 23.0443 13.0817C23.0531 12.9315 23.119 12.7904 23.2285 12.6872C23.3381 12.5841 23.4829 12.5268 23.6334 12.527H29.5488C29.6522 12.5263 29.7536 12.5547 29.8416 12.6089C29.9296 12.663 30.0006 12.7408 30.0466 12.8333C30.0879 12.9144 30.1509 12.9824 30.2286 13.0297C30.3062 13.077 30.3955 13.1018 30.4865 13.1014C30.5709 13.1032 30.6543 13.0826 30.7282 13.0416C30.8021 13.0007 30.8638 12.941 30.9071 12.8684C30.9504 12.7959 30.9737 12.7132 30.9747 12.6288C30.9756 12.5443 30.9542 12.4611 30.9126 12.3876C30.7849 12.1367 30.5894 11.9266 30.3484 11.7812C30.1073 11.6358 29.8303 11.5608 29.5488 11.5648H23.6186C23.2128 11.5661 22.824 11.7279 22.537 12.0149C22.2501 12.3018 22.0883 12.6907 22.087 13.0965V18.8401C22.0883 19.2459 22.2501 19.6348 22.537 19.9217C22.824 20.2087 23.2128 20.3705 23.6186 20.3718H29.5488C29.9546 20.3705 30.3435 20.2087 30.6304 19.9217C30.9174 19.6348 31.0792 19.2459 31.0805 18.8401V17.8828H30.1281V18.8401C30.1276 18.9923 30.0669 19.1381 29.9593 19.2457C29.8517 19.3533 29.7059 19.414 29.5537 19.4145H23.6186C23.4665 19.414 23.3207 19.3533 23.2131 19.2457C23.1055 19.1381 23.0448 18.9923 23.0443 18.8401V14.5103C23.2255 14.5887 23.4212 14.6278 23.6186 14.6252H29.5488C29.7015 14.6244 29.8483 14.6842 29.9569 14.7915C30.0655 14.8989 30.1271 15.0449 30.1281 15.1976V16.1597H31.0854Z" fill="#10762C"/>
<path d="M30.7024 16.5427V17.4999H28.2135V16.5427H30.7024ZM30.836 15.5854H28.079C27.9707 15.5846 27.8634 15.6053 27.7632 15.6464C27.663 15.6875 27.572 15.7481 27.4955 15.8246C27.4189 15.9012 27.3583 15.9922 27.3173 16.0924C27.2762 16.1925 27.2555 16.2999 27.2562 16.4081V17.6335C27.2555 17.7417 27.2762 17.8491 27.3173 17.9492C27.3583 18.0494 27.4189 18.1404 27.4955 18.217C27.572 18.2935 27.663 18.3541 27.7632 18.3952C27.8634 18.4363 27.9707 18.457 28.079 18.4562H30.836C30.9442 18.457 31.0516 18.4363 31.1517 18.3952C31.2519 18.3541 31.3429 18.2935 31.4195 18.217C31.496 18.1404 31.5566 18.0494 31.5977 17.9492C31.6388 17.8491 31.6595 17.7417 31.6587 17.6335V16.4081C31.6595 16.2999 31.6388 16.1925 31.5977 16.0924C31.5566 15.9922 31.496 15.9012 31.4195 15.8246C31.3429 15.7481 31.2519 15.6875 31.1517 15.6464C31.0516 15.6053 30.9442 15.5846 30.836 15.5854Z" fill="#10762C"/>
</svg>
