<svg width="154" height="190" viewBox="0 0 154 190" fill="none" xmlns="http://www.w3.org/2000/svg">
<path d="M5.25 0.876732C4.0901 0.878125 2.97811 1.34042 2.15794 2.16221C1.33777 2.98401 0.876389 4.0982 0.875 5.26039V184.114C0.876389 185.276 1.33777 186.39 2.15794 187.212C2.97811 188.034 4.0901 188.496 5.25 188.497H148.75C149.91 188.496 151.022 188.034 151.842 187.212C152.662 186.39 153.124 185.276 153.125 184.114V5.26039C153.124 4.0982 152.662 2.98401 151.842 2.16221C151.022 1.34042 149.91 0.878125 148.75 0.876732H5.25ZM5.25 0H148.75C150.142 0 151.478 0.554218 152.462 1.54073C153.447 2.52725 154 3.86525 154 5.26039V184.114C154 185.509 153.447 186.847 152.462 187.833C151.478 188.82 150.142 189.374 148.75 189.374H5.25C3.85761 189.374 2.52226 188.82 1.53769 187.833C0.553123 186.847 0 185.509 0 184.114L0 5.26039C0 3.86525 0.553123 2.52725 1.53769 1.54073C2.52226 0.554218 3.85761 0 5.25 0Z" fill="#E3E6EF"/>
</svg>
