<svg width="14" height="16" viewBox="0 0 14 16" fill="none" xmlns="http://www.w3.org/2000/svg">
<path d="M7.95076 13.0369V13.3549C7.95076 13.608 7.85025 13.8506 7.67134 14.0295C7.49242 14.2084 7.24976 14.309 6.99674 14.309C6.74372 14.309 6.50106 14.2084 6.32215 14.0295C6.14323 13.8506 6.04272 13.608 6.04272 13.3549V13.0369H4.45269V13.3549C4.45269 14.0297 4.72073 14.6767 5.19783 15.1538C5.67493 15.631 6.32202 15.899 6.99674 15.899C7.67147 15.899 8.31856 15.631 8.79566 15.1538C9.27276 14.6767 9.54079 14.0297 9.54079 13.3549V13.0369H7.95076Z" fill="#E1FBDE"/>
<path d="M13.1645 11.4469C12.9629 11.4442 12.7704 11.363 12.6278 11.2204C12.4853 11.0779 12.404 10.8853 12.4013 10.6837V6.9996C12.4 5.70453 11.9338 4.45298 11.0875 3.47264C10.2413 2.49231 9.0712 1.84834 7.79022 1.65789V0.827094C7.79758 0.62735 7.72995 0.432078 7.60064 0.279667C7.47133 0.127255 7.28967 0.0287286 7.0914 0.00345752C6.98009 -0.00684948 6.86784 0.00594753 6.76171 0.0410465C6.65557 0.0761454 6.55783 0.13279 6.4746 0.207429C6.39138 0.282068 6.32447 0.373093 6.27807 0.474799C6.23167 0.576504 6.20678 0.686698 6.20496 0.798473V1.65709C4.92384 1.84756 3.75368 2.49165 2.90741 3.47215C2.06114 4.45265 1.59502 5.70439 1.59387 6.9996V10.6877C1.59119 10.8893 1.50992 11.0818 1.36737 11.2244C1.22481 11.3669 1.03224 11.4482 0.830651 11.4509C0.63025 11.4427 0.434088 11.5101 0.280978 11.6397C0.127868 11.7692 0.028964 11.9515 0.00383486 12.1505C-0.00705445 12.2621 0.00530794 12.3748 0.0401422 12.4814C0.0749764 12.588 0.131527 12.6863 0.206225 12.7699C0.280924 12.8536 0.37215 12.9209 0.474149 12.9675C0.576149 13.0141 0.686707 13.0391 0.79885 13.0409H13.2011C13.3132 13.0391 13.4238 13.0141 13.5258 12.9675C13.6278 12.9209 13.719 12.8536 13.7937 12.7699C13.8684 12.6863 13.925 12.588 13.9598 12.4814C13.9946 12.3748 14.007 12.2621 13.9961 12.1505C13.9718 11.9499 13.8727 11.766 13.7184 11.6355C13.5642 11.505 13.3663 11.4376 13.1645 11.4469ZM3.1839 11.4469V7.12282C3.17332 6.16281 3.51761 5.2327 4.15073 4.51096C4.78384 3.78923 5.66118 3.3267 6.61439 3.21214C7.14454 3.15711 7.68034 3.21411 8.18706 3.37943C8.69377 3.54475 9.16009 3.8147 9.55578 4.17179C9.95148 4.52889 10.2677 4.96515 10.484 5.45229C10.7003 5.93944 10.8118 6.4666 10.8113 6.9996V11.4517L3.1839 11.4469Z" fill="#E1FBDE"/>
</svg>
