<svg width="41" height="41" viewBox="0 0 41 41" fill="none" xmlns="http://www.w3.org/2000/svg">
<g clip-path="url(#clip0_10_2105)">
<path d="M40.9999 23.5792H0.000308486V35.175H40.9999V23.5792Z" fill="#338771"/>
<path d="M40.9996 5.8252H0V25.8672H40.9996V5.8252Z" fill="#82DCC7"/>
<path d="M4.32381 25.8665H0V21.5427C2.38777 21.5427 4.32381 23.4777 4.32381 25.8665Z" fill="#338771"/>
<path d="M0 5.82471H4.32381C4.32381 8.21247 2.38777 10.1485 0 10.1485V5.82471Z" fill="#338771"/>
<path d="M40.9996 5.82471V10.1485C38.6109 10.1485 36.6758 8.21247 36.6758 5.82471H40.9996Z" fill="#338771"/>
<path d="M40.9996 21.5427V25.8665H36.6758C36.6759 23.4777 38.6109 21.5427 40.9996 21.5427Z" fill="#338771"/>
<path d="M20.4998 22.712C23.5058 22.712 25.9427 19.6375 25.9427 15.8449C25.9427 12.0522 23.5058 8.97768 20.4998 8.97768C17.4938 8.97768 15.0569 12.0522 15.0569 15.8449C15.0569 19.6375 17.4938 22.712 20.4998 22.712Z" fill="#338771"/>
<path d="M38.5071 14.0137H28.6387V15.5397H38.5071V14.0137Z" fill="#338771"/>
<path d="M11.954 14.0137H2.08555V15.5397H11.954V14.0137Z" fill="#338771"/>
<path d="M38.5071 16.8878H32.4029V18.4138H38.5071V16.8878Z" fill="#338771"/>
<path d="M8.18974 16.8878H2.08555V18.4138H8.18974V16.8878Z" fill="#338771"/>
<path d="M40.9999 31.3091H0.000308486V32.8351H40.9999V31.3091Z" fill="#82DCC7"/>
<path d="M40.9999 28.206H0.000308486V29.732H40.9999V28.206Z" fill="#82DCC7"/>
<path d="M19.7368 13.6468H21.2629H23.705V12.1208H21.2629V10.4283H19.7368V12.1208H17.2946V16.6086H22.1789V18.0443H21.2629H19.7368H17.2946V19.5703H19.7368V21.2628H21.2629V19.5703H23.705V15.0825H18.8206V13.6468H19.7368Z" fill="#82DCC7"/>
</g>
<defs>
<clipPath id="clip0_10_2105">
<rect width="40.56" height="40.56" fill="white" transform="scale(1.01085)"/>
</clipPath>
</defs>
</svg>
