<svg width="123" height="128" viewBox="0 0 123 128" fill="none" xmlns="http://www.w3.org/2000/svg">
<path fill-rule="evenodd" clip-rule="evenodd" d="M84.303 86.7861C84.0173 86.8407 82.9556 87.1753 82.8242 87.2519C82.7285 87.3079 86.4438 101.113 86.8226 102.109C87.0006 102.577 87.4101 103.023 87.8536 103.234C88.2087 103.403 92.1444 103.451 92.3024 103.288C92.3731 103.216 96.6016 88.1313 96.7246 87.5135C96.7973 87.1485 96.6349 87.0246 95.926 86.9047C95.2394 86.7885 93.3228 86.8303 93.1984 86.9643C93.1587 87.0075 92.4588 89.8559 91.6439 93.2938C90.8286 96.732 90.1297 99.6655 90.0904 99.8128L90.0193 100.081L89.9253 99.8574C89.8736 99.7348 89.7226 99.0316 89.5892 98.2948C89.3084 96.743 89.0743 95.793 87.9093 91.4801C86.8349 87.5031 86.7732 87.3527 86.066 86.9904C85.7109 86.8082 84.7615 86.6984 84.303 86.7861ZM11.9008 86.8846L11.5674 86.9198V95.1175V103.315L12.0342 103.372C12.6357 103.444 14.3223 103.444 14.9239 103.372L15.3907 103.315V99.8898V96.4641H17.9109H20.4311L20.3884 99.8182C20.3594 102.079 20.3757 103.203 20.4381 103.265C20.5621 103.39 22.5421 103.47 23.5078 103.389L24.2827 103.324V95.1242V86.9241L23.5995 86.8598C22.8122 86.7858 20.6228 86.8521 20.4571 86.9549C20.3694 87.0095 20.3547 87.694 20.3897 90.1369L20.4344 93.2492H17.9125H15.3907V90.0914V86.9338L14.9239 86.8776C14.4387 86.819 12.482 86.8236 11.9008 86.8846ZM42.2478 86.8826C41.9317 86.9023 41.6216 86.9613 41.5586 87.0139C41.3638 87.1763 41.3928 103.097 41.5882 103.26C41.871 103.495 48.3865 103.49 49.5356 103.254C51.9321 102.76 53.1902 101.519 53.4566 99.3859C53.7013 97.4245 52.6927 95.3546 51.1318 94.6169L50.7567 94.4397L51.0691 94.2458C53.4636 92.7593 53.2479 88.9096 50.6927 87.542C49.5299 86.9194 46.0391 86.6468 42.2478 86.8826ZM56.7827 86.9023L56.1602 86.9536L56.1375 95.1048C56.1162 102.806 56.1235 103.26 56.2709 103.32C56.6373 103.472 63.5947 103.392 64.3406 103.229C66.7944 102.69 68.1152 101.089 68.1172 98.6518C68.1186 97.0431 67.1096 95.3017 65.7951 94.6437L65.363 94.4273L65.7578 94.1949C67.5704 93.1284 67.9085 90.0358 66.397 88.35C65.2046 87.0199 61.7237 86.4958 56.7827 86.9023ZM98.5682 86.9382C98.4262 87.3102 98.5876 98.9338 98.742 99.4555C99.5589 102.214 101.393 103.482 104.715 103.584C108.275 103.694 110.327 102.357 111.187 99.3664C111.358 98.7727 111.369 98.4439 111.4 92.8384L111.433 86.9355L110.881 86.8776C110.178 86.8035 108.459 86.8025 107.927 86.8759L107.518 86.9321L107.491 92.7921C107.462 99.0644 107.477 98.8554 107.006 99.6112C106.344 100.675 104.303 100.882 103.266 99.9906C102.494 99.3266 102.499 99.3694 102.435 93.6066C102.368 87.5486 102.333 87.3712 101.138 86.9619C100.593 86.7758 98.6372 86.7573 98.5682 86.9382ZM27.9373 87.0323C27.8622 87.123 27.8419 89.0971 27.8596 94.5556L27.8839 101.956L28.1307 102.378C28.2911 102.651 28.5255 102.887 28.7976 103.048L29.2177 103.296L33.0727 103.321C38.4188 103.357 38.7233 103.233 38.8453 100.951L38.8897 100.125H35.2764H31.6629V98.3839V96.6426H34.2788H36.8943L36.9907 96.1918C37.1157 95.6064 37.114 94.4183 36.9877 93.914L36.888 93.5172H34.2754H31.6629V91.8662V90.2153L34.886 90.1918L38.1087 90.1684L38.2298 89.8111C38.3945 89.3252 38.4565 88.4063 38.3801 87.5878L38.3168 86.909H33.178C28.9179 86.909 28.0216 86.9301 27.9373 87.0323ZM70.7961 87.0323C70.7211 87.123 70.7008 89.0971 70.7188 94.5556L70.7428 101.956L70.9899 102.378C71.1499 102.651 71.3843 102.887 71.6568 103.048L72.0766 103.296L75.9319 103.321C81.278 103.357 81.5825 103.233 81.7045 100.951L81.7485 100.125H78.1353H74.5221V98.3839V96.6426H77.1376H79.7535L79.8499 96.1918C79.9746 95.6064 79.9729 94.4183 79.8465 93.914L79.7472 93.5172H77.1346H74.5221V91.8652V90.2129H77.7525H80.9833L81.0923 89.878C81.2417 89.4186 81.3164 88.2187 81.24 87.5021L81.1767 86.909H76.0372C71.7771 86.909 70.8805 86.9301 70.7961 87.0323ZM48.1148 89.8707C49.0521 90.4222 49.2472 91.9352 48.4852 92.7436C48.0541 93.2014 47.8107 93.2717 46.4919 93.3192L45.2675 93.3634V91.4657V89.5676L46.4912 89.6014C47.6209 89.6326 47.7453 89.6533 48.1148 89.8707ZM62.6174 89.7883C63.8358 90.311 63.8841 92.4007 62.6931 93.0704C62.3356 93.2714 62.1772 93.2971 61.1175 93.3249L59.9391 93.3561V91.4603V89.5646L61.1175 89.6075C61.8971 89.6356 62.4043 89.6969 62.6174 89.7883ZM48.3592 96.369C49.9367 97.0688 50.0348 99.6022 48.5152 100.388C48.1071 100.599 47.9697 100.619 46.671 100.647L45.2675 100.677V98.3822V96.0873L46.5793 96.1242C47.7096 96.156 47.9554 96.1898 48.3592 96.369ZM62.9168 96.3174C64.5424 97.0287 64.6631 99.5948 63.1095 100.415C62.7861 100.585 62.5657 100.614 61.3396 100.645L59.9391 100.68V98.3836V96.0873L61.2509 96.1248C62.2366 96.153 62.6504 96.2009 62.9168 96.3174ZM72.7881 110.225C69.8855 110.613 67.9418 112.615 67.9418 115.217C67.9418 117.432 69.0582 118.664 72.3233 120.052C75.217 121.282 75.5891 121.573 75.5891 122.605C75.5891 124.324 73.0449 124.534 69.9935 123.066L68.8885 122.535L68.5494 122.867C68.0812 123.326 67.4867 124.553 67.4677 125.1L67.453 125.524L68.38 125.997C74.5044 129.127 81.078 125.981 79.5041 120.674C78.9852 118.924 78.0436 118.165 74.474 116.624C72.2763 115.675 71.9192 115.403 71.9192 114.681C71.9192 113.143 74.0509 112.88 77.0312 114.051C77.5394 114.25 77.9996 114.413 78.0536 114.413C78.3397 114.413 79.0569 113.165 79.2237 112.377C79.4084 111.503 79.4254 111.53 78.4567 111.131C76.5077 110.328 74.463 110.001 72.7881 110.225ZM41.3995 110.456C40.9533 110.481 40.7456 110.532 40.6659 110.638C40.4645 110.907 40.5082 126.813 40.7106 126.896C40.796 126.931 41.6062 126.96 42.5112 126.96C43.4158 126.96 44.2261 126.931 44.3118 126.896C44.4555 126.837 44.4672 126.607 44.4672 123.882V120.932L45.1121 120.933C46.728 120.934 46.9527 121.181 47.9317 124.036C48.634 126.083 48.8817 126.519 49.5293 126.848C50.4499 127.317 51.9514 127.046 52.9051 126.24L53.1858 126.003L52.8337 125.619C52.3752 125.119 52.1151 124.592 51.5903 123.096C50.9244 121.199 50.5052 120.482 49.8577 120.134C49.5476 119.968 49.5563 119.948 50.0781 119.638C53.1288 117.821 52.9878 112.604 49.8464 111.073C48.645 110.487 45.2985 110.243 41.3995 110.456ZM82.4581 110.46L82.08 110.494V118.663C82.08 126.359 82.089 126.836 82.2357 126.896C82.4384 126.98 85.6342 126.98 85.8369 126.896C85.9813 126.836 85.9926 126.586 85.9926 123.436V120.039H88.4821H90.972V123.436C90.972 126.586 90.9833 126.836 91.1277 126.896C91.2131 126.931 92.0233 126.96 92.9283 126.96C93.8329 126.96 94.6432 126.931 94.7289 126.896C94.918 126.818 94.9767 110.641 94.7883 110.525C94.6296 110.426 92.5779 110.366 91.7469 110.435L90.972 110.5V113.662V116.825H88.4821H85.9926V113.667V110.508L85.5798 110.452C85.157 110.394 83.135 110.399 82.4581 110.46ZM27.9463 110.591C27.7485 110.79 27.7966 126.814 27.995 126.896C28.0806 126.931 28.8909 126.96 29.7956 126.96C30.7005 126.96 31.5108 126.931 31.5962 126.896C31.7406 126.836 31.7519 126.593 31.7519 123.57V120.307H34.2888C36.6215 120.307 36.8309 120.295 36.8896 120.151C36.9753 119.942 36.9717 117.648 36.8853 117.338L36.8169 117.092H34.2844H31.7519V115.444V113.796L34.5305 113.769C37.6492 113.741 37.823 113.707 38.1984 113.065C38.3831 112.75 38.4648 111.013 38.3125 110.64C38.2311 110.441 28.143 110.394 27.9463 110.591ZM55.3376 110.543C55.1952 110.601 55.1752 124.984 55.3169 125.497C55.4663 126.037 55.7737 126.408 56.2872 126.67L56.7701 126.915H60.5633C64.5944 126.915 64.8615 126.892 65.4403 126.477C65.8931 126.154 66.1932 125.404 66.2366 124.489L66.2743 123.701H62.662H59.0502V121.959V120.218H61.6657H64.2816L64.378 119.767C64.5013 119.189 64.5013 118.122 64.378 117.543L64.2816 117.092H61.6657H59.0502V115.442V113.791L62.2729 113.767L65.496 113.744L65.6251 113.386C65.7628 113.006 65.8188 110.932 65.6994 110.64C65.6374 110.489 55.7024 110.396 55.3376 110.543ZM47.2738 113.54C48.1241 113.996 48.5459 115.133 48.2968 116.299C48.0508 117.452 47.4392 117.818 45.6569 117.879L44.4672 117.92V115.621V113.322L45.7343 113.358C46.6813 113.385 47.0704 113.432 47.2738 113.54Z" fill="#10762C"/>
<path fill-rule="evenodd" clip-rule="evenodd" d="M59.1725 1.87441C50.3531 10.8547 43.8416 25.0032 46.6471 29.0894C47.3434 30.1035 48.8211 33.1308 49.097 34.1073C49.1792 34.4006 48.904 34.0802 48.4854 33.3953C43.1797 24.7171 31.1799 19.3395 15.9775 18.8264L12.2022 18.6993V19.4562C12.2022 21.7066 13.6951 28.275 15.0811 32.1262C17.9496 40.0947 24.8112 49.6648 27.6574 49.6648C32.172 49.6648 40.0966 53.309 44.3145 57.3248L45.6966 58.6411L44.5274 57.8163C39.2202 54.0746 32.9846 51.6395 27.6957 51.2415C20.6579 50.7133 9.89823 54.0306 2.04779 59.1501C-0.493798 60.8076 -0.414053 60.5974 0.901 62.1814C12.6408 76.3179 40.619 81.9537 51.2199 72.3165C56.5687 67.4551 57.7394 60.3657 54.6324 51.6555C51.7758 43.6462 40.922 34.1641 30.2788 30.3808C26.9923 29.2124 27.0306 29.2364 28.4358 29.2204C32.8259 29.1693 42.5042 33.2211 50.6944 38.5395C62.1798 45.9966 60.7618 45.8368 68.9066 40.5934C80.5124 33.1236 89.4402 29.1717 94.6095 29.218L95.8855 29.2292L93.5457 30.0476C81.8107 34.1521 70.9426 43.5535 68.0341 52.115C64.3713 62.8966 67.818 71.9473 76.9285 75.4676C85.8778 78.9264 101.202 76.7319 111.783 70.476C115.949 68.0137 123 61.9968 123 60.9051C123 60.5878 118.335 58.1983 113.642 56.1141C98.9056 49.5665 90.4211 49.807 79.5227 57.0811C78.3464 57.8659 77.2403 58.5987 77.0648 58.7082C76.3216 59.1717 79.5833 56.2891 80.868 55.3453C84.9025 52.3828 90.5112 50.0955 94.6031 49.7431L96.0976 49.6144L98.3457 47.3488C104.911 40.7293 110.665 27.702 110.665 19.4562V18.6993L106.891 18.8264C91.6293 19.3411 79.7085 24.6835 74.3821 33.3953C73.9634 34.0802 73.6883 34.4006 73.7712 34.1073C74.0464 33.1324 75.5233 30.1043 76.2179 29.0933C78.9788 25.0719 72.4466 10.7332 63.9143 2.08699C61.1941 -0.669346 61.6503 -0.649366 59.1725 1.87441ZM61.8113 21.383L61.8592 27.3064L62.3911 27.4191C67.0293 28.4037 68.247 33.4816 64.9 37.8794C62.7484 40.7077 60.005 40.5471 57.6508 37.4551C54.6874 33.5639 56.1149 28.3349 60.3934 27.4103L61.0537 27.2672L61.0314 22.6424C61.0186 20.0987 61.0992 16.5791 61.21 14.821L61.4118 11.6243L61.5872 13.5423C61.6845 14.5972 61.785 18.1255 61.8113 21.383ZM28.3648 35.3029C33.1465 39.4762 36.9362 42.3819 42.5066 46.146C46.4095 48.7825 46.4494 48.8137 45.1654 48.1775C36.6977 43.9875 27.1957 36.2979 20.4035 28.1399C18.7639 26.1708 18.8157 26.2107 22.3183 29.6416C24.2992 31.5812 27.0194 34.1289 28.3648 35.3029ZM102.439 28.1863C97.7484 33.7285 91.4132 39.5137 85.8898 43.2986C82.908 45.3421 77.3432 48.5236 77.1286 48.3078C77.0712 48.2511 77.34 48.0409 77.7252 47.8411C82.7222 45.2518 94.6869 35.6122 101.623 28.5875C102.908 27.2864 103.991 26.2219 104.03 26.2219C104.069 26.2219 103.353 27.1058 102.439 28.1863ZM31.0228 60.5255C34.8739 61.0817 37.8908 61.7714 41.0161 62.8095C42.9389 63.4481 46.4167 64.877 45.0929 64.4838C35.015 61.4933 22.1691 60.221 9.86314 60.993L7.63018 61.1329L10.2882 60.7317C16.6649 59.7703 25.2052 59.6848 31.0228 60.5255ZM111.516 60.5327C115.681 61.0817 116.16 61.2679 112.789 61.0274C109.067 60.7613 97.9175 60.8308 95.2475 61.1361C89.1699 61.8305 84.1856 62.7392 79.8289 63.946C77.403 64.6181 77.3001 64.6284 78.4485 64.0874C82.2908 62.2797 89.87 60.5359 96.0976 60.0284C99.0403 59.7887 108.121 60.086 111.516 60.5327Z" fill="#10762C"/>
</svg>
