<svg width="21" height="14" viewBox="0 0 21 14" fill="none" xmlns="http://www.w3.org/2000/svg">
<path d="M20.114 7.78029H0.885847C0.650906 7.78029 0.425587 7.68696 0.259459 7.52083C0.09333 7.3547 0 7.12939 0 6.89445C0 6.6595 0.09333 6.43419 0.259459 6.26806C0.425587 6.10193 0.650906 6.0086 0.885847 6.0086H20.114C20.349 6.0086 20.5743 6.10193 20.7404 6.26806C20.9066 6.43419 20.9999 6.6595 20.9999 6.89445C20.9999 7.12939 20.9066 7.3547 20.7404 7.52083C20.5743 7.68696 20.349 7.78029 20.114 7.78029Z" fill="#10762C"/>
<path d="M20.114 1.77169H10.4999C10.265 1.77169 10.0396 1.67836 9.87351 1.51223C9.70738 1.34611 9.61405 1.12079 9.61405 0.885847C9.61405 0.650906 9.70738 0.425587 9.87351 0.259459C10.0396 0.09333 10.265 0 10.4999 0H20.114C20.3489 0 20.5743 0.09333 20.7404 0.259459C20.9065 0.425587 20.9998 0.650906 20.9998 0.885847C20.9998 1.12079 20.9065 1.34611 20.7404 1.51223C20.5743 1.67836 20.3489 1.77169 20.114 1.77169Z" fill="#10762C"/>
<path d="M10.4999 13.7891H0.885847C0.650906 13.7891 0.425587 13.6958 0.259459 13.5297C0.09333 13.3636 0 13.1382 0 12.9033C0 12.6683 0.09333 12.443 0.259459 12.2769C0.425587 12.1108 0.650906 12.0174 0.885847 12.0174H10.4999C10.7349 12.0174 10.9602 12.1108 11.1263 12.2769C11.2925 12.443 11.3858 12.6683 11.3858 12.9033C11.3858 13.1382 11.2925 13.3636 11.1263 13.5297C10.9602 13.6958 10.7349 13.7891 10.4999 13.7891Z" fill="#10762C"/>
</svg>
