<svg width="37" height="37" viewBox="0 0 37 37" fill="none" xmlns="http://www.w3.org/2000/svg">
<path d="M18.4898 36.9996C28.7015 36.9996 36.9797 28.717 36.9797 18.4998C36.9797 8.28264 28.7015 0 18.4898 0C8.27818 0 0 8.28264 0 18.4998C0 28.717 8.27818 36.9996 18.4898 36.9996Z" fill="white"/>
<path d="M18.4903 36.9999C15.0538 37.0055 11.6843 36.0483 8.76348 34.2367L21.1484 0.190092C25.7766 0.858532 29.9797 3.25668 32.9114 6.90161C35.8431 10.5465 37.2856 15.1675 36.9485 19.834C36.6113 24.5005 34.5195 28.8658 31.0943 32.0509C27.6691 35.2361 23.165 37.0044 18.4889 36.9999H18.4903Z" fill="#6E7BF2"/>
<path d="M12.2182 18.4188C12.2234 18.1075 12.1915 17.7967 12.1232 17.493H7.86786V19.1754H10.3662C10.3192 19.4705 10.213 19.7529 10.054 20.0058C9.89495 20.2587 9.6864 20.4767 9.44089 20.6468L9.432 20.7023L10.7769 21.7453L10.8701 21.7542C11.3152 21.3234 11.6652 20.8041 11.8975 20.2298C12.1297 19.6554 12.2391 19.0387 12.2186 18.4195" fill="#4285F4"/>
<path d="M7.86773 22.8527C8.97179 22.8838 10.0458 22.4907 10.8693 21.7542L9.44005 20.645C8.97653 20.9562 8.42744 21.1147 7.86951 21.0983C7.29631 21.0945 6.73882 20.9104 6.27596 20.5721C5.81309 20.2338 5.4683 19.7584 5.29038 19.2132L5.23665 19.2186L3.83801 20.3011L3.82021 20.3513C4.19554 21.1036 4.77319 21.7364 5.48822 22.1783C6.20324 22.6202 7.0273 22.8537 7.86773 22.8527Z" fill="#34A853"/>
<path d="M5.28855 19.2154C5.18937 18.9264 5.13851 18.6231 5.13801 18.3177C5.14022 18.0126 5.18981 17.7098 5.28499 17.42L5.28321 17.3609L3.86642 16.2606L3.8198 16.2819C3.50189 16.9133 3.33629 17.6105 3.33629 18.3175C3.33629 19.0245 3.50189 19.7216 3.8198 20.353L5.28855 19.2136" fill="#FBBC05"/>
<path d="M7.86779 15.5374C8.51735 15.5267 9.14559 15.7693 9.61947 16.214L10.8989 14.9652C10.0781 14.1954 8.99164 13.7729 7.86672 13.7862C7.0264 13.7858 6.20255 14.0194 5.4874 14.4609C4.77225 14.9024 4.19401 15.5343 3.81742 16.2859L5.28225 17.4253C5.46197 16.8799 5.8082 16.4046 6.27217 16.0664C6.73615 15.7282 7.29447 15.5442 7.8685 15.5403" fill="#EB4335"/>
<path d="M19.3518 18.8222V22.1173H18.2987V13.9766H21.0906C21.4236 13.9694 21.7548 14.0279 22.0652 14.1487C22.3755 14.2696 22.6591 14.4504 22.8996 14.6809C23.1258 14.8895 23.3087 15.1406 23.4379 15.42C23.567 15.6993 23.6399 16.0014 23.6524 16.3089C23.6648 16.6164 23.6166 16.9234 23.5105 17.2122C23.4043 17.5011 23.2424 17.7663 23.0338 17.9925C22.9908 18.04 22.9461 18.0847 22.8996 18.1267C22.6584 18.3556 22.3745 18.5346 22.0641 18.6535C21.7537 18.7725 21.4229 18.8291 21.0906 18.82L19.3518 18.8218V18.8222ZM19.3518 14.9786V17.8205H21.1159C21.3933 17.8269 21.6665 17.7517 21.9016 17.6041C22.1366 17.4565 22.3231 17.2431 22.4379 16.9904C22.5528 16.7376 22.5909 16.4567 22.5475 16.1825C22.5041 15.9083 22.3811 15.6528 22.1939 15.4479L22.1832 15.4372C22.1747 15.4278 22.1656 15.4187 22.1561 15.4102C22.0229 15.2688 21.8614 15.1573 21.682 15.0829C21.5027 15.0084 21.3096 14.9728 21.1155 14.9782L19.3518 14.9786ZM26.078 16.3673C26.7491 16.3295 27.409 16.5515 27.9209 16.9873C28.1493 17.2049 28.3279 17.4695 28.4447 17.7627C28.5614 18.0559 28.6133 18.3709 28.597 18.6861V22.1194H27.5906V21.3453H27.5457C27.3627 21.6413 27.1061 21.8848 26.8011 22.0522C26.4961 22.2195 26.1529 22.305 25.8051 22.3003C25.2385 22.3189 24.6855 22.1238 24.2559 21.7538C24.0569 21.5873 23.8977 21.3785 23.7899 21.1425C23.682 20.9065 23.6283 20.6494 23.6327 20.39C23.6238 20.1249 23.679 19.8615 23.7934 19.6223C23.9078 19.383 24.0782 19.1749 24.2901 19.0155C24.8018 18.6526 25.4207 18.4728 26.0471 18.5049C26.5823 18.4847 27.1138 18.6019 27.5909 18.8453V18.6053C27.5922 18.4282 27.5538 18.2531 27.4784 18.0929C27.4031 17.9327 27.2928 17.7914 27.1557 17.6795C26.8767 17.4302 26.5144 17.2946 26.1403 17.2996C25.8641 17.2932 25.591 17.3577 25.3467 17.4869C25.1025 17.6161 24.8954 17.8057 24.7452 18.0377L23.8199 17.4573C24.0721 17.0974 24.4123 16.808 24.808 16.617C25.2036 16.4259 25.6416 16.3395 26.0802 16.3659L26.078 16.3673ZM24.715 20.4135C24.7144 20.5467 24.7455 20.6782 24.806 20.7969C24.8664 20.9156 24.9543 21.0182 25.0623 21.0961C25.2958 21.2783 25.5849 21.3745 25.8809 21.3685C26.3246 21.3685 26.7503 21.1926 27.0646 20.8792C27.2287 20.7362 27.3602 20.5597 27.4504 20.3616C27.5406 20.1634 27.5873 19.9482 27.5874 19.7305C27.1869 19.4482 26.7026 19.3101 26.2136 19.3388C25.8342 19.3248 25.4602 19.4322 25.146 19.6454C25.0165 19.7277 24.9095 19.8409 24.8345 19.9747C24.7595 20.1086 24.7188 20.259 24.7161 20.4124L24.715 20.4135ZM34.3756 16.55L30.8615 24.5725H29.7743L31.0783 21.7644L28.765 16.5464H29.9095L31.5822 20.5477H31.6053L33.2296 16.5464L34.3756 16.55Z" fill="white"/>
</svg>
