<svg width="34" height="11" viewBox="0 0 34 11" fill="none" xmlns="http://www.w3.org/2000/svg">
<path d="M9.6707 0L7.11652 7.6091C7.11652 7.6091 6.47142 4.39136 6.40633 3.98525C4.94902 0.672305 2.81163 0.857869 2.81163 0.857869L5.33666 10.6869H8.40673L12.6533 0H9.6707Z" fill="#1C1F26"/>
<path d="M12.0996 10.6869H14.8888L16.5803 0H13.7541L12.0996 10.6869Z" fill="#1C1F26"/>
<path d="M31.8412 0H28.9072L24.3303 10.6869H27.1011L27.6743 9.16162H31.166L31.4575 10.6869H34L31.8412 0ZM28.4409 7.11944L29.9594 3.08172L30.756 7.11944H28.4409Z" fill="#1C1F26"/>
<path d="M20.5315 3.11573C20.5315 2.52795 21.0173 2.08687 22.4066 2.08687C23.0931 2.15107 23.7547 2.37606 24.338 2.74363L24.7937 0.500342C23.9538 0.197591 23.0716 0.02875 22.1793 0C19.2452 0 17.7316 1.39999 17.7316 3.17693C17.7316 6.39176 21.5983 5.95068 21.5983 7.59841C21.5983 7.88307 21.3748 8.53595 19.7611 8.53595C18.8341 8.54945 17.9167 8.34687 17.0816 7.94428L16.5958 10.1001C17.5459 10.5338 18.5857 10.735 19.629 10.6869C21.6294 10.6869 24.407 9.19174 24.407 7.03978C24.406 4.45548 20.5315 4.26992 20.5315 3.11573Z" fill="#1C1F26"/>
<path d="M6.77843 5.77593L5.8409 1.16112C5.70493 0.868356 5.48953 0.619629 5.21919 0.443238C4.94885 0.266846 4.63442 0.169873 4.31169 0.163351H0C0 0.163351 5.49891 1.78777 6.77843 5.77593Z" fill="#7D84B2"/>
</svg>
