<svg width="32" height="20" viewBox="0 0 32 20" fill="none" xmlns="http://www.w3.org/2000/svg">
<path d="M32 9.69567C32 11.6127 31.4315 13.4868 30.3664 15.0808C29.3014 16.6748 27.7875 17.9171 26.0164 18.6508C24.2452 19.3844 22.2963 19.5764 20.4161 19.2024C18.5358 18.8283 16.8087 17.9052 15.4531 16.5496C14.0976 15.194 13.1744 13.4669 12.8004 11.5867C12.4264 9.70642 12.6183 7.7575 13.352 5.98634C14.0856 4.21519 15.328 2.70136 16.922 1.63629C18.516 0.571217 20.39 0.00273695 22.3071 0.00273695C24.8778 0.00273695 27.3432 1.02395 29.161 2.84173C30.9788 4.65951 32 7.12494 32 9.69567Z" fill="#FFC107"/>
<path d="M14.5682 15.5116C14.1141 14.912 13.7315 14.2614 13.4283 13.573H18.5889C18.8625 12.9504 19.0694 12.3006 19.2063 11.6344H12.808C12.6778 10.9965 12.6128 10.3469 12.6141 9.69585H19.3992C19.3987 9.04484 19.3337 8.39549 19.2053 7.75726H12.808C12.9462 7.09098 13.1545 6.44118 13.4293 5.81868H18.5898C18.2867 5.13028 17.9041 4.47967 17.4499 3.88009H14.5682C14.989 3.31461 15.47 2.79655 16.0028 2.33504C14.5272 1.0696 12.7051 0.277083 10.7733 0.0604085C8.84154 -0.156266 6.88922 0.212913 5.16992 1.12C3.45062 2.02709 2.04378 3.43018 1.13211 5.14705C0.220431 6.86393 -0.153959 8.81525 0.057559 10.7476C0.269077 12.68 1.05673 14.5041 2.31822 15.9831C3.57972 17.4621 5.25677 18.5276 7.13159 19.0413C9.00641 19.555 10.9924 19.4931 12.8315 18.8637C14.6707 18.2342 16.2782 17.0663 17.4451 15.5116H14.5682Z" fill="#FF3D00"/>
</svg>
