<svg width="296" height="52" viewBox="0 0 296 52" fill="none" xmlns="http://www.w3.org/2000/svg">
<path d="M9.19255 0.919255C6.99908 0.921688 4.89615 1.79412 3.34513 3.34513C1.79412 4.89615 0.921688 6.99908 0.919255 9.19255V42.2857C0.921688 44.4792 1.79412 46.5821 3.34513 48.1331C4.89615 49.6841 6.99908 50.5566 9.19255 50.559H286.807C289.001 50.5566 291.104 49.6841 292.655 48.1331C294.206 46.5821 295.078 44.4792 295.081 42.2857V9.19255C295.078 6.99908 294.206 4.89615 292.655 3.34513C291.104 1.79412 289.001 0.921688 286.807 0.919255H9.19255ZM9.19255 0H286.807C289.245 0 291.584 0.968498 293.308 2.69243C295.032 4.41637 296 6.75453 296 9.19255V42.2857C296 44.7237 295.032 47.0619 293.308 48.7858C291.584 50.5098 289.245 51.4783 286.807 51.4783H9.19255C6.75453 51.4783 4.41637 50.5098 2.69243 48.7858C0.968498 47.0619 0 44.7237 0 42.2857L0 9.19255C0 6.75453 0.968498 4.41637 2.69243 2.69243C4.41637 0.968498 6.75453 0 9.19255 0Z" fill="#12823C" fill-opacity="0.5"/>
</svg>
