<svg width="16" height="16" viewBox="0 0 16 16" fill="none" xmlns="http://www.w3.org/2000/svg">
<path d="M11.6591 10.624L15.7865 14.7461C15.8542 14.8138 15.9079 14.8941 15.9446 14.9825C15.9812 15.0709 16.0001 15.1657 16.0001 15.2614C16.0001 15.3571 15.9812 15.4518 15.9446 15.5402C15.9079 15.6287 15.8542 15.709 15.7865 15.7767C15.7188 15.8443 15.6384 15.898 15.55 15.9346C15.4615 15.9712 15.3667 15.9901 15.2709 15.9901C15.1752 15.9901 15.0804 15.9712 14.9919 15.9346C14.9034 15.898 14.823 15.8443 14.7553 15.7767L10.6306 11.6519C9.32361 12.6953 7.66641 13.1991 5.99937 13.0596C4.33232 12.9202 2.78197 12.1481 1.66672 10.902C0.551473 9.65592 -0.0440214 8.03035 0.00253812 6.35917C0.0490977 4.68798 0.734177 3.09804 1.91708 1.91588C3.09998 0.733718 4.69091 0.049067 6.36314 0.00253653C8.03537 -0.0439939 9.66195 0.551128 10.9088 1.66568C12.1557 2.78023 12.9283 4.32961 13.0678 5.99562C13.2073 7.66162 12.7033 9.31779 11.6591 10.624ZM6.54503 11.6288C7.5519 11.6286 8.5361 11.33 9.37319 10.7709C10.2103 10.2117 10.8627 9.41704 11.2479 8.48735C11.633 7.55766 11.7337 6.5347 11.5372 5.54782C11.3407 4.56094 10.8557 3.65446 10.1437 2.943C9.43168 2.23155 8.52455 1.74707 7.53702 1.55083C6.54949 1.35459 5.5259 1.45539 4.5957 1.8405C3.66549 2.22561 2.87044 2.87773 2.31108 3.7144C1.75171 4.55107 1.45315 5.53471 1.45315 6.54094C1.45315 7.20916 1.58486 7.87083 1.84076 8.48817C2.09667 9.10551 2.47175 9.66642 2.94458 10.1389C3.41742 10.6113 3.97875 10.9861 4.59652 11.2417C5.21429 11.4974 5.8764 11.6289 6.54503 11.6288Z" fill="#10762C"/>
</svg>
