<svg width="37" height="37" viewBox="0 0 37 37" fill="none" xmlns="http://www.w3.org/2000/svg">
<g clip-path="url(#clip0_16_715)">
<path d="M15.8574 31.7145H10.5717C9.72594 31.7145 8.88023 31.2917 8.35166 30.6574C7.82308 30.0231 7.61166 29.1774 7.82308 28.3317L12.3688 8.45738C12.6859 7.18881 13.7431 6.3431 15.1174 6.3431H24.2088C26.6402 6.3431 28.8602 7.40024 30.4459 9.3031C31.9259 11.206 32.5602 13.6374 32.0317 16.0688C31.1859 20.2974 27.3802 23.2574 23.0459 23.2574H19.6631C19.1345 23.2574 18.6059 23.6802 18.5002 24.2088L16.9145 30.8688C16.8088 31.3974 16.3859 31.7145 15.8574 31.7145Z" fill="black"/>
<path d="M15.8574 31.7145H10.5717C9.72594 31.7145 8.88023 31.2917 8.35166 30.6574C7.82308 30.0231 7.61166 29.1774 7.82308 28.3317L12.3688 8.45738C12.6859 7.18881 13.7431 6.3431 15.1174 6.3431H24.2088C26.6402 6.3431 28.8602 7.40024 30.4459 9.3031C31.9259 11.206 32.5602 13.6374 32.0317 16.0688C31.1859 20.2974 27.3802 23.2574 23.0459 23.2574H19.6631C19.1345 23.2574 18.6059 23.6802 18.5002 24.2088L16.9145 30.8688C16.8088 31.3974 16.3859 31.7145 15.8574 31.7145Z" fill="#01308A"/>
<path d="M34.1461 16.1744C34.1461 16.2801 34.1461 16.3858 34.1461 16.4915C33.0889 21.6715 28.4375 25.3715 23.1518 25.3715H20.5089L19.0289 31.3973C18.6061 32.8773 17.3375 33.8287 15.8575 33.8287H13.7432C13.8489 34.2515 13.9546 34.5687 14.2718 34.8858C14.8004 35.5201 15.5404 35.8373 16.3861 35.8373H21.1432C21.6718 35.8373 22.0947 35.5201 22.2004 35.0973L23.6804 29.283C23.7861 28.8601 24.2089 28.6487 24.6318 28.6487H27.6975C31.6089 28.6487 35.0975 26.0058 35.8375 22.3058C36.2604 20.0858 35.6261 17.7601 34.1461 16.1744Z" fill="#019CDE"/>
</g>
<defs>
<clipPath id="clip0_16_715">
<rect width="36.4" height="36.4" fill="white" transform="scale(1.01648)"/>
</clipPath>
</defs>
</svg>
