<svg width="18" height="17" viewBox="0 0 18 17" fill="none" xmlns="http://www.w3.org/2000/svg">
<path d="M0.506555 0.506555H2.72695L4.50327 12.9408H13.8289M13.8289 12.9408C12.8479 12.9408 12.0526 13.736 12.0526 14.7171C12.0526 15.6982 12.8479 16.4934 13.8289 16.4934C14.81 16.4934 15.6053 15.6982 15.6053 14.7171C15.6053 13.736 14.81 12.9408 13.8289 12.9408ZM4.12262 10.2763H14.7171L17.3816 2.28287H2.98071M8.49998 14.7171C8.49998 15.6982 7.70473 16.4934 6.72367 16.4934C5.74263 16.4934 4.94735 15.6982 4.94735 14.7171C4.94735 13.736 5.74263 12.9408 6.72367 12.9408C7.70473 12.9408 8.49998 13.736 8.49998 14.7171Z" stroke="#10762C" stroke-linecap="round" stroke-linejoin="round"/>
</svg>
