<svg width="22" height="20" viewBox="0 0 22 20" fill="none" xmlns="http://www.w3.org/2000/svg">
<path opacity="0.4" d="M14.9934 13.0315H14.4642C13.9071 13.0315 13.3779 13.2473 12.9879 13.6373L11.7971 14.8141C11.254 15.3503 10.3696 15.3503 9.82645 14.8141L8.63568 13.6373C8.24572 13.2473 7.70953 13.0315 7.1594 13.0315H6.63714C5.48118 13.0315 4.54807 12.1053 4.54807 10.9633V3.36601C4.54807 2.22399 5.48118 1.29785 6.63714 1.29785H14.9934C16.1494 1.29785 17.0825 2.22399 17.0825 3.36601V10.9633C17.0825 12.0983 16.1494 13.0315 14.9934 13.0315Z" fill="#10762C"/>
<path d="M9.68755 10.0023H7.82134C7.51494 10.0023 7.22943 9.85611 7.04838 9.60542C6.87429 9.36866 6.8325 9.07626 6.91607 8.79772C7.15979 8.05261 7.75866 7.64866 8.28789 7.28655C8.84498 6.91052 9.15834 6.6738 9.15834 6.26991C9.15834 5.90781 8.86587 5.61534 8.50376 5.61534C8.14166 5.61534 7.84919 5.90781 7.84919 6.26991C7.84919 6.55542 7.61243 6.79218 7.32692 6.79218C7.04142 6.79218 6.80466 6.55542 6.80466 6.26991C6.80466 5.33679 7.56368 4.5708 8.50376 4.5708C9.44383 4.5708 10.2029 5.32983 10.2029 6.26991C10.2029 7.2518 9.46472 7.75311 8.87284 8.157C8.50378 8.40769 8.15558 8.64445 7.98149 8.95781H9.68059C9.9661 8.95781 10.2029 9.19457 10.2029 9.48008C10.2029 9.76558 9.97306 10.0023 9.68755 10.0023Z" fill="#10762C"/>
<path d="M13.6293 10.0024C13.3438 10.0024 13.1071 9.76562 13.1071 9.48011V8.99962H11.7423C11.7423 8.99962 11.7423 8.99962 11.7353 8.99962C11.3941 8.99962 11.0807 8.81864 10.9067 8.52617C10.7326 8.22674 10.7326 7.8576 10.9067 7.56513C11.3802 6.75042 11.9303 5.82424 12.4317 5.01647C12.6545 4.66132 13.0793 4.5012 13.4762 4.61261C13.8731 4.731 14.1517 5.09308 14.1447 5.51089V7.96212H14.2979C14.5834 7.96212 14.8202 8.19888 14.8202 8.48439C14.8202 8.76989 14.5834 9.00666 14.2979 9.00666H14.1516V9.48714C14.1516 9.77265 13.9218 10.0024 13.6293 10.0024ZM13.1071 5.9148C12.6962 6.5833 12.2714 7.30051 11.8885 7.95509H13.1071V5.9148Z" fill="#10762C"/>
<path opacity="0.3" d="M19.0806 6.87598H18.282V14.272H19.0806C19.7567 14.2712 20.4048 14.0023 20.8829 13.5243C21.3609 13.0462 21.6298 12.3981 21.6306 11.7221V9.43005C21.6307 8.75334 21.3622 8.10426 20.8841 7.62539C20.406 7.14648 19.7574 6.87697 19.0806 6.87598Z" fill="#10762C"/>
<path d="M18.282 13.4403V14.2723H17.4501C17.2294 14.2723 17.0178 14.1846 16.8618 14.0286C16.7058 13.8726 16.6181 13.661 16.6181 13.4403C16.6177 13.331 16.639 13.2226 16.6807 13.1215C16.7223 13.0204 16.7836 12.9286 16.8609 12.8512C16.9382 12.7739 17.0301 12.7126 17.1312 12.671C17.2323 12.6293 17.3407 12.608 17.4501 12.6084C17.6707 12.6084 17.8823 12.696 18.0383 12.8521C18.1944 13.0081 18.282 13.2197 18.282 13.4403Z" fill="#10762C"/>
<path d="M16.6181 13.44V7.70792C16.6181 7.48725 16.7058 7.27564 16.8618 7.11965C17.0178 6.96362 17.2294 6.87598 17.4501 6.87598H18.282V13.44C18.282 13.2194 18.1944 13.0077 18.0383 12.8518C17.8823 12.6957 17.6707 12.6081 17.4501 12.6081C17.3407 12.6077 17.2323 12.6289 17.1312 12.6706C17.0301 12.7123 16.9382 12.7736 16.8609 12.8509C16.7836 12.9282 16.7223 13.0201 16.6807 13.1212C16.639 13.2223 16.6177 13.3307 16.6181 13.44Z" fill="#10762C"/>
<path d="M17.45 14.2721H18.282V16.3004C18.2834 16.3463 18.2806 16.3922 18.2737 16.4376C18.2493 16.6391 18.1522 16.8247 18.0005 16.9596C17.8488 17.0945 17.653 17.1692 17.45 17.1698C17.2294 17.1698 17.0178 17.0821 16.8618 16.9261C16.7057 16.77 16.6181 16.5584 16.6181 16.3378V13.4385C16.6179 13.5479 16.6392 13.6562 16.681 13.7574C16.7227 13.8585 16.7839 13.9504 16.8612 14.0278C16.9384 14.1052 17.0303 14.1667 17.1313 14.2086C17.2323 14.2505 17.3406 14.2721 17.45 14.2721Z" fill="#10762C"/>
<path d="M18.2737 16.4392C18.2398 17.0915 17.9568 17.7059 17.4831 18.1556C17.0094 18.6053 16.3811 18.856 15.7279 18.856H15.2329C15.3531 18.5951 15.4156 18.3113 15.4159 18.024C15.4156 17.7368 15.3531 17.453 15.2329 17.1921H15.7279C15.9575 17.1918 16.1781 17.103 16.3439 16.9442C16.5097 16.7853 16.6079 16.5687 16.6181 16.3394C16.6181 16.56 16.7057 16.7716 16.8618 16.9276C17.0178 17.0837 17.2294 17.1713 17.45 17.1713C17.653 17.1707 17.8488 17.096 18.0005 16.9612C18.1522 16.8263 18.2493 16.6407 18.2737 16.4392Z" fill="#10762C"/>
<path opacity="0.3" d="M15.2329 17.192C15.0747 16.8487 14.8212 16.5581 14.5027 16.3546C14.1842 16.1511 13.8139 16.0432 13.4359 16.0439H9.99998C9.47544 16.0446 8.97261 16.2536 8.60206 16.6249C8.23156 16.9962 8.02365 17.4994 8.02411 18.024C8.02453 18.5479 8.23289 19.0502 8.60331 19.4206C8.97378 19.7911 9.47606 19.9994 9.99998 19.9998H13.4359C13.8131 19.9994 14.1824 19.8916 14.5006 19.689C14.8189 19.4865 15.0728 19.1975 15.2329 18.8559C15.3531 18.595 15.4156 18.3112 15.4159 18.024C15.4156 17.7367 15.3531 17.4529 15.2329 17.192Z" fill="#10762C"/>
<path d="M16.6181 7.70796V2.49582C16.6175 2.2754 16.5296 2.06416 16.3737 1.9083C16.2179 1.75239 16.0066 1.66454 15.7862 1.66387H5.84859C5.62796 1.66387 5.41631 1.75156 5.26032 1.90755C5.10429 2.06358 5.01664 2.27519 5.01664 2.49582V7.70796C5.01598 7.48753 4.92812 7.2763 4.77226 7.12044C4.61635 6.96457 4.40512 6.87668 4.1847 6.87601H3.35275V2.49582C3.35396 1.83426 3.61731 1.20015 4.08511 0.732357C4.55292 0.264559 5.18703 0.00121048 5.84859 0H15.7862C16.4475 0.00197587 17.0812 0.265565 17.5488 0.733198C18.0165 1.20081 18.2801 1.83451 18.282 2.49582V6.87601H17.4501C17.2294 6.87601 17.0178 6.9637 16.8618 7.11969C16.7058 7.27572 16.6181 7.48732 16.6181 7.70796Z" fill="#10762C"/>
<path d="M5.01664 13.44C5.01598 13.6604 4.92812 13.8717 4.77226 14.0275C4.61635 14.1835 4.40512 14.2713 4.1847 14.272C3.96407 14.272 3.75242 14.1843 3.59643 14.0283C3.4404 13.8723 3.35275 13.6607 3.35275 13.44V6.87598H4.1847C4.40512 6.87664 4.61635 6.9645 4.77226 7.12036C4.92812 7.27627 5.01598 7.48746 5.01664 7.70792V13.44Z" fill="#10762C"/>
<path opacity="0.3" d="M3.35274 13.44V6.87598H2.54991C1.87321 6.87697 1.22459 7.14648 0.746488 7.62539C0.268381 8.10426 -0.00010812 8.75334 3.26619e-08 9.43005V11.7221C0.000773742 12.3981 0.269671 13.0462 0.747707 13.5243C1.22574 14.0023 1.87387 14.2712 2.54991 14.272H4.18468C3.96405 14.272 3.75241 14.1843 3.59642 14.0283C3.44038 13.8723 3.35274 13.6607 3.35274 13.44Z" fill="#10762C"/>
</svg>
